Rubik-Bold.ufo
<glyph name="exclam" format="1">
  <advance width="302"/>
  <unicode hex="0021"/>
  <outline>
    <contour>
      <point x="241" y="673" type="line" name="hr00" smooth="yes"/>
      <point x="241" y="688"/>
      <point x="229" y="700"/>
      <point x="214" y="700" type="curve" smooth="yes"/>
      <point x="88" y="700" type="line" smooth="yes"/>
      <point x="73" y="700"/>
      <point x="61" y="688"/>
      <point x="61" y="673" type="curve" smooth="yes"/>
      <point x="61" y="242" type="line" smooth="yes"/>
      <point x="61" y="227"/>
      <point x="73" y="215"/>
      <point x="88" y="215" type="curve" smooth="yes"/>
      <point x="214" y="215" type="line" smooth="yes"/>
      <point x="229" y="215"/>
      <point x="241" y="227"/>
      <point x="241" y="242" type="curve" smooth="yes"/>
    </contour>
    <contour>
      <point x="241" y="128" type="line" smooth="yes"/>
      <point x="241" y="143"/>
      <point x="229" y="155"/>
      <point x="214" y="155" type="curve" smooth="yes"/>
      <point x="88" y="155" type="line" smooth="yes"/>
      <point x="73" y="155"/>
      <point x="61" y="143"/>
      <point x="61" y="128" type="curve" smooth="yes"/>
      <point x="61" y="27" type="line" smooth="yes"/>
      <point x="61" y="12"/>
      <point x="73" y="0"/>
      <point x="88" y="0" type="curve" smooth="yes"/>
      <point x="214" y="0" type="line" smooth="yes"/>
      <point x="229" y="0"/>
      <point x="241" y="12"/>
      <point x="241" y="27" type="curve" smooth="yes"/>
    </contour>
  </outline>
</glyph>
<glyph name="quotedbl" format="1">
  <advance width="488"/>
  <unicode hex="0022"/>
  <outline>
    <contour>
      <point x="447" y="674" type="line" name="hr00" smooth="yes"/>
      <point x="449" y="694"/>
      <point x="441" y="710"/>
      <point x="420" y="710" type="curve" smooth="yes"/>
      <point x="296" y="710" type="line" smooth="yes"/>
      <point x="275" y="710"/>
      <point x="267" y="694"/>
      <point x="269" y="674" type="curve" smooth="yes"/>
      <point x="291" y="466" type="line" smooth="yes"/>
      <point x="293" y="448"/>
      <point x="305" y="438"/>
      <point x="319" y="438" type="curve" smooth="yes"/>
      <point x="397" y="438" type="line" smooth="yes"/>
      <point x="411" y="438"/>
      <point x="423" y="448"/>
      <point x="425" y="466" type="curve" smooth="yes"/>
    </contour>
    <contour>
      <point x="219" y="674" type="line" smooth="yes"/>
      <point x="221" y="694"/>
      <point x="213" y="710"/>
      <point x="192" y="710" type="curve" smooth="yes"/>
      <point x="68" y="710" type="line" smooth="yes"/>
      <point x="47" y="710"/>
      <point x="39" y="694"/>
      <point x="41" y="674" type="curve" smooth="yes"/>
      <point x="63" y="466" type="line" smooth="yes"/>
      <point x="65" y="448"/>
      <point x="77" y="438"/>
      <point x="91" y="438" type="curve" smooth="yes"/>
      <point x="169" y="438" type="line" smooth="yes"/>
      <point x="183" y="438"/>
      <point x="195" y="448"/>
      <point x="197" y="466" type="curve" smooth="yes"/>
    </contour>
  </outline>
</glyph>
<glyph name="numbersign" format="1">
  <advance width="689"/>
  <unicode hex="0023"/>
  <outline>
    <contour>
      <point x="577" y="630" type="line" name="hr00"/>
      <point x="577" y="633" type="line"/>
      <point x="577" y="645"/>
      <point x="567" y="655"/>
      <point x="555" y="655" type="curve"/>
      <point x="449" y="655" type="line"/>
      <point x="436" y="655"/>
      <point x="427" y="645"/>
      <point x="425" y="634" type="curve"/>
      <point x="412" y="549" type="line"/>
      <point x="337" y="549" type="line"/>
      <point x="350" y="630" type="line"/>
      <point x="350" y="633" type="line"/>
      <point x="350" y="645"/>
      <point x="340" y="655"/>
      <point x="328" y="655" type="curve"/>
      <point x="222" y="655" type="line"/>
      <point x="209" y="655"/>
      <point x="200" y="645"/>
      <point x="198" y="634" type="curve"/>
      <point x="185" y="549" type="line"/>
      <point x="99" y="549" type="line"/>
      <point x="84" y="549"/>
      <point x="72" y="537"/>
      <point x="72" y="522" type="curve"/>
      <point x="72" y="426" type="line"/>
      <point x="72" y="411"/>
      <point x="84" y="399"/>
      <point x="99" y="399" type="curve"/>
      <point x="162" y="399" type="line"/>
      <point x="147" y="295" type="line"/>
      <point x="73" y="295" type="line"/>
      <point x="58" y="295"/>
      <point x="46" y="283"/>
      <point x="46" y="268" type="curve"/>
      <point x="46" y="172" type="line"/>
      <point x="46" y="157"/>
      <point x="58" y="145"/>
      <point x="73" y="145" type="curve"/>
      <point x="124" y="145" type="line"/>
      <point x="112" y="63" type="line"/>
      <point x="112" y="61" type="line"/>
      <point x="112" y="49"/>
      <point x="122" y="39"/>
      <point x="134" y="39" type="curve"/>
      <point x="239" y="39" type="line"/>
      <point x="252" y="39"/>
      <point x="262" y="48"/>
      <point x="264" y="60" type="curve"/>
      <point x="277" y="145" type="line"/>
      <point x="351" y="145" type="line"/>
      <point x="339" y="63" type="line"/>
      <point x="339" y="61" type="line"/>
      <point x="339" y="49"/>
      <point x="349" y="39"/>
      <point x="361" y="39" type="curve"/>
      <point x="466" y="39" type="line"/>
      <point x="479" y="39"/>
      <point x="489" y="48"/>
      <point x="491" y="60" type="curve"/>
      <point x="504" y="145" type="line"/>
      <point x="590" y="145" type="line"/>
      <point x="605" y="145"/>
      <point x="617" y="157"/>
      <point x="617" y="172" type="curve"/>
      <point x="617" y="268" type="line"/>
      <point x="617" y="283"/>
      <point x="605" y="295"/>
      <point x="590" y="295" type="curve"/>
      <point x="526" y="295" type="line"/>
      <point x="542" y="399" type="line"/>
      <point x="616" y="399" type="line"/>
      <point x="631" y="399"/>
      <point x="643" y="411"/>
      <point x="643" y="426" type="curve"/>
      <point x="643" y="522" type="line"/>
      <point x="643" y="537"/>
      <point x="631" y="549"/>
      <point x="616" y="549" type="curve"/>
      <point x="564" y="549" type="line"/>
    </contour>
    <contour>
      <point x="315" y="399" type="line"/>
      <point x="389" y="399" type="line"/>
      <point x="374" y="295" type="line"/>
      <point x="299" y="295" type="line"/>
    </contour>
  </outline>
</glyph>
<glyph name="dollar" format="1">
  <advance width="675"/>
  <unicode hex="0024"/>
  <outline>
    <contour>
      <point x="424" y="773" type="line" name="hr00"/>
      <point x="424" y="788"/>
      <point x="412" y="800"/>
      <point x="397" y="800" type="curve"/>
      <point x="266" y="800" type="line"/>
      <point x="251" y="800"/>
      <point x="239" y="788"/>
      <point x="239" y="773" type="curve"/>
      <point x="239" y="699" type="line"/>
      <point x="119" y="671"/>
      <point x="48" y="587"/>
      <point x="48" y="494" type="curve" smooth="yes"/>
      <point x="48" y="380"/>
      <point x="110" y="312"/>
      <point x="246" y="283" type="curve" smooth="yes"/>
      <point x="393" y="252"/>
      <point x="460" y="243"/>
      <point x="460" y="203" type="curve" smooth="yes"/>
      <point x="460" y="163"/>
      <point x="406" y="150"/>
      <point x="336" y="150" type="curve" smooth="yes"/>
      <point x="256" y="150"/>
      <point x="230" y="194"/>
      <point x="218" y="205" type="curve" smooth="yes"/>
      <point x="208" y="214"/>
      <point x="198" y="219"/>
      <point x="180" y="219" type="curve"/>
      <point x="49" y="219" type="line"/>
      <point x="38" y="219"/>
      <point x="28" y="209"/>
      <point x="28" y="197" type="curve" smooth="yes"/>
      <point x="30" y="115"/>
      <point x="112" y="30"/>
      <point x="239" y="1" type="curve"/>
      <point x="239" y="-73" type="line"/>
      <point x="239" y="-88"/>
      <point x="251" y="-100"/>
      <point x="266" y="-100" type="curve"/>
      <point x="397" y="-100" type="line"/>
      <point x="412" y="-100"/>
      <point x="424" y="-88"/>
      <point x="424" y="-73" type="curve"/>
      <point x="424" y="-2" type="line"/>
      <point x="556" y="20"/>
      <point x="645" y="96"/>
      <point x="645" y="208" type="curve" smooth="yes"/>
      <point x="645" y="333"/>
      <point x="572" y="390"/>
      <point x="426" y="420" type="curve" smooth="yes"/>
      <point x="279" y="450"/>
      <point x="233" y="459"/>
      <point x="233" y="499" type="curve" smooth="yes"/>
      <point x="233" y="539"/>
      <point x="281" y="550"/>
      <point x="331" y="550" type="curve" smooth="yes"/>
      <point x="401" y="550"/>
      <point x="424" y="515"/>
      <point x="433" y="507" type="curve" smooth="yes"/>
      <point x="445" y="496"/>
      <point x="454" y="491"/>
      <point x="473" y="491" type="curve"/>
      <point x="604" y="491" type="line"/>
      <point x="615" y="491"/>
      <point x="625" y="501"/>
      <point x="625" y="513" type="curve" smooth="yes"/>
      <point x="622" y="582"/>
      <point x="543" y="668"/>
      <point x="424" y="698" type="curve"/>
    </contour>
  </outline>
</glyph>
<glyph name="percent" format="1">
  <advance width="847"/>
  <unicode hex="0025"/>
  <outline>
    <contour>
      <point x="348" y="563" type="curve" smooth="yes"/>
      <point x="342" y="642"/>
      <point x="296" y="705"/>
      <point x="191" y="705" type="curve" smooth="yes"/>
      <point x="86" y="705"/>
      <point x="40" y="642"/>
      <point x="34" y="563" type="curve" smooth="yes"/>
      <point x="32" y="535"/>
      <point x="32" y="513"/>
      <point x="34" y="487" type="curve" smooth="yes"/>
      <point x="40" y="408"/>
      <point x="86" y="345"/>
      <point x="191" y="345" type="curve" smooth="yes"/>
      <point x="296" y="345"/>
      <point x="344" y="408"/>
      <point x="348" y="487" type="curve"/>
      <point x="350" y="512"/>
      <point x="350" y="535"/>
    </contour>
    <contour>
      <point x="150" y="492" type="curve" smooth="yes"/>
      <point x="148" y="515"/>
      <point x="148" y="535"/>
      <point x="150" y="558" type="curve" smooth="yes"/>
      <point x="153" y="593"/>
      <point x="162" y="610"/>
      <point x="191" y="610" type="curve" smooth="yes"/>
      <point x="220" y="610"/>
      <point x="229" y="593"/>
      <point x="232" y="558" type="curve" smooth="yes"/>
      <point x="234" y="535"/>
      <point x="234" y="515"/>
      <point x="232" y="492" type="curve" smooth="yes"/>
      <point x="229" y="457"/>
      <point x="220" y="440"/>
      <point x="191" y="440" type="curve" smooth="yes"/>
      <point x="162" y="440"/>
      <point x="153" y="457"/>
    </contour>
    <contour>
      <point x="812" y="213" type="curve" smooth="yes"/>
      <point x="806" y="292"/>
      <point x="760" y="355"/>
      <point x="655" y="355" type="curve" name="hr01" smooth="yes"/>
      <point x="550" y="355"/>
      <point x="504" y="292"/>
      <point x="498" y="213" type="curve" smooth="yes"/>
      <point x="496" y="185"/>
      <point x="496" y="163"/>
      <point x="498" y="137" type="curve" smooth="yes"/>
      <point x="504" y="58"/>
      <point x="550" y="-5"/>
      <point x="655" y="-5" type="curve" smooth="yes"/>
      <point x="760" y="-5"/>
      <point x="808" y="58"/>
      <point x="812" y="137" type="curve"/>
      <point x="814" y="162"/>
      <point x="814" y="185"/>
    </contour>
    <contour>
      <point x="614" y="142" type="curve" smooth="yes"/>
      <point x="612" y="165"/>
      <point x="612" y="185"/>
      <point x="614" y="208" type="curve" smooth="yes"/>
      <point x="617" y="243"/>
      <point x="626" y="260"/>
      <point x="655" y="260" type="curve" smooth="yes"/>
      <point x="684" y="260"/>
      <point x="693" y="243"/>
      <point x="696" y="208" type="curve" smooth="yes"/>
      <point x="698" y="185"/>
      <point x="698" y="165"/>
      <point x="696" y="142" type="curve" smooth="yes"/>
      <point x="693" y="107"/>
      <point x="684" y="90"/>
      <point x="655" y="90" type="curve" smooth="yes"/>
      <point x="626" y="90"/>
      <point x="617" y="107"/>
    </contour>
    <contour>
      <point x="104" y="31" type="line" smooth="yes"/>
      <point x="101" y="27"/>
      <point x="100" y="22"/>
      <point x="100" y="20" type="curve" smooth="yes"/>
      <point x="100" y="8"/>
      <point x="110" y="0"/>
      <point x="124" y="0" type="curve" name="hr02" smooth="yes"/>
      <point x="206" y="0" type="line" smooth="yes"/>
      <point x="225" y="0"/>
      <point x="233" y="7"/>
      <point x="242" y="19" type="curve" smooth="yes"/>
      <point x="736" y="669" type="line" smooth="yes"/>
      <point x="739" y="673"/>
      <point x="740" y="678"/>
      <point x="740" y="680" type="curve" smooth="yes"/>
      <point x="740" y="692"/>
      <point x="730" y="700"/>
      <point x="716" y="700" type="curve" smooth="yes"/>
      <point x="634" y="700" type="line" smooth="yes"/>
      <point x="615" y="700"/>
      <point x="607" y="693"/>
      <point x="598" y="681" type="curve" smooth="yes"/>
    </contour>
  </outline>
</glyph>
<glyph name="ampersand" format="1">
  <advance width="765"/>
  <unicode hex="0026"/>
  <outline>
    <contour>
      <point x="536" y="337" type="curve" smooth="yes"/>
      <point x="532" y="317"/>
      <point x="523" y="292"/>
      <point x="510" y="267" type="curve"/>
      <point x="440" y="338" type="line"/>
      <point x="536" y="405"/>
      <point x="561" y="474"/>
      <point x="561" y="528" type="curve" smooth="yes"/>
      <point x="561" y="630"/>
      <point x="457" y="710"/>
      <point x="331" y="710" type="curve" smooth="yes"/>
      <point x="205" y="710"/>
      <point x="102" y="635"/>
      <point x="102" y="528" type="curve" smooth="yes"/>
      <point x="102" y="469"/>
      <point x="120" y="430"/>
      <point x="168" y="373" type="curve"/>
      <point x="94" y="325"/>
      <point x="49" y="271"/>
      <point x="49" y="191" type="curve" name="hr01" smooth="yes"/>
      <point x="49" y="36"/>
      <point x="188" y="-10"/>
      <point x="308" y="-10" type="curve" smooth="yes"/>
      <point x="385" y="-10"/>
      <point x="450" y="6"/>
      <point x="504" y="32" type="curve"/>
      <point x="526" y="10" type="line"/>
      <point x="531" y="5"/>
      <point x="537" y="0"/>
      <point x="551" y="0" type="curve" name="hr02"/>
      <point x="732" y="0" type="line"/>
      <point x="742" y="0"/>
      <point x="750" y="8"/>
      <point x="750" y="17" type="curve" smooth="yes"/>
      <point x="750" y="22"/>
      <point x="749" y="26"/>
      <point x="744" y="31" type="curve"/>
      <point x="637" y="139" type="line"/>
      <point x="696" y="211"/>
      <point x="720" y="293"/>
      <point x="720" y="340" type="curve" smooth="yes"/>
      <point x="720" y="353"/>
      <point x="708" y="366"/>
      <point x="693" y="366" type="curve"/>
      <point x="574" y="366" type="line"/>
      <point x="557" y="366"/>
      <point x="540" y="357"/>
    </contour>
    <contour>
      <point x="308" y="124" type="curve" name="hr03" smooth="yes"/>
      <point x="256" y="124"/>
      <point x="228" y="146"/>
      <point x="228" y="184" type="curve" smooth="yes"/>
      <point x="228" y="211"/>
      <point x="253" y="234"/>
      <point x="286" y="253" type="curve"/>
      <point x="393" y="145" type="line"/>
      <point x="367" y="132"/>
      <point x="339" y="124"/>
    </contour>
    <contour>
      <point x="281" y="528" type="curve" name="hr04" smooth="yes"/>
      <point x="281" y="560"/>
      <point x="304" y="576"/>
      <point x="331" y="576" type="curve" smooth="yes"/>
      <point x="355" y="576"/>
      <point x="381" y="563"/>
      <point x="381" y="528" type="curve" smooth="yes"/>
      <point x="381" y="504"/>
      <point x="361" y="482"/>
      <point x="321" y="458" type="curve"/>
      <point x="300" y="481"/>
      <point x="281" y="505"/>
    </contour>
  </outline>
</glyph>
<glyph name="quotesingle" format="1">
  <advance width="260"/>
  <unicode hex="0027"/>
  <outline>
    <contour>
      <point x="219" y="674" type="line" name="hr00" smooth="yes"/>
      <point x="221" y="694"/>
      <point x="213" y="710"/>
      <point x="192" y="710" type="curve" smooth="yes"/>
      <point x="68" y="710" type="line" smooth="yes"/>
      <point x="47" y="710"/>
      <point x="39" y="694"/>
      <point x="41" y="674" type="curve" smooth="yes"/>
      <point x="63" y="466" type="line" smooth="yes"/>
      <point x="65" y="448"/>
      <point x="77" y="438"/>
      <point x="91" y="438" type="curve" smooth="yes"/>
      <point x="169" y="438" type="line" smooth="yes"/>
      <point x="183" y="438"/>
      <point x="195" y="448"/>
      <point x="197" y="466" type="curve" smooth="yes"/>
    </contour>
  </outline>
</glyph>
<glyph name="parenleft" format="1">
  <advance width="408"/>
  <unicode hex="0028"/>
  <outline>
    <contour>
      <point x="39" y="309" type="curve" name="hr00" smooth="yes"/>
      <point x="39" y="-11"/>
      <point x="152" y="-159"/>
      <point x="354" y="-159" type="curve" smooth="yes"/>
      <point x="369" y="-159"/>
      <point x="381" y="-147"/>
      <point x="381" y="-132" type="curve" smooth="yes"/>
      <point x="381" y="-31" type="line" smooth="yes"/>
      <point x="381" y="-16"/>
      <point x="369" y="-5"/>
      <point x="354" y="-4" type="curve" smooth="yes"/>
      <point x="246" y="6"/>
      <point x="219" y="135"/>
      <point x="219" y="309" type="curve" smooth="yes"/>
      <point x="219" y="483"/>
      <point x="246" y="611"/>
      <point x="354" y="621" type="curve" smooth="yes"/>
      <point x="369" y="622"/>
      <point x="381" y="633"/>
      <point x="381" y="648" type="curve" smooth="yes"/>
      <point x="381" y="749" type="line" smooth="yes"/>
      <point x="381" y="764"/>
      <point x="369" y="776"/>
      <point x="354" y="776" type="curve" smooth="yes"/>
      <point x="152" y="776"/>
      <point x="39" y="629"/>
    </contour>
  </outline>
</glyph>
<glyph name="parenright" format="1">
  <advance width="408"/>
  <unicode hex="0029"/>
  <outline>
    <contour>
      <point x="369" y="309" type="curve" name="hr00" smooth="yes"/>
      <point x="369" y="629"/>
      <point x="256" y="776"/>
      <point x="54" y="776" type="curve" smooth="yes"/>
      <point x="39" y="776"/>
      <point x="27" y="764"/>
      <point x="27" y="749" type="curve" smooth="yes"/>
      <point x="27" y="648" type="line" smooth="yes"/>
      <point x="27" y="633"/>
      <point x="39" y="622"/>
      <point x="54" y="621" type="curve" smooth="yes"/>
      <point x="162" y="611"/>
      <point x="189" y="483"/>
      <point x="189" y="309" type="curve" smooth="yes"/>
      <point x="189" y="135"/>
      <point x="162" y="6"/>
      <point x="54" y="-4" type="curve" smooth="yes"/>
      <point x="39" y="-5"/>
      <point x="27" y="-16"/>
      <point x="27" y="-31" type="curve" smooth="yes"/>
      <point x="27" y="-132" type="line" smooth="yes"/>
      <point x="27" y="-147"/>
      <point x="39" y="-159"/>
      <point x="54" y="-159" type="curve" smooth="yes"/>
      <point x="256" y="-159"/>
      <point x="369" y="-11"/>
    </contour>
  </outline>
</glyph>
<glyph name="asterisk" format="1">
  <advance width="450"/>
  <unicode hex="002A"/>
  <outline>
    <contour>
      <point x="296" y="700" type="line" name="hr00" smooth="yes"/>
      <point x="297" y="705"/>
      <point x="297" y="707"/>
      <point x="297" y="708" type="curve" smooth="yes"/>
      <point x="297" y="719"/>
      <point x="287" y="730"/>
      <point x="275" y="730" type="curve" smooth="yes"/>
      <point x="175" y="730" type="line" smooth="yes"/>
      <point x="163" y="730"/>
      <point x="153" y="719"/>
      <point x="153" y="708" type="curve" smooth="yes"/>
      <point x="153" y="707"/>
      <point x="153" y="705"/>
      <point x="154" y="700" type="curve" smooth="yes"/>
      <point x="176" y="620" type="line"/>
      <point x="106" y="666" type="line"/>
      <point x="101" y="668"/>
      <point x="99" y="669"/>
      <point x="99" y="669" type="curve"/>
      <point x="88" y="673"/>
      <point x="75" y="666"/>
      <point x="71" y="655" type="curve" smooth="yes"/>
      <point x="40" y="560" type="line" smooth="yes"/>
      <point x="36" y="549"/>
      <point x="44" y="536"/>
      <point x="54" y="532" type="curve"/>
      <point x="55" y="532"/>
      <point x="57" y="531"/>
      <point x="62" y="531" type="curve" smooth="yes"/>
      <point x="146" y="526" type="line"/>
      <point x="80" y="474" type="line"/>
      <point x="77" y="470"/>
      <point x="75" y="468"/>
      <point x="75" y="468" type="curve"/>
      <point x="68" y="459"/>
      <point x="70" y="444"/>
      <point x="80" y="437" type="curve" smooth="yes"/>
      <point x="160" y="378" type="line" smooth="yes"/>
      <point x="170" y="371"/>
      <point x="184" y="375"/>
      <point x="191" y="383" type="curve"/>
      <point x="195" y="390" type="line"/>
      <point x="225" y="468" type="line"/>
      <point x="255" y="390" type="line"/>
      <point x="259" y="383" type="line"/>
      <point x="266" y="375"/>
      <point x="280" y="371"/>
      <point x="290" y="378" type="curve" smooth="yes"/>
      <point x="370" y="437" type="line" smooth="yes"/>
      <point x="380" y="444"/>
      <point x="382" y="459"/>
      <point x="375" y="468" type="curve"/>
      <point x="375" y="468"/>
      <point x="373" y="470"/>
      <point x="370" y="474" type="curve"/>
      <point x="304" y="526" type="line"/>
      <point x="388" y="531" type="line" smooth="yes"/>
      <point x="393" y="531"/>
      <point x="395" y="532"/>
      <point x="396" y="532" type="curve" smooth="yes"/>
      <point x="406" y="536"/>
      <point x="414" y="549"/>
      <point x="410" y="560" type="curve" smooth="yes"/>
      <point x="379" y="655" type="line" smooth="yes"/>
      <point x="375" y="666"/>
      <point x="362" y="673"/>
      <point x="351" y="669" type="curve"/>
      <point x="351" y="669"/>
      <point x="349" y="668"/>
      <point x="344" y="666" type="curve"/>
      <point x="274" y="620" type="line"/>
    </contour>
  </outline>
</glyph>
<glyph name="plus" format="1">
  <advance width="613"/>
  <unicode hex="002B"/>
  <outline>
    <contour>
      <point x="551" y="223" type="line" name="hr00" smooth="yes"/>
      <point x="566" y="223"/>
      <point x="578" y="235"/>
      <point x="578" y="250" type="curve" smooth="yes"/>
      <point x="578" y="351" type="line" smooth="yes"/>
      <point x="578" y="366"/>
      <point x="566" y="378"/>
      <point x="551" y="378" type="curve" smooth="yes"/>
      <point x="397" y="378" type="line"/>
      <point x="397" y="543" type="line" smooth="yes"/>
      <point x="397" y="558"/>
      <point x="385" y="570"/>
      <point x="370" y="570" type="curve" smooth="yes"/>
      <point x="244" y="570" type="line" smooth="yes"/>
      <point x="229" y="570"/>
      <point x="217" y="558"/>
      <point x="217" y="543" type="curve" smooth="yes"/>
      <point x="217" y="378" type="line"/>
      <point x="62" y="378" type="line" smooth="yes"/>
      <point x="47" y="378"/>
      <point x="35" y="366"/>
      <point x="35" y="351" type="curve" smooth="yes"/>
      <point x="35" y="250" type="line" smooth="yes"/>
      <point x="35" y="235"/>
      <point x="47" y="223"/>
      <point x="62" y="223" type="curve" smooth="yes"/>
      <point x="217" y="223" type="line"/>
      <point x="217" y="58" type="line" smooth="yes"/>
      <point x="217" y="43"/>
      <point x="229" y="31"/>
      <point x="244" y="31" type="curve" smooth="yes"/>
      <point x="370" y="31" type="line" smooth="yes"/>
      <point x="385" y="31"/>
      <point x="397" y="43"/>
      <point x="397" y="58" type="curve" smooth="yes"/>
      <point x="397" y="223" type="line"/>
    </contour>
  </outline>
</glyph>
<glyph name="comma" format="1">
  <advance width="287"/>
  <unicode hex="002C"/>
  <outline>
    <contour>
      <point x="29" y="-51" type="line" name="hr00" smooth="yes"/>
      <point x="29" y="-53"/>
      <point x="29" y="-51"/>
      <point x="29" y="-53" type="curve" smooth="yes"/>
      <point x="29" y="-65"/>
      <point x="39" y="-75"/>
      <point x="51" y="-75" type="curve" smooth="yes"/>
      <point x="126" y="-75" type="line" smooth="yes"/>
      <point x="152" y="-75"/>
      <point x="164" y="-56"/>
      <point x="169" y="-43" type="curve" smooth="yes"/>
      <point x="247" y="156" type="line" smooth="yes"/>
      <point x="248" y="159"/>
      <point x="248" y="161"/>
      <point x="248" y="163" type="curve" smooth="yes"/>
      <point x="248" y="175"/>
      <point x="238" y="185"/>
      <point x="226" y="185" type="curve" smooth="yes"/>
      <point x="103" y="185" type="line" smooth="yes"/>
      <point x="76" y="185"/>
      <point x="63" y="164"/>
      <point x="60" y="146" type="curve" smooth="yes"/>
    </contour>
  </outline>
</glyph>
<glyph name="hyphen" format="1">
  <advance width="479"/>
  <unicode hex="002D"/>
  <outline>
    <contour>
      <point x="397" y="223" type="line" name="hr00" smooth="yes"/>
      <point x="412" y="223"/>
      <point x="424" y="235"/>
      <point x="424" y="250" type="curve" smooth="yes"/>
      <point x="424" y="351" type="line" smooth="yes"/>
      <point x="424" y="366"/>
      <point x="412" y="378"/>
      <point x="397" y="378" type="curve" smooth="yes"/>
      <point x="82" y="378" type="line" smooth="yes"/>
      <point x="67" y="378"/>
      <point x="55" y="366"/>
      <point x="55" y="351" type="curve" smooth="yes"/>
      <point x="55" y="250" type="line" smooth="yes"/>
      <point x="55" y="235"/>
      <point x="67" y="223"/>
      <point x="82" y="223" type="curve" smooth="yes"/>
    </contour>
  </outline>
</glyph>
<glyph name="period" format="1">
  <advance width="287"/>
  <unicode hex="002E"/>
  <outline>
    <contour>
      <point x="236" y="158" type="line" name="hr00" smooth="yes"/>
      <point x="236" y="173"/>
      <point x="224" y="185"/>
      <point x="209" y="185" type="curve" smooth="yes"/>
      <point x="78" y="185" type="line" smooth="yes"/>
      <point x="63" y="185"/>
      <point x="51" y="173"/>
      <point x="51" y="158" type="curve" smooth="yes"/>
      <point x="51" y="27" type="line" smooth="yes"/>
      <point x="51" y="12"/>
      <point x="63" y="0"/>
      <point x="78" y="0" type="curve" smooth="yes"/>
      <point x="209" y="0" type="line" smooth="yes"/>
      <point x="224" y="0"/>
      <point x="236" y="12"/>
      <point x="236" y="27" type="curve" smooth="yes"/>
    </contour>
  </outline>
</glyph>
<glyph name="slash" format="1">
  <advance width="574"/>
  <unicode hex="002F"/>
  <outline>
    <contour>
      <point x="26" y="-53" type="line" name="hr00" smooth="yes"/>
      <point x="24" y="-58"/>
      <point x="24" y="-60"/>
      <point x="24" y="-62" type="curve" smooth="yes"/>
      <point x="24" y="-74"/>
      <point x="34" y="-84"/>
      <point x="46" y="-84" type="curve" smooth="yes"/>
      <point x="168" y="-84" type="line" smooth="yes"/>
      <point x="195" y="-84"/>
      <point x="207" y="-67"/>
      <point x="212" y="-54" type="curve" smooth="yes"/>
      <point x="549" y="755" type="line" smooth="yes"/>
      <point x="551" y="760"/>
      <point x="551" y="762"/>
      <point x="551" y="764" type="curve" smooth="yes"/>
      <point x="551" y="776"/>
      <point x="541" y="786"/>
      <point x="529" y="786" type="curve" smooth="yes"/>
      <point x="405" y="786" type="line" smooth="yes"/>
      <point x="380" y="786"/>
      <point x="367" y="770"/>
      <point x="361" y="756" type="curve" smooth="yes"/>
    </contour>
  </outline>
</glyph>
<glyph name="zero" format="1">
  <advance width="688"/>
  <unicode hex="0030"/>
  <outline>
    <contour>
      <point x="344" y="710" type="curve" name="hr00" smooth="yes"/>
      <point x="143" y="710"/>
      <point x="60" y="584"/>
      <point x="52" y="439" type="curve" smooth="yes"/>
      <point x="49" y="382"/>
      <point x="49" y="315"/>
      <point x="52" y="261" type="curve" smooth="yes"/>
      <point x="60" y="116"/>
      <point x="143" y="-10"/>
      <point x="344" y="-10" type="curve" smooth="yes"/>
      <point x="545" y="-10"/>
      <point x="628" y="116"/>
      <point x="636" y="261" type="curve" smooth="yes"/>
      <point x="639" y="315"/>
      <point x="639" y="382"/>
      <point x="636" y="439" type="curve" smooth="yes"/>
      <point x="628" y="584"/>
      <point x="545" y="710"/>
    </contour>
    <contour>
      <point x="451" y="266" type="curve" smooth="yes"/>
      <point x="448" y="200"/>
      <point x="424" y="150"/>
      <point x="344" y="150" type="curve" smooth="yes"/>
      <point x="264" y="150"/>
      <point x="240" y="200"/>
      <point x="237" y="266" type="curve" smooth="yes"/>
      <point x="234" y="323"/>
      <point x="234" y="379"/>
      <point x="237" y="434" type="curve" smooth="yes"/>
      <point x="241" y="500"/>
      <point x="264" y="550"/>
      <point x="344" y="550" type="curve" smooth="yes"/>
      <point x="424" y="550"/>
      <point x="447" y="500"/>
      <point x="451" y="434" type="curve" smooth="yes"/>
      <point x="454" y="379"/>
      <point x="454" y="323"/>
    </contour>
  </outline>
</glyph>
<glyph name="one" format="1">
  <advance width="503"/>
  <unicode hex="0031"/>
  <outline>
    <contour>
      <point x="95" y="379" type="line" name="hr00" smooth="yes"/>
      <point x="104" y="367"/>
      <point x="121" y="365"/>
      <point x="133" y="374" type="curve" smooth="yes"/>
      <point x="252" y="464" type="line"/>
      <point x="252" y="27" type="line" smooth="yes"/>
      <point x="252" y="12"/>
      <point x="264" y="0"/>
      <point x="279" y="0" type="curve" smooth="yes"/>
      <point x="410" y="0" type="line" smooth="yes"/>
      <point x="425" y="0"/>
      <point x="437" y="12"/>
      <point x="437" y="27" type="curve" smooth="yes"/>
      <point x="437" y="673" type="line" smooth="yes"/>
      <point x="437" y="688"/>
      <point x="425" y="700"/>
      <point x="410" y="700" type="curve" smooth="yes"/>
      <point x="288" y="700" type="line" smooth="yes"/>
      <point x="268" y="700"/>
      <point x="253" y="686"/>
      <point x="242" y="678" type="curve" smooth="yes"/>
      <point x="27" y="513" type="line" smooth="yes"/>
      <point x="15" y="504"/>
      <point x="12" y="487"/>
      <point x="21" y="475" type="curve" smooth="yes"/>
    </contour>
  </outline>
</glyph>
<glyph name="two" format="1">
  <advance width="666"/>
  <unicode hex="0032"/>
  <outline>
    <contour>
      <point x="606" y="475" type="curve" name="hr00" smooth="yes"/>
      <point x="606" y="597"/>
      <point x="513" y="710"/>
      <point x="336" y="710" type="curve" smooth="yes"/>
      <point x="149" y="710"/>
      <point x="62" y="586"/>
      <point x="59" y="475" type="curve" smooth="yes"/>
      <point x="59" y="463"/>
      <point x="69" y="453"/>
      <point x="81" y="453" type="curve" smooth="yes"/>
      <point x="204" y="453" type="line" smooth="yes"/>
      <point x="222" y="453"/>
      <point x="237" y="457"/>
      <point x="244" y="476" type="curve" smooth="yes"/>
      <point x="250" y="492"/>
      <point x="262" y="550"/>
      <point x="337" y="550" type="curve" smooth="yes"/>
      <point x="412" y="550"/>
      <point x="421" y="494"/>
      <point x="421" y="475" type="curve" smooth="yes"/>
      <point x="421" y="448"/>
      <point x="414" y="421"/>
      <point x="368" y="386" type="curve"/>
      <point x="69" y="172" type="line" smooth="yes"/>
      <point x="48" y="157"/>
      <point x="40" y="134"/>
      <point x="40" y="113" type="curve" smooth="yes"/>
      <point x="40" y="27" type="line" smooth="yes"/>
      <point x="40" y="12"/>
      <point x="52" y="0"/>
      <point x="67" y="0" type="curve" smooth="yes"/>
      <point x="595" y="0" type="line" smooth="yes"/>
      <point x="610" y="0"/>
      <point x="622" y="12"/>
      <point x="622" y="27" type="curve" smooth="yes"/>
      <point x="622" y="133" type="line" smooth="yes"/>
      <point x="622" y="148"/>
      <point x="610" y="160"/>
      <point x="595" y="160" type="curve" smooth="yes"/>
      <point x="344" y="160" type="line"/>
      <point x="484" y="266" type="line"/>
      <point x="576" y="334"/>
      <point x="606" y="397"/>
    </contour>
  </outline>
</glyph>
<glyph name="three" format="1">
  <advance width="676"/>
  <unicode hex="0033"/>
  <outline>
    <contour>
      <point x="92" y="700" type="line"/>
      <point x="77" y="700"/>
      <point x="65" y="688"/>
      <point x="65" y="673" type="curve"/>
      <point x="65" y="567" type="line"/>
      <point x="65" y="552"/>
      <point x="77" y="540"/>
      <point x="92" y="540" type="curve"/>
      <point x="353" y="540" type="line"/>
      <point x="247" y="433" type="line" smooth="yes"/>
      <point x="238" y="424"/>
      <point x="226" y="412"/>
      <point x="226" y="397" type="curve"/>
      <point x="226" y="311" type="line"/>
      <point x="226" y="296"/>
      <point x="238" y="284"/>
      <point x="253" y="284" type="curve"/>
      <point x="336" y="284" type="line"/>
      <point x="400" y="284"/>
      <point x="447" y="263"/>
      <point x="447" y="217" type="curve" smooth="yes"/>
      <point x="447" y="171"/>
      <point x="400" y="150"/>
      <point x="336" y="150" type="curve" smooth="yes"/>
      <point x="229" y="150"/>
      <point x="238" y="210"/>
      <point x="183" y="210" type="curve" name="hr01"/>
      <point x="57" y="210" type="line"/>
      <point x="45" y="210"/>
      <point x="35" y="200"/>
      <point x="35" y="188" type="curve" smooth="yes"/>
      <point x="38" y="89"/>
      <point x="145" y="-10"/>
      <point x="336" y="-10" type="curve" smooth="yes"/>
      <point x="522" y="-10"/>
      <point x="632" y="67"/>
      <point x="632" y="217" type="curve" smooth="yes"/>
      <point x="632" y="321"/>
      <point x="560" y="384"/>
      <point x="456" y="410" type="curve"/>
      <point x="577" y="532" type="line" smooth="yes"/>
      <point x="585" y="540"/>
      <point x="597" y="552"/>
      <point x="597" y="567" type="curve"/>
      <point x="597" y="673" type="line"/>
      <point x="597" y="688"/>
      <point x="585" y="700"/>
      <point x="570" y="700" type="curve"/>
    </contour>
  </outline>
</glyph>
<glyph name="five" format="1">
  <advance width="654"/>
  <unicode hex="0035"/>
  <outline>
    <contour>
      <point x="220" y="208" type="curve" smooth="yes"/>
      <point x="216" y="213"/>
      <point x="205" y="224"/>
      <point x="184" y="224" type="curve" smooth="yes"/>
      <point x="57" y="224" type="line" smooth="yes"/>
      <point x="45" y="224"/>
      <point x="35" y="214"/>
      <point x="35" y="202" type="curve" smooth="yes"/>
      <point x="38" y="92"/>
      <point x="143" y="-10"/>
      <point x="325" y="-10" type="curve" smooth="yes"/>
      <point x="488" y="-10"/>
      <point x="616" y="77"/>
      <point x="616" y="237" type="curve" smooth="yes"/>
      <point x="616" y="388"/>
      <point x="500" y="474"/>
      <point x="345" y="474" type="curve" smooth="yes"/>
      <point x="308" y="474"/>
      <point x="276" y="464"/>
      <point x="252" y="451" type="curve"/>
      <point x="259" y="540" type="line"/>
      <point x="550" y="540" type="line" smooth="yes"/>
      <point x="565" y="540"/>
      <point x="577" y="552"/>
      <point x="577" y="567" type="curve" smooth="yes"/>
      <point x="577" y="673" type="line" smooth="yes"/>
      <point x="577" y="688"/>
      <point x="565" y="700"/>
      <point x="550" y="700" type="curve" smooth="yes"/>
      <point x="122" y="700" type="line" smooth="yes"/>
      <point x="107" y="700"/>
      <point x="96" y="688"/>
      <point x="95" y="673" type="curve" smooth="yes"/>
      <point x="65" y="316" type="line" smooth="yes"/>
      <point x="64" y="302"/>
      <point x="76" y="289"/>
      <point x="92" y="289" type="curve" smooth="yes"/>
      <point x="248" y="289" type="line" smooth="yes"/>
      <point x="265" y="289"/>
      <point x="294" y="314"/>
      <point x="332" y="314" type="curve" name="hr01" smooth="yes"/>
      <point x="393" y="314"/>
      <point x="431" y="282"/>
      <point x="431" y="237" type="curve" smooth="yes"/>
      <point x="431" y="179"/>
      <point x="381" y="150"/>
      <point x="325" y="150" type="curve" smooth="yes"/>
      <point x="263" y="150"/>
      <point x="238" y="185"/>
    </contour>
  </outline>
</glyph>
<glyph name="six" format="1">
  <advance width="661"/>
  <unicode hex="0036"/>
  <outline>
    <contour>
      <point x="632" y="241" type="curve" name="hr00" smooth="yes"/>
      <point x="632" y="383"/>
      <point x="517" y="474"/>
      <point x="376" y="489" type="curve"/>
      <point x="506" y="665" type="line" smooth="yes"/>
      <point x="508" y="668"/>
      <point x="511" y="672"/>
      <point x="511" y="678" type="curve" smooth="yes"/>
      <point x="511" y="690"/>
      <point x="503" y="700"/>
      <point x="491" y="700" type="curve" smooth="yes"/>
      <point x="332" y="700" type="line" smooth="yes"/>
      <point x="314" y="700"/>
      <point x="307" y="687"/>
      <point x="301" y="680" type="curve" smooth="yes"/>
      <point x="110" y="422" type="line"/>
      <point x="78" y="376"/>
      <point x="36" y="323"/>
      <point x="35" y="241" type="curve"/>
      <point x="35" y="85"/>
      <point x="174" y="-10"/>
      <point x="334" y="-10" type="curve" smooth="yes"/>
      <point x="494" y="-10"/>
      <point x="632" y="85"/>
    </contour>
    <contour>
      <point x="220" y="241" type="curve" smooth="yes"/>
      <point x="220" y="299"/>
      <point x="278" y="332"/>
      <point x="334" y="332" type="curve" smooth="yes"/>
      <point x="390" y="332"/>
      <point x="447" y="299"/>
      <point x="447" y="241" type="curve" smooth="yes"/>
      <point x="447" y="183"/>
      <point x="390" y="150"/>
      <point x="334" y="150" type="curve" smooth="yes"/>
      <point x="278" y="150"/>
      <point x="220" y="183"/>
    </contour>
  </outline>
</glyph>
<glyph name="seven" format="1">
  <advance width="589"/>
  <unicode hex="0037"/>
  <outline>
    <contour>
      <point x="135" y="24" type="curve" name="hr00" smooth="yes"/>
      <point x="135" y="11"/>
      <point x="146" y="0"/>
      <point x="159" y="0" type="curve" smooth="yes"/>
      <point x="299" y="0" type="line" smooth="yes"/>
      <point x="315" y="0"/>
      <point x="323" y="12"/>
      <point x="328" y="24" type="curve" smooth="yes"/>
      <point x="545" y="529" type="line" smooth="yes"/>
      <point x="555" y="551"/>
      <point x="561" y="568"/>
      <point x="561" y="580" type="curve" smooth="yes"/>
      <point x="561" y="673" type="line" smooth="yes"/>
      <point x="561" y="688"/>
      <point x="549" y="700"/>
      <point x="534" y="700" type="curve" smooth="yes"/>
      <point x="56" y="700" type="line" smooth="yes"/>
      <point x="41" y="700"/>
      <point x="29" y="688"/>
      <point x="29" y="673" type="curve" smooth="yes"/>
      <point x="29" y="567" type="line" smooth="yes"/>
      <point x="29" y="552"/>
      <point x="41" y="540"/>
      <point x="56" y="540" type="curve" smooth="yes"/>
      <point x="354" y="540" type="line"/>
      <point x="138" y="36" type="line" smooth="yes"/>
      <point x="136" y="31"/>
      <point x="135" y="26"/>
    </contour>
  </outline>
</glyph>
<glyph name="eight" format="1">
  <advance width="686"/>
  <unicode hex="0038"/>
  <outline>
    <contour>
      <point x="62" y="490" type="curve" smooth="yes"/>
      <point x="62" y="437"/>
      <point x="82" y="392"/>
      <point x="115" y="356" type="curve"/>
      <point x="72" y="319"/>
      <point x="47" y="269"/>
      <point x="47" y="210" type="curve" name="hr01" smooth="yes"/>
      <point x="47" y="79"/>
      <point x="177" y="-10"/>
      <point x="343" y="-10" type="curve" smooth="yes"/>
      <point x="509" y="-10"/>
      <point x="639" y="79"/>
      <point x="639" y="210" type="curve" smooth="yes"/>
      <point x="639" y="269"/>
      <point x="613" y="319"/>
      <point x="570" y="356" type="curve"/>
      <point x="604" y="392"/>
      <point x="624" y="437"/>
      <point x="624" y="490" type="curve" name="hr02" smooth="yes"/>
      <point x="624" y="621"/>
      <point x="495" y="710"/>
      <point x="343" y="710" type="curve" smooth="yes"/>
      <point x="191" y="710"/>
      <point x="62" y="621"/>
    </contour>
    <contour>
      <point x="232" y="208" type="curve" name="hr03" smooth="yes"/>
      <point x="232" y="246"/>
      <point x="269" y="276"/>
      <point x="343" y="276" type="curve" smooth="yes"/>
      <point x="417" y="276"/>
      <point x="454" y="246"/>
      <point x="454" y="208" type="curve" smooth="yes"/>
      <point x="454" y="170"/>
      <point x="417" y="140"/>
      <point x="343" y="140" type="curve" smooth="yes"/>
      <point x="269" y="140"/>
      <point x="232" y="170"/>
    </contour>
    <contour>
      <point x="247" y="492" type="curve" name="hr04" smooth="yes"/>
      <point x="247" y="530"/>
      <point x="283" y="560"/>
      <point x="343" y="560" type="curve" smooth="yes"/>
      <point x="403" y="560"/>
      <point x="439" y="530"/>
      <point x="439" y="492" type="curve" smooth="yes"/>
      <point x="439" y="454"/>
      <point x="403" y="424"/>
      <point x="343" y="424" type="curve" smooth="yes"/>
      <point x="283" y="424"/>
      <point x="247" y="454"/>
    </contour>
  </outline>
</glyph>
<glyph name="nine" format="1">
  <advance width="647"/>
  <unicode hex="0039"/>
  <outline>
    <contour>
      <point x="29" y="461" type="curve" name="hr00" smooth="yes"/>
      <point x="29" y="321"/>
      <point x="144" y="233"/>
      <point x="275" y="215" type="curve"/>
      <point x="147" y="35" type="line" smooth="yes"/>
      <point x="145" y="32"/>
      <point x="142" y="28"/>
      <point x="142" y="22" type="curve" smooth="yes"/>
      <point x="142" y="10"/>
      <point x="150" y="0"/>
      <point x="162" y="0" type="curve" smooth="yes"/>
      <point x="321" y="0" type="line" smooth="yes"/>
      <point x="339" y="0"/>
      <point x="346" y="13"/>
      <point x="352" y="20" type="curve"/>
      <point x="542" y="283" type="line" smooth="yes"/>
      <point x="576" y="332"/>
      <point x="615" y="383"/>
      <point x="615" y="461" type="curve" smooth="yes"/>
      <point x="615" y="617"/>
      <point x="472" y="710"/>
      <point x="322" y="710" type="curve" smooth="yes"/>
      <point x="172" y="710"/>
      <point x="29" y="617"/>
    </contour>
    <contour>
      <point x="430" y="461" type="curve" smooth="yes"/>
      <point x="430" y="408"/>
      <point x="378" y="372"/>
      <point x="322" y="372" type="curve" smooth="yes"/>
      <point x="266" y="372"/>
      <point x="214" y="408"/>
      <point x="214" y="461" type="curve" smooth="yes"/>
      <point x="214" y="514"/>
      <point x="266" y="550"/>
      <point x="322" y="550" type="curve" smooth="yes"/>
      <point x="378" y="550"/>
      <point x="430" y="514"/>
    </contour>
  </outline>
</glyph>
<glyph name="colon" format="1">
  <advance width="295"/>
  <unicode hex="003A"/>
  <outline>
    <contour>
      <point x="240" y="158" type="line" name="hr00" smooth="yes"/>
      <point x="240" y="173"/>
      <point x="228" y="185"/>
      <point x="213" y="185" type="curve" smooth="yes"/>
      <point x="82" y="185" type="line" smooth="yes"/>
      <point x="67" y="185"/>
      <point x="55" y="173"/>
      <point x="55" y="158" type="curve" smooth="yes"/>
      <point x="55" y="27" type="line" smooth="yes"/>
      <point x="55" y="12"/>
      <point x="67" y="0"/>
      <point x="82" y="0" type="curve" smooth="yes"/>
      <point x="213" y="0" type="line" smooth="yes"/>
      <point x="228" y="0"/>
      <point x="240" y="12"/>
      <point x="240" y="27" type="curve" smooth="yes"/>
    </contour>
    <contour>
      <point x="240" y="508" type="line" smooth="yes"/>
      <point x="240" y="523"/>
      <point x="228" y="535"/>
      <point x="213" y="535" type="curve" smooth="yes"/>
      <point x="82" y="535" type="line" smooth="yes"/>
      <point x="67" y="535"/>
      <point x="55" y="523"/>
      <point x="55" y="508" type="curve" smooth="yes"/>
      <point x="55" y="377" type="line" smooth="yes"/>
      <point x="55" y="362"/>
      <point x="67" y="350"/>
      <point x="82" y="350" type="curve" smooth="yes"/>
      <point x="213" y="350" type="line" smooth="yes"/>
      <point x="228" y="350"/>
      <point x="240" y="362"/>
      <point x="240" y="377" type="curve" smooth="yes"/>
    </contour>
  </outline>
</glyph>
<glyph name="semicolon" format="1">
  <advance width="307"/>
  <unicode hex="003B"/>
  <outline>
    <contour>
      <point x="35" y="-50" type="line" name="hr00" smooth="yes"/>
      <point x="35" y="-52"/>
      <point x="35" y="-50"/>
      <point x="35" y="-52" type="curve" smooth="yes"/>
      <point x="35" y="-64"/>
      <point x="45" y="-74"/>
      <point x="57" y="-74" type="curve" smooth="yes"/>
      <point x="132" y="-74" type="line" smooth="yes"/>
      <point x="158" y="-74"/>
      <point x="170" y="-55"/>
      <point x="175" y="-42" type="curve" smooth="yes"/>
      <point x="253" y="156" type="line" smooth="yes"/>
      <point x="254" y="159"/>
      <point x="254" y="161"/>
      <point x="254" y="163" type="curve" smooth="yes"/>
      <point x="254" y="175"/>
      <point x="244" y="185"/>
      <point x="232" y="185" type="curve" smooth="yes"/>
      <point x="109" y="185" type="line" smooth="yes"/>
      <point x="82" y="185"/>
      <point x="69" y="164"/>
      <point x="66" y="146" type="curve" smooth="yes"/>
    </contour>
    <contour>
      <point x="254" y="508" type="line" smooth="yes"/>
      <point x="254" y="523"/>
      <point x="242" y="535"/>
      <point x="227" y="535" type="curve" smooth="yes"/>
      <point x="96" y="535" type="line" smooth="yes"/>
      <point x="81" y="535"/>
      <point x="69" y="523"/>
      <point x="69" y="508" type="curve" smooth="yes"/>
      <point x="69" y="377" type="line" smooth="yes"/>
      <point x="69" y="362"/>
      <point x="81" y="350"/>
      <point x="96" y="350" type="curve" smooth="yes"/>
      <point x="227" y="350" type="line" smooth="yes"/>
      <point x="242" y="350"/>
      <point x="254" y="362"/>
      <point x="254" y="377" type="curve" smooth="yes"/>
    </contour>
  </outline>
</glyph>
<glyph name="less" format="1">
  <advance width="523"/>
  <unicode hex="003C"/>
  <outline>
    <contour>
      <point x="27" y="329" type="line" name="hr00" smooth="yes"/>
      <point x="27" y="308"/>
      <point x="38" y="299"/>
      <point x="56" y="287" type="curve" smooth="yes"/>
      <point x="431" y="33" type="line" smooth="yes"/>
      <point x="436" y="30"/>
      <point x="440" y="30"/>
      <point x="442" y="30" type="curve" smooth="yes"/>
      <point x="454" y="30"/>
      <point x="463" y="39"/>
      <point x="463" y="51" type="curve" smooth="yes"/>
      <point x="463" y="188" type="line" smooth="yes"/>
      <point x="463" y="211"/>
      <point x="444" y="223"/>
      <point x="431" y="232" type="curve" smooth="yes"/>
      <point x="255" y="350" type="line"/>
      <point x="431" y="468" type="line" smooth="yes"/>
      <point x="444" y="477"/>
      <point x="463" y="489"/>
      <point x="463" y="512" type="curve" smooth="yes"/>
      <point x="463" y="649" type="line" smooth="yes"/>
      <point x="463" y="661"/>
      <point x="454" y="670"/>
      <point x="442" y="670" type="curve" smooth="yes"/>
      <point x="440" y="670"/>
      <point x="436" y="670"/>
      <point x="431" y="667" type="curve" smooth="yes"/>
      <point x="56" y="413" type="line" smooth="yes"/>
      <point x="38" y="401"/>
      <point x="27" y="392"/>
      <point x="27" y="371" type="curve" smooth="yes"/>
    </contour>
  </outline>
</glyph>
<glyph name="equal" format="1">
  <advance width="571"/>
  <unicode hex="003D"/>
  <outline>
    <contour>
      <point x="483" y="346" type="line" name="hr00" smooth="yes"/>
      <point x="498" y="346"/>
      <point x="510" y="358"/>
      <point x="510" y="373" type="curve" smooth="yes"/>
      <point x="510" y="474" type="line" smooth="yes"/>
      <point x="510" y="489"/>
      <point x="498" y="501"/>
      <point x="483" y="501" type="curve" smooth="yes"/>
      <point x="88" y="501" type="line" smooth="yes"/>
      <point x="73" y="501"/>
      <point x="61" y="489"/>
      <point x="61" y="474" type="curve" smooth="yes"/>
      <point x="61" y="373" type="line" smooth="yes"/>
      <point x="61" y="358"/>
      <point x="73" y="346"/>
      <point x="88" y="346" type="curve" smooth="yes"/>
    </contour>
    <contour>
      <point x="483" y="100" type="line" smooth="yes"/>
      <point x="498" y="100"/>
      <point x="510" y="112"/>
      <point x="510" y="127" type="curve" smooth="yes"/>
      <point x="510" y="228" type="line" smooth="yes"/>
      <point x="510" y="243"/>
      <point x="498" y="255"/>
      <point x="483" y="255" type="curve" smooth="yes"/>
      <point x="88" y="255" type="line" smooth="yes"/>
      <point x="73" y="255"/>
      <point x="61" y="243"/>
      <point x="61" y="228" type="curve" smooth="yes"/>
      <point x="61" y="127" type="line" smooth="yes"/>
      <point x="61" y="112"/>
      <point x="73" y="100"/>
      <point x="88" y="100" type="curve" smooth="yes"/>
    </contour>
  </outline>
</glyph>
<glyph name="question" format="1">
  <advance width="604"/>
  <unicode hex="003F"/>
  <outline>
    <contour>
      <point x="392" y="128" type="line" smooth="yes"/>
      <point x="392" y="143"/>
      <point x="380" y="155"/>
      <point x="365" y="155" type="curve" smooth="yes"/>
      <point x="239" y="155" type="line" smooth="yes"/>
      <point x="224" y="155"/>
      <point x="212" y="143"/>
      <point x="212" y="128" type="curve" smooth="yes"/>
      <point x="212" y="27" type="line" smooth="yes"/>
      <point x="212" y="12"/>
      <point x="224" y="0"/>
      <point x="239" y="0" type="curve" smooth="yes"/>
      <point x="365" y="0" type="line" smooth="yes"/>
      <point x="380" y="0"/>
      <point x="392" y="12"/>
      <point x="392" y="27" type="curve" smooth="yes"/>
    </contour>
    <contour>
      <point x="305" y="710" type="curve" smooth="yes"/>
      <point x="130" y="710"/>
      <point x="29" y="584"/>
      <point x="27" y="491" type="curve" smooth="yes"/>
      <point x="27" y="478"/>
      <point x="37" y="469"/>
      <point x="49" y="469" type="curve" smooth="yes"/>
      <point x="171" y="469" type="line" smooth="yes"/>
      <point x="222" y="469"/>
      <point x="185" y="555"/>
      <point x="305" y="555" type="curve" name="hr01" smooth="yes"/>
      <point x="366" y="555"/>
      <point x="395" y="531"/>
      <point x="395" y="493" type="curve" smooth="yes"/>
      <point x="395" y="414"/>
      <point x="214" y="375"/>
      <point x="214" y="242" type="curve" smooth="yes"/>
      <point x="214" y="227"/>
      <point x="226" y="215"/>
      <point x="241" y="215" type="curve" smooth="yes"/>
      <point x="363" y="215" type="line" smooth="yes"/>
      <point x="378" y="215"/>
      <point x="386" y="227"/>
      <point x="390" y="242" type="curve" smooth="yes"/>
      <point x="415" y="332"/>
      <point x="575" y="360"/>
      <point x="575" y="504" type="curve" smooth="yes"/>
      <point x="575" y="623"/>
      <point x="455" y="710"/>
    </contour>
  </outline>
</glyph>
<glyph name="at" format="1">
  <advance width="876"/>
  <unicode hex="0040"/>
  <outline>
    <contour>
      <point x="824" y="234" type="curve" smooth="yes"/>
      <point x="826" y="270"/>
      <point x="827" y="322"/>
      <point x="824" y="356" type="curve" smooth="yes"/>
      <point x="809" y="532"/>
      <point x="721" y="679"/>
      <point x="428" y="679" type="curve" smooth="yes"/>
      <point x="176" y="679"/>
      <point x="63" y="522"/>
      <point x="50" y="356" type="curve" smooth="yes"/>
      <point x="47" y="322"/>
      <point x="47" y="222"/>
      <point x="50" y="185" type="curve" smooth="yes"/>
      <point x="66" y="16"/>
      <point x="187" y="-136"/>
      <point x="428" y="-136" type="curve" smooth="yes"/>
      <point x="612" y="-136"/>
      <point x="716" y="-63"/>
      <point x="768" y="-5" type="curve" smooth="yes"/>
      <point x="772" y="-1"/>
      <point x="775" y="4"/>
      <point x="775" y="10" type="curve" smooth="yes"/>
      <point x="776" y="27"/>
      <point x="763" y="38"/>
      <point x="748" y="38" type="curve" smooth="yes"/>
      <point x="660" y="38" type="line" smooth="yes"/>
      <point x="646" y="38"/>
      <point x="639" y="33"/>
      <point x="625" y="23" type="curve" smooth="yes"/>
      <point x="591" y="-1"/>
      <point x="557" y="-25"/>
      <point x="428" y="-25" type="curve" name="hr01" smooth="yes"/>
      <point x="264" y="-25"/>
      <point x="181" y="63"/>
      <point x="166" y="190" type="curve" smooth="yes"/>
      <point x="162" y="227"/>
      <point x="162" y="317"/>
      <point x="166" y="351" type="curve" smooth="yes"/>
      <point x="181" y="480"/>
      <point x="254" y="568"/>
      <point x="428" y="568" type="curve" smooth="yes"/>
      <point x="633" y="568"/>
      <point x="692" y="499"/>
      <point x="709" y="351" type="curve" smooth="yes"/>
      <point x="713" y="317"/>
      <point x="712" y="285"/>
      <point x="710" y="249" type="curve" smooth="yes"/>
      <point x="708" y="207"/>
      <point x="692" y="190"/>
      <point x="662" y="190" type="curve" smooth="yes"/>
      <point x="633" y="190"/>
      <point x="613" y="208"/>
      <point x="613" y="240" type="curve" smooth="yes"/>
      <point x="613" y="443" type="line" smooth="yes"/>
      <point x="613" y="458"/>
      <point x="601" y="470"/>
      <point x="586" y="470" type="curve" smooth="yes"/>
      <point x="524" y="470" type="line" smooth="yes"/>
      <point x="509" y="470"/>
      <point x="497" y="458"/>
      <point x="497" y="443" type="curve" smooth="yes"/>
      <point x="497" y="434" type="line"/>
      <point x="480" y="459"/>
      <point x="458" y="478"/>
      <point x="403" y="478" type="curve" smooth="yes"/>
      <point x="304" y="478"/>
      <point x="245" y="395"/>
      <point x="245" y="273" type="curve" smooth="yes"/>
      <point x="245" y="151"/>
      <point x="309" y="69"/>
      <point x="408" y="69" type="curve" smooth="yes"/>
      <point x="492" y="69"/>
      <point x="514" y="98"/>
      <point x="535" y="125" type="curve"/>
      <point x="554" y="103"/>
      <point x="595" y="79"/>
      <point x="662" y="79" type="curve" smooth="yes"/>
      <point x="738" y="79"/>
      <point x="818" y="133"/>
    </contour>
    <contour>
      <point x="360" y="273" type="curve" smooth="yes"/>
      <point x="360" y="338"/>
      <point x="392" y="367"/>
      <point x="428" y="367" type="curve" smooth="yes"/>
      <point x="467" y="367"/>
      <point x="497" y="338"/>
      <point x="497" y="273" type="curve" smooth="yes"/>
      <point x="497" y="207"/>
      <point x="467" y="180"/>
      <point x="428" y="180" type="curve" smooth="yes"/>
      <point x="392" y="180"/>
      <point x="360" y="208"/>
    </contour>
  </outline>
</glyph>
<glyph name="A" format="1">
  <advance width="718"/>
  <unicode hex="0041"/>
  <outline>
    <contour>
      <point x="440" y="700" type="curve" name="hr00"/>
      <point x="278" y="700" type="line"/>
      <point x="251" y="700"/>
      <point x="238" y="682"/>
      <point x="233" y="667" type="curve"/>
      <point x="15" y="37" type="line"/>
      <point x="13" y="32"/>
      <point x="11" y="24"/>
      <point x="11" y="22" type="curve" smooth="yes"/>
      <point x="11" y="10"/>
      <point x="21" y="0"/>
      <point x="33" y="0" type="curve"/>
      <point x="159" y="0" type="line"/>
      <point x="185" y="0"/>
      <point x="195" y="15"/>
      <point x="198" y="25" type="curve"/>
      <point x="226" y="108" type="line"/>
      <point x="492" y="108" type="line"/>
      <point x="520" y="25" type="line"/>
      <point x="523" y="15"/>
      <point x="533" y="0"/>
      <point x="559" y="0" type="curve"/>
      <point x="685" y="0" type="line"/>
      <point x="697" y="0"/>
      <point x="707" y="10"/>
      <point x="707" y="22" type="curve" smooth="yes"/>
      <point x="707" y="24"/>
      <point x="705" y="32"/>
      <point x="703" y="37" type="curve"/>
      <point x="485" y="667" type="line"/>
      <point x="480" y="682"/>
      <point x="467" y="700"/>
    </contour>
    <contour>
      <point x="359" y="503" type="line"/>
      <point x="440" y="263" type="line"/>
      <point x="278" y="263" type="line"/>
    </contour>
  </outline>
</glyph>
<glyph name="B" format="1">
  <advance width="712"/>
  <unicode hex="0042"/>
  <outline>
    <contour>
      <point x="440" y="0" type="line" smooth="yes"/>
      <point x="611" y="0"/>
      <point x="671" y="107"/>
      <point x="671" y="217" type="curve" smooth="yes"/>
      <point x="671" y="283"/>
      <point x="653" y="329"/>
      <point x="601" y="365" type="curve"/>
      <point x="618" y="378"/>
      <point x="657" y="415"/>
      <point x="657" y="492" type="curve" name="hr01" smooth="yes"/>
      <point x="657" y="592"/>
      <point x="599" y="700"/>
      <point x="419" y="700" type="curve" smooth="yes"/>
      <point x="97" y="700" type="line" smooth="yes"/>
      <point x="82" y="700"/>
      <point x="70" y="688"/>
      <point x="70" y="673" type="curve" smooth="yes"/>
      <point x="70" y="27" type="line" smooth="yes"/>
      <point x="70" y="12"/>
      <point x="82" y="0"/>
      <point x="97" y="0" type="curve" smooth="yes"/>
    </contour>
    <contour>
      <point x="471" y="488" type="curve" smooth="yes"/>
      <point x="471" y="453"/>
      <point x="450" y="431"/>
      <point x="410" y="431" type="curve" smooth="yes"/>
      <point x="255" y="431" type="line"/>
      <point x="255" y="545" type="line"/>
      <point x="410" y="545" type="line" smooth="yes"/>
      <point x="450" y="545"/>
      <point x="471" y="523"/>
    </contour>
    <contour>
      <point x="255" y="277" type="line"/>
      <point x="420" y="277" type="line" smooth="yes"/>
      <point x="460" y="277"/>
      <point x="486" y="251"/>
      <point x="486" y="216" type="curve" name="hr02" smooth="yes"/>
      <point x="486" y="181"/>
      <point x="460" y="155"/>
      <point x="420" y="155" type="curve" smooth="yes"/>
      <point x="255" y="155" type="line"/>
    </contour>
  </outline>
</glyph>
<glyph name="C" format="1">
  <advance width="702"/>
  <unicode hex="0043"/>
  <outline>
    <contour>
      <point x="231" y="434" type="curve" name="hr00" smooth="yes"/>
      <point x="236" y="495"/>
      <point x="267" y="550"/>
      <point x="357" y="550" type="curve" smooth="yes"/>
      <point x="447" y="550"/>
      <point x="471" y="503"/>
      <point x="482" y="471" type="curve" smooth="yes"/>
      <point x="489" y="450"/>
      <point x="494" y="442"/>
      <point x="516" y="442" type="curve" smooth="yes"/>
      <point x="647" y="442" type="line" smooth="yes"/>
      <point x="659" y="442"/>
      <point x="669" y="452"/>
      <point x="669" y="464" type="curve" smooth="yes"/>
      <point x="666" y="600"/>
      <point x="533" y="710"/>
      <point x="357" y="710" type="curve" smooth="yes"/>
      <point x="165" y="710"/>
      <point x="52" y="586"/>
      <point x="46" y="439" type="curve" smooth="yes"/>
      <point x="44" y="382"/>
      <point x="43" y="315"/>
      <point x="46" y="261" type="curve" smooth="yes"/>
      <point x="53" y="114"/>
      <point x="165" y="-10"/>
      <point x="357" y="-10" type="curve" smooth="yes"/>
      <point x="533" y="-10"/>
      <point x="666" y="100"/>
      <point x="669" y="236" type="curve" smooth="yes"/>
      <point x="669" y="248"/>
      <point x="659" y="258"/>
      <point x="647" y="258" type="curve" smooth="yes"/>
      <point x="516" y="258" type="line" smooth="yes"/>
      <point x="494" y="258"/>
      <point x="489" y="250"/>
      <point x="482" y="229" type="curve" smooth="yes"/>
      <point x="471" y="197"/>
      <point x="447" y="150"/>
      <point x="357" y="150" type="curve" smooth="yes"/>
      <point x="267" y="150"/>
      <point x="236" y="205"/>
      <point x="231" y="266" type="curve" smooth="yes"/>
      <point x="228" y="302"/>
      <point x="228" y="399"/>
    </contour>
  </outline>
</glyph>
<glyph name="D" format="1">
  <advance width="723"/>
  <unicode hex="0044"/>
  <outline>
    <contour>
      <point x="362" y="700" type="curve" name="hr00"/>
      <point x="97" y="700" type="line" smooth="yes"/>
      <point x="82" y="700"/>
      <point x="70" y="688"/>
      <point x="70" y="673" type="curve" smooth="yes"/>
      <point x="70" y="27" type="line" smooth="yes"/>
      <point x="70" y="12"/>
      <point x="82" y="0"/>
      <point x="97" y="0" type="curve" smooth="yes"/>
      <point x="367" y="0" type="line" smooth="yes"/>
      <point x="551" y="0"/>
      <point x="671" y="115"/>
      <point x="678" y="279" type="curve" smooth="yes"/>
      <point x="680" y="333"/>
      <point x="680" y="364"/>
      <point x="678" y="421" type="curve" smooth="yes"/>
      <point x="671" y="585"/>
      <point x="546" y="700"/>
    </contour>
    <contour>
      <point x="493" y="425" type="curve" smooth="yes"/>
      <point x="495" y="370"/>
      <point x="495" y="332"/>
      <point x="493" y="275" type="curve" smooth="yes"/>
      <point x="490" y="199"/>
      <point x="447" y="160"/>
      <point x="362" y="160" type="curve" smooth="yes"/>
      <point x="255" y="160" type="line"/>
      <point x="255" y="540" type="line"/>
      <point x="357" y="540" type="line" smooth="yes"/>
      <point x="442" y="540"/>
      <point x="489" y="501"/>
    </contour>
  </outline>
</glyph>
<glyph name="E" format="1">
  <advance width="643"/>
  <unicode hex="0045"/>
  <outline>
    <contour>
      <point x="571" y="160" type="line" name="hr00" smooth="yes"/>
      <point x="586" y="160"/>
      <point x="598" y="148"/>
      <point x="598" y="133" type="curve" smooth="yes"/>
      <point x="598" y="27" type="line" smooth="yes"/>
      <point x="598" y="12"/>
      <point x="586" y="0"/>
      <point x="571" y="0" type="curve" smooth="yes"/>
      <point x="97" y="0" type="line" smooth="yes"/>
      <point x="82" y="0"/>
      <point x="70" y="12"/>
      <point x="70" y="27" type="curve" smooth="yes"/>
      <point x="70" y="673" type="line" smooth="yes"/>
      <point x="70" y="688"/>
      <point x="82" y="700"/>
      <point x="97" y="700" type="curve" smooth="yes"/>
      <point x="563" y="700" type="line" smooth="yes"/>
      <point x="578" y="700"/>
      <point x="590" y="688"/>
      <point x="590" y="673" type="curve" smooth="yes"/>
      <point x="590" y="567" type="line" smooth="yes"/>
      <point x="590" y="552"/>
      <point x="578" y="540"/>
      <point x="563" y="540" type="curve" smooth="yes"/>
      <point x="255" y="540" type="line"/>
      <point x="255" y="432" type="line"/>
      <point x="541" y="432" type="line" smooth="yes"/>
      <point x="556" y="432"/>
      <point x="568" y="420"/>
      <point x="568" y="405" type="curve" smooth="yes"/>
      <point x="568" y="299" type="line" smooth="yes"/>
      <point x="568" y="284"/>
      <point x="556" y="272"/>
      <point x="541" y="272" type="curve" smooth="yes"/>
      <point x="255" y="272" type="line"/>
      <point x="255" y="160" type="line"/>
    </contour>
  </outline>
</glyph>
<glyph name="G" format="1">
  <advance width="711"/>
  <unicode hex="0047"/>
  <outline>
    <contour>
      <point x="357" y="550" type="curve" smooth="yes"/>
      <point x="422" y="550"/>
      <point x="449" y="526"/>
      <point x="468" y="502" type="curve" smooth="yes"/>
      <point x="478" y="490"/>
      <point x="488" y="475"/>
      <point x="508" y="475" type="curve" name="hr01" smooth="yes"/>
      <point x="641" y="475" type="line" smooth="yes"/>
      <point x="653" y="475"/>
      <point x="664" y="485"/>
      <point x="663" y="497" type="curve" smooth="yes"/>
      <point x="657" y="587"/>
      <point x="545" y="710"/>
      <point x="357" y="710" type="curve" smooth="yes"/>
      <point x="165" y="710"/>
      <point x="52" y="586"/>
      <point x="46" y="439" type="curve" smooth="yes"/>
      <point x="44" y="382"/>
      <point x="43" y="315"/>
      <point x="46" y="261" type="curve" smooth="yes"/>
      <point x="53" y="114"/>
      <point x="165" y="-10"/>
      <point x="357" y="-10" type="curve" smooth="yes"/>
      <point x="532" y="-10"/>
      <point x="668" y="94"/>
      <point x="668" y="265" type="curve" smooth="yes"/>
      <point x="668" y="393" type="line" smooth="yes"/>
      <point x="668" y="408"/>
      <point x="656" y="420"/>
      <point x="641" y="420" type="curve" smooth="yes"/>
      <point x="399" y="420" type="line" smooth="yes"/>
      <point x="384" y="420"/>
      <point x="372" y="408"/>
      <point x="372" y="393" type="curve" smooth="yes"/>
      <point x="372" y="287" type="line" smooth="yes"/>
      <point x="372" y="272"/>
      <point x="384" y="260"/>
      <point x="399" y="260" type="curve" smooth="yes"/>
      <point x="483" y="260" type="line"/>
      <point x="483" y="180"/>
      <point x="427" y="150"/>
      <point x="357" y="150" type="curve" smooth="yes"/>
      <point x="268" y="150"/>
      <point x="236" y="205"/>
      <point x="231" y="266" type="curve" smooth="yes"/>
      <point x="228" y="302"/>
      <point x="227" y="399"/>
      <point x="231" y="434" type="curve" smooth="yes"/>
      <point x="238" y="496"/>
      <point x="267" y="550"/>
    </contour>
  </outline>
</glyph>
<glyph name="H" format="1">
  <advance width="732"/>
  <unicode hex="0048"/>
  <outline>
    <contour>
      <point x="504" y="700" type="line" name="hr00" smooth="yes"/>
      <point x="489" y="700"/>
      <point x="477" y="688"/>
      <point x="477" y="673" type="curve" smooth="yes"/>
      <point x="477" y="432" type="line"/>
      <point x="255" y="432" type="line"/>
      <point x="255" y="673" type="line" smooth="yes"/>
      <point x="255" y="688"/>
      <point x="243" y="700"/>
      <point x="228" y="700" type="curve" smooth="yes"/>
      <point x="97" y="700" type="line" smooth="yes"/>
      <point x="82" y="700"/>
      <point x="70" y="688"/>
      <point x="70" y="673" type="curve" smooth="yes"/>
      <point x="70" y="27" type="line" smooth="yes"/>
      <point x="70" y="11"/>
      <point x="82" y="0"/>
      <point x="97" y="0" type="curve" smooth="yes"/>
      <point x="228" y="0" type="line" smooth="yes"/>
      <point x="243" y="0"/>
      <point x="255" y="12"/>
      <point x="255" y="27" type="curve" smooth="yes"/>
      <point x="255" y="272" type="line"/>
      <point x="477" y="272" type="line"/>
      <point x="477" y="27" type="line" smooth="yes"/>
      <point x="477" y="12"/>
      <point x="489" y="0"/>
      <point x="504" y="0" type="curve" smooth="yes"/>
      <point x="635" y="0" type="line" smooth="yes"/>
      <point x="650" y="0"/>
      <point x="662" y="12"/>
      <point x="662" y="27" type="curve" smooth="yes"/>
      <point x="662" y="673" type="line" smooth="yes"/>
      <point x="662" y="688"/>
      <point x="650" y="700"/>
      <point x="635" y="700" type="curve" smooth="yes"/>
    </contour>
  </outline>
</glyph>
<glyph name="I" format="1">
  <advance width="325"/>
  <unicode hex="0049"/>
  <outline>
    <contour>
      <point x="228" y="0" type="line" name="hr00" smooth="yes"/>
      <point x="243" y="0"/>
      <point x="255" y="12"/>
      <point x="255" y="27" type="curve" smooth="yes"/>
      <point x="255" y="673" type="line" smooth="yes"/>
      <point x="255" y="688"/>
      <point x="243" y="700"/>
      <point x="228" y="700" type="curve" smooth="yes"/>
      <point x="97" y="700" type="line" smooth="yes"/>
      <point x="82" y="700"/>
      <point x="70" y="688"/>
      <point x="70" y="673" type="curve" smooth="yes"/>
      <point x="70" y="27" type="line" smooth="yes"/>
      <point x="70" y="12"/>
      <point x="82" y="0"/>
      <point x="97" y="0" type="curve" smooth="yes"/>
    </contour>
  </outline>
</glyph>
<glyph name="J" format="1">
  <advance width="685"/>
  <unicode hex="004A"/>
  <outline>
    <contour>
      <point x="621" y="673" type="line" name="hr00" smooth="yes"/>
      <point x="621" y="688"/>
      <point x="609" y="700"/>
      <point x="594" y="700" type="curve" smooth="yes"/>
      <point x="95" y="700" type="line" smooth="yes"/>
      <point x="80" y="700"/>
      <point x="68" y="688"/>
      <point x="68" y="673" type="curve" smooth="yes"/>
      <point x="68" y="567" type="line" smooth="yes"/>
      <point x="68" y="552"/>
      <point x="80" y="540"/>
      <point x="95" y="540" type="curve" smooth="yes"/>
      <point x="437" y="540" type="line"/>
      <point x="437" y="261" type="line" smooth="yes"/>
      <point x="437" y="190"/>
      <point x="399" y="150"/>
      <point x="323" y="150" type="curve" smooth="yes"/>
      <point x="259" y="150"/>
      <point x="228" y="174"/>
      <point x="212" y="219" type="curve" smooth="yes"/>
      <point x="204" y="241"/>
      <point x="200" y="248"/>
      <point x="175" y="248" type="curve" smooth="yes"/>
      <point x="47" y="248" type="line" smooth="yes"/>
      <point x="35" y="248"/>
      <point x="25" y="238"/>
      <point x="25" y="226" type="curve" smooth="yes"/>
      <point x="28" y="83"/>
      <point x="151" y="-10"/>
      <point x="323" y="-10" type="curve" smooth="yes"/>
      <point x="483" y="-10"/>
      <point x="621" y="79"/>
      <point x="621" y="255" type="curve" smooth="yes"/>
    </contour>
  </outline>
</glyph>
<glyph name="M" format="1">
  <advance width="836"/>
  <unicode hex="004D"/>
  <outline>
    <contour>
      <point x="386" y="168" type="curve" name="hr00"/>
      <point x="450" y="168" type="line" smooth="yes"/>
      <point x="470" y="168"/>
      <point x="480" y="182"/>
      <point x="487" y="193" type="curve"/>
      <point x="581" y="358" type="line"/>
      <point x="581" y="27" type="line" smooth="yes"/>
      <point x="581" y="12"/>
      <point x="593" y="0"/>
      <point x="608" y="0" type="curve" smooth="yes"/>
      <point x="739" y="0" type="line" smooth="yes"/>
      <point x="754" y="0"/>
      <point x="766" y="12"/>
      <point x="766" y="27" type="curve" smooth="yes"/>
      <point x="766" y="673" type="line" smooth="yes"/>
      <point x="766" y="688"/>
      <point x="754" y="700"/>
      <point x="739" y="700" type="curve" smooth="yes"/>
      <point x="623" y="700" type="line" smooth="yes"/>
      <point x="596" y="700"/>
      <point x="584" y="680"/>
      <point x="580" y="673" type="curve" smooth="yes"/>
      <point x="418" y="396" type="line"/>
      <point x="256" y="673" type="line" smooth="yes"/>
      <point x="252" y="680"/>
      <point x="240" y="700"/>
      <point x="213" y="700" type="curve" smooth="yes"/>
      <point x="97" y="700" type="line" smooth="yes"/>
      <point x="82" y="700"/>
      <point x="70" y="688"/>
      <point x="70" y="673" type="curve" smooth="yes"/>
      <point x="70" y="27" type="line" smooth="yes"/>
      <point x="70" y="12"/>
      <point x="82" y="0"/>
      <point x="97" y="0" type="curve" smooth="yes"/>
      <point x="228" y="0" type="line" smooth="yes"/>
      <point x="243" y="0"/>
      <point x="255" y="12"/>
      <point x="255" y="27" type="curve" smooth="yes"/>
      <point x="255" y="358" type="line"/>
      <point x="349" y="193" type="line"/>
      <point x="356" y="182"/>
      <point x="366" y="168"/>
    </contour>
  </outline>
</glyph>
<glyph name="N" format="1">
  <advance width="726"/>
  <unicode hex="004E"/>
  <outline>
    <contour>
      <point x="629" y="0" type="line" name="hr00" smooth="yes"/>
      <point x="644" y="0"/>
      <point x="656" y="12"/>
      <point x="656" y="27" type="curve" smooth="yes"/>
      <point x="656" y="673" type="line" smooth="yes"/>
      <point x="656" y="688"/>
      <point x="644" y="700"/>
      <point x="629" y="700" type="curve" smooth="yes"/>
      <point x="498" y="700" type="line" smooth="yes"/>
      <point x="483" y="700"/>
      <point x="471" y="688"/>
      <point x="471" y="673" type="curve" smooth="yes"/>
      <point x="471" y="335" type="line"/>
      <point x="242" y="677" type="line" smooth="yes"/>
      <point x="238" y="684"/>
      <point x="224" y="700"/>
      <point x="201" y="700" type="curve" smooth="yes"/>
      <point x="97" y="700" type="line" smooth="yes"/>
      <point x="82" y="700"/>
      <point x="70" y="688"/>
      <point x="70" y="673" type="curve" smooth="yes"/>
      <point x="70" y="27" type="line" smooth="yes"/>
      <point x="70" y="12"/>
      <point x="82" y="0"/>
      <point x="97" y="0" type="curve" smooth="yes"/>
      <point x="228" y="0" type="line" smooth="yes"/>
      <point x="243" y="0"/>
      <point x="255" y="12"/>
      <point x="255" y="27" type="curve" smooth="yes"/>
      <point x="255" y="365" type="line"/>
      <point x="484" y="23" type="line" smooth="yes"/>
      <point x="488" y="16"/>
      <point x="502" y="0"/>
      <point x="525" y="0" type="curve" smooth="yes"/>
    </contour>
  </outline>
</glyph>
<glyph name="O" format="1">
  <advance width="718"/>
  <unicode hex="004F"/>
  <outline>
    <contour>
      <point x="47" y="439" type="curve" name="hr00" smooth="yes"/>
      <point x="44" y="382"/>
      <point x="44" y="315"/>
      <point x="47" y="261" type="curve" smooth="yes"/>
      <point x="55" y="111"/>
      <point x="163" y="-10"/>
      <point x="359" y="-10" type="curve" smooth="yes"/>
      <point x="555" y="-10"/>
      <point x="663" y="111"/>
      <point x="671" y="261" type="curve" smooth="yes"/>
      <point x="674" y="315"/>
      <point x="674" y="382"/>
      <point x="671" y="439" type="curve" smooth="yes"/>
      <point x="663" y="589"/>
      <point x="555" y="710"/>
      <point x="359" y="710" type="curve" smooth="yes"/>
      <point x="163" y="710"/>
      <point x="55" y="589"/>
    </contour>
    <contour>
      <point x="486" y="266" type="curve" smooth="yes"/>
      <point x="480" y="200"/>
      <point x="442" y="150"/>
      <point x="359" y="150" type="curve" smooth="yes"/>
      <point x="276" y="150"/>
      <point x="238" y="200"/>
      <point x="232" y="266" type="curve" smooth="yes"/>
      <point x="228" y="313"/>
      <point x="228" y="389"/>
      <point x="232" y="434" type="curve" smooth="yes"/>
      <point x="238" y="500"/>
      <point x="276" y="550"/>
      <point x="359" y="550" type="curve" smooth="yes"/>
      <point x="442" y="550"/>
      <point x="480" y="500"/>
      <point x="486" y="434" type="curve" smooth="yes"/>
      <point x="490" y="389"/>
      <point x="490" y="313"/>
    </contour>
  </outline>
</glyph>
<glyph name="P" format="1">
  <advance width="686"/>
  <unicode hex="0050"/>
  <outline>
    <contour>
      <point x="97" y="700" type="line" name="hr00" smooth="yes"/>
      <point x="82" y="700"/>
      <point x="70" y="688"/>
      <point x="70" y="673" type="curve" smooth="yes"/>
      <point x="70" y="27" type="line" smooth="yes"/>
      <point x="70" y="12"/>
      <point x="82" y="0"/>
      <point x="97" y="0" type="curve" smooth="yes"/>
      <point x="228" y="0" type="line" smooth="yes"/>
      <point x="243" y="0"/>
      <point x="255" y="12"/>
      <point x="255" y="27" type="curve" smooth="yes"/>
      <point x="255" y="231" type="line"/>
      <point x="383" y="231" type="line" smooth="yes"/>
      <point x="553" y="231"/>
      <point x="660" y="310"/>
      <point x="660" y="466" type="curve" smooth="yes"/>
      <point x="660" y="622"/>
      <point x="553" y="700"/>
      <point x="383" y="700" type="curve" smooth="yes"/>
    </contour>
    <contour>
      <point x="255" y="545" type="line"/>
      <point x="378" y="545" type="line" smooth="yes"/>
      <point x="434" y="545"/>
      <point x="475" y="521"/>
      <point x="475" y="466" type="curve" smooth="yes"/>
      <point x="475" y="411"/>
      <point x="434" y="387"/>
      <point x="378" y="387" type="curve" smooth="yes"/>
      <point x="255" y="387" type="line"/>
    </contour>
  </outline>
</glyph>
<glyph name="R" format="1">
  <advance width="695"/>
  <unicode hex="0052"/>
  <outline>
    <contour>
      <point x="97" y="700" type="line" name="hr00"/>
      <point x="82" y="700"/>
      <point x="70" y="688"/>
      <point x="70" y="673" type="curve"/>
      <point x="70" y="27" type="line"/>
      <point x="70" y="12"/>
      <point x="82" y="0"/>
      <point x="97" y="0" type="curve"/>
      <point x="228" y="0" type="line"/>
      <point x="243" y="0"/>
      <point x="255" y="12"/>
      <point x="255" y="27" type="curve"/>
      <point x="255" y="241" type="line"/>
      <point x="347" y="241" type="line"/>
      <point x="458" y="27" type="line"/>
      <point x="464" y="15"/>
      <point x="473" y="0"/>
      <point x="500" y="0" type="curve"/>
      <point x="636" y="0" type="line"/>
      <point x="648" y="0"/>
      <point x="658" y="10"/>
      <point x="658" y="22" type="curve" smooth="yes"/>
      <point x="658" y="27"/>
      <point x="657" y="29"/>
      <point x="655" y="33" type="curve"/>
      <point x="531" y="271" type="line"/>
      <point x="607" y="306"/>
      <point x="650" y="372"/>
      <point x="650" y="471" type="curve" smooth="yes"/>
      <point x="650" y="627"/>
      <point x="543" y="700"/>
      <point x="368" y="700" type="curve"/>
    </contour>
    <contour>
      <point x="255" y="545" type="line"/>
      <point x="368" y="545" type="line"/>
      <point x="424" y="545"/>
      <point x="465" y="526"/>
      <point x="465" y="471" type="curve" smooth="yes"/>
      <point x="465" y="416"/>
      <point x="424" y="397"/>
      <point x="368" y="397" type="curve"/>
      <point x="255" y="397" type="line"/>
    </contour>
  </outline>
</glyph>
<glyph name="S" format="1">
  <advance width="674"/>
  <unicode hex="0053"/>
  <outline>
    <contour>
      <point x="330" y="710" type="curve" smooth="yes"/>
      <point x="156" y="710"/>
      <point x="47" y="609"/>
      <point x="47" y="494" type="curve" smooth="yes"/>
      <point x="47" y="380"/>
      <point x="109" y="312"/>
      <point x="245" y="283" type="curve" smooth="yes"/>
      <point x="392" y="252"/>
      <point x="459" y="243"/>
      <point x="459" y="203" type="curve" smooth="yes"/>
      <point x="459" y="163"/>
      <point x="405" y="150"/>
      <point x="335" y="150" type="curve" smooth="yes"/>
      <point x="255" y="150"/>
      <point x="229" y="194"/>
      <point x="217" y="205" type="curve" smooth="yes"/>
      <point x="207" y="214"/>
      <point x="197" y="219"/>
      <point x="179" y="219" type="curve" name="hr01" smooth="yes"/>
      <point x="48" y="219" type="line" smooth="yes"/>
      <point x="37" y="219"/>
      <point x="27" y="209"/>
      <point x="27" y="197" type="curve" smooth="yes"/>
      <point x="30" y="96"/>
      <point x="155" y="-10"/>
      <point x="335" y="-10" type="curve" smooth="yes"/>
      <point x="514" y="-10"/>
      <point x="644" y="73"/>
      <point x="644" y="208" type="curve" smooth="yes"/>
      <point x="644" y="333"/>
      <point x="571" y="390"/>
      <point x="425" y="420" type="curve" smooth="yes"/>
      <point x="278" y="450"/>
      <point x="232" y="459"/>
      <point x="232" y="499" type="curve" smooth="yes"/>
      <point x="232" y="539"/>
      <point x="280" y="550"/>
      <point x="330" y="550" type="curve" smooth="yes"/>
      <point x="400" y="550"/>
      <point x="423" y="515"/>
      <point x="432" y="507" type="curve" smooth="yes"/>
      <point x="444" y="496"/>
      <point x="453" y="491"/>
      <point x="472" y="491" type="curve" name="hr02" smooth="yes"/>
      <point x="603" y="491" type="line" smooth="yes"/>
      <point x="614" y="491"/>
      <point x="624" y="501"/>
      <point x="624" y="513" type="curve" smooth="yes"/>
      <point x="621" y="599"/>
      <point x="500" y="710"/>
    </contour>
  </outline>
</glyph>
<glyph name="U" format="1">
  <advance width="734"/>
  <unicode hex="0055"/>
  <outline>
    <contour>
      <point x="513" y="700" type="line" name="hr00" smooth="yes"/>
      <point x="498" y="700"/>
      <point x="486" y="688"/>
      <point x="486" y="673" type="curve" smooth="yes"/>
      <point x="486" y="278" type="line" smooth="yes"/>
      <point x="486" y="198"/>
      <point x="446" y="150"/>
      <point x="367" y="150" type="curve" smooth="yes"/>
      <point x="288" y="150"/>
      <point x="248" y="198"/>
      <point x="248" y="278" type="curve" smooth="yes"/>
      <point x="248" y="673" type="line" smooth="yes"/>
      <point x="248" y="688"/>
      <point x="236" y="700"/>
      <point x="221" y="700" type="curve" smooth="yes"/>
      <point x="90" y="700" type="line" smooth="yes"/>
      <point x="75" y="700"/>
      <point x="63" y="688"/>
      <point x="63" y="673" type="curve" smooth="yes"/>
      <point x="63" y="274" type="line" smooth="yes"/>
      <point x="63" y="90"/>
      <point x="185" y="-10"/>
      <point x="367" y="-10" type="curve" smooth="yes"/>
      <point x="547" y="-10"/>
      <point x="671" y="90"/>
      <point x="671" y="274" type="curve" smooth="yes"/>
      <point x="671" y="673" type="line" smooth="yes"/>
      <point x="671" y="688"/>
      <point x="659" y="700"/>
      <point x="644" y="700" type="curve" smooth="yes"/>
    </contour>
  </outline>
</glyph>
<glyph name="V" format="1">
  <advance width="696"/>
  <unicode hex="0056"/>
  <outline>
    <contour>
      <point x="414" y="0" type="line" name="hr00" smooth="yes"/>
      <point x="441" y="0"/>
      <point x="458" y="14"/>
      <point x="467" y="40" type="curve" smooth="yes"/>
      <point x="671" y="665" type="line" smooth="yes"/>
      <point x="674" y="674"/>
      <point x="674" y="676"/>
      <point x="674" y="678" type="curve" smooth="yes"/>
      <point x="674" y="690"/>
      <point x="664" y="700"/>
      <point x="652" y="700" type="curve" smooth="yes"/>
      <point x="526" y="700" type="line" smooth="yes"/>
      <point x="500" y="700"/>
      <point x="490" y="685"/>
      <point x="487" y="675" type="curve" smooth="yes"/>
      <point x="348" y="235" type="line"/>
      <point x="209" y="675" type="line" smooth="yes"/>
      <point x="206" y="685"/>
      <point x="196" y="700"/>
      <point x="170" y="700" type="curve" smooth="yes"/>
      <point x="44" y="700" type="line" smooth="yes"/>
      <point x="32" y="700"/>
      <point x="22" y="690"/>
      <point x="22" y="678" type="curve" smooth="yes"/>
      <point x="22" y="676"/>
      <point x="22" y="674"/>
      <point x="25" y="665" type="curve" smooth="yes"/>
      <point x="229" y="40" type="line" smooth="yes"/>
      <point x="238" y="14"/>
      <point x="255" y="0"/>
      <point x="282" y="0" type="curve" smooth="yes"/>
    </contour>
  </outline>
</glyph>
<glyph name="W" format="1">
  <advance width="832"/>
  <unicode hex="0057"/>
  <outline>
    <contour>
      <point x="497" y="516" type="line" name="hr00"/>
      <point x="494" y="525"/>
      <point x="487" y="545"/>
      <point x="463" y="545" type="curve"/>
      <point x="369" y="545" type="line"/>
      <point x="345" y="545"/>
      <point x="338" y="525"/>
      <point x="335" y="516" type="curve"/>
      <point x="276" y="335" type="line"/>
      <point x="212" y="673" type="line"/>
      <point x="208" y="693"/>
      <point x="194" y="700"/>
      <point x="181" y="700" type="curve"/>
      <point x="50" y="700" type="line"/>
      <point x="38" y="700"/>
      <point x="28" y="690"/>
      <point x="28" y="678" type="curve" smooth="yes"/>
      <point x="28" y="677"/>
      <point x="28" y="675"/>
      <point x="29" y="670" type="curve"/>
      <point x="158" y="38" type="line"/>
      <point x="161" y="20"/>
      <point x="181" y="0"/>
      <point x="208" y="0" type="curve"/>
      <point x="291" y="0" type="line"/>
      <point x="318" y="0"/>
      <point x="335" y="20"/>
      <point x="341" y="38" type="curve"/>
      <point x="416" y="264" type="line"/>
      <point x="491" y="38" type="line"/>
      <point x="497" y="20"/>
      <point x="514" y="0"/>
      <point x="541" y="0" type="curve"/>
      <point x="624" y="0" type="line"/>
      <point x="651" y="0"/>
      <point x="671" y="20"/>
      <point x="674" y="38" type="curve"/>
      <point x="803" y="670" type="line"/>
      <point x="804" y="675"/>
      <point x="804" y="677"/>
      <point x="804" y="678" type="curve" smooth="yes"/>
      <point x="804" y="690"/>
      <point x="794" y="700"/>
      <point x="782" y="700" type="curve"/>
      <point x="651" y="700" type="line"/>
      <point x="638" y="700"/>
      <point x="624" y="693"/>
      <point x="620" y="673" type="curve"/>
      <point x="556" y="335" type="line"/>
    </contour>
  </outline>
</glyph>
<glyph name="X" format="1">
  <advance width="711"/>
  <unicode hex="0058"/>
  <outline>
    <contour>
      <point x="483" y="23" type="line" name="hr00"/>
      <point x="491" y="11"/>
      <point x="498" y="0"/>
      <point x="524" y="0" type="curve"/>
      <point x="676" y="0" type="line"/>
      <point x="688" y="0"/>
      <point x="698" y="10"/>
      <point x="698" y="22" type="curve" smooth="yes"/>
      <point x="698" y="24"/>
      <point x="698" y="28"/>
      <point x="695" y="33" type="curve"/>
      <point x="466" y="352" type="line"/>
      <point x="688" y="667" type="line"/>
      <point x="690" y="671"/>
      <point x="691" y="673"/>
      <point x="691" y="678" type="curve" smooth="yes"/>
      <point x="691" y="690"/>
      <point x="681" y="700"/>
      <point x="669" y="700" type="curve"/>
      <point x="516" y="700" type="line"/>
      <point x="490" y="700"/>
      <point x="479" y="682"/>
      <point x="474" y="675" type="curve"/>
      <point x="357" y="506" type="line"/>
      <point x="236" y="675" type="line"/>
      <point x="231" y="682"/>
      <point x="220" y="700"/>
      <point x="194" y="700" type="curve"/>
      <point x="43" y="700" type="line"/>
      <point x="31" y="700"/>
      <point x="21" y="690"/>
      <point x="21" y="678" type="curve" smooth="yes"/>
      <point x="21" y="673"/>
      <point x="22" y="671"/>
      <point x="24" y="667" type="curve"/>
      <point x="245" y="356" type="line"/>
      <point x="14" y="33" type="line"/>
      <point x="11" y="28"/>
      <point x="11" y="24"/>
      <point x="11" y="22" type="curve" smooth="yes"/>
      <point x="11" y="10"/>
      <point x="21" y="0"/>
      <point x="33" y="0" type="curve"/>
      <point x="185" y="0" type="line"/>
      <point x="211" y="0"/>
      <point x="218" y="11"/>
      <point x="226" y="23" type="curve"/>
      <point x="354" y="203" type="line"/>
    </contour>
  </outline>
</glyph>
<glyph name="Z" format="1">
  <advance width="668"/>
  <unicode hex="005A"/>
  <outline>
    <contour>
      <point x="286" y="160" type="line" name="hr00"/>
      <point x="606" y="539" type="line" smooth="yes"/>
      <point x="615" y="549"/>
      <point x="619" y="558"/>
      <point x="619" y="572" type="curve" smooth="yes"/>
      <point x="619" y="673" type="line" smooth="yes"/>
      <point x="619" y="688"/>
      <point x="607" y="700"/>
      <point x="592" y="700" type="curve" smooth="yes"/>
      <point x="76" y="700" type="line" smooth="yes"/>
      <point x="61" y="700"/>
      <point x="49" y="688"/>
      <point x="49" y="673" type="curve" smooth="yes"/>
      <point x="49" y="567" type="line" smooth="yes"/>
      <point x="49" y="552"/>
      <point x="61" y="540"/>
      <point x="76" y="540" type="curve" smooth="yes"/>
      <point x="374" y="540" type="line"/>
      <point x="54" y="163" type="line" smooth="yes"/>
      <point x="48" y="156"/>
      <point x="39" y="147"/>
      <point x="39" y="128" type="curve" smooth="yes"/>
      <point x="39" y="27" type="line" smooth="yes"/>
      <point x="39" y="12"/>
      <point x="51" y="0"/>
      <point x="66" y="0" type="curve" smooth="yes"/>
      <point x="602" y="0" type="line" smooth="yes"/>
      <point x="617" y="0"/>
      <point x="629" y="12"/>
      <point x="629" y="27" type="curve" smooth="yes"/>
      <point x="629" y="133" type="line" smooth="yes"/>
      <point x="629" y="148"/>
      <point x="617" y="160"/>
      <point x="602" y="160" type="curve" smooth="yes"/>
    </contour>
  </outline>
</glyph>
<glyph name="backslash" format="1">
  <advance width="574"/>
  <unicode hex="005C"/>
  <outline>
    <contour>
      <point x="213" y="756" type="line" name="hr00" smooth="yes"/>
      <point x="207" y="770"/>
      <point x="194" y="786"/>
      <point x="169" y="786" type="curve" smooth="yes"/>
      <point x="45" y="786" type="line" smooth="yes"/>
      <point x="33" y="786"/>
      <point x="23" y="776"/>
      <point x="23" y="764" type="curve" smooth="yes"/>
      <point x="23" y="762"/>
      <point x="23" y="760"/>
      <point x="25" y="755" type="curve" smooth="yes"/>
      <point x="362" y="-54" type="line" smooth="yes"/>
      <point x="367" y="-67"/>
      <point x="379" y="-84"/>
      <point x="406" y="-84" type="curve" smooth="yes"/>
      <point x="528" y="-84" type="line" smooth="yes"/>
      <point x="540" y="-84"/>
      <point x="550" y="-74"/>
      <point x="550" y="-62" type="curve" smooth="yes"/>
      <point x="550" y="-60"/>
      <point x="550" y="-58"/>
      <point x="548" y="-53" type="curve" smooth="yes"/>
    </contour>
  </outline>
</glyph>
<glyph name="grave" format="1">
  <advance width="396"/>
  <unicode hex="0060"/>
  <outline>
    <contour>
      <point x="244" y="736" type="line" name="hr00" smooth="yes"/>
      <point x="229" y="753"/>
      <point x="222" y="755"/>
      <point x="207" y="755" type="curve" smooth="yes"/>
      <point x="74" y="755" type="line" smooth="yes"/>
      <point x="62" y="755"/>
      <point x="55" y="747"/>
      <point x="55" y="735" type="curve" smooth="yes"/>
      <point x="55" y="730"/>
      <point x="57" y="726"/>
      <point x="60" y="723" type="curve" smooth="yes"/>
      <point x="195" y="612" type="line" smooth="yes"/>
      <point x="206" y="603"/>
      <point x="216" y="595"/>
      <point x="237" y="595" type="curve" smooth="yes"/>
      <point x="325" y="595" type="line" smooth="yes"/>
      <point x="335" y="595"/>
      <point x="341" y="601"/>
      <point x="341" y="611" type="curve" smooth="yes"/>
      <point x="341" y="616"/>
      <point x="339" y="621"/>
      <point x="336" y="624" type="curve" smooth="yes"/>
    </contour>
  </outline>
</glyph>
<glyph name="a" format="1">
  <advance width="589"/>
  <unicode hex="0061"/>
  <outline>
    <contour>
      <point x="24" y="148" type="curve" smooth="yes"/>
      <point x="24" y="58"/>
      <point x="88" y="-10"/>
      <point x="203" y="-10" type="curve" smooth="yes"/>
      <point x="280" y="-10"/>
      <point x="324" y="15"/>
      <point x="356" y="55" type="curve"/>
      <point x="356" y="27" type="line" smooth="yes"/>
      <point x="356" y="12"/>
      <point x="368" y="0"/>
      <point x="383" y="0" type="curve" name="hr01" smooth="yes"/>
      <point x="509" y="0" type="line" smooth="yes"/>
      <point x="524" y="0"/>
      <point x="536" y="12"/>
      <point x="536" y="27" type="curve" smooth="yes"/>
      <point x="536" y="330" type="line" smooth="yes"/>
      <point x="536" y="447"/>
      <point x="462" y="530"/>
      <point x="298" y="530" type="curve" smooth="yes"/>
      <point x="161" y="530"/>
      <point x="64" y="448"/>
      <point x="59" y="387" type="curve" smooth="yes"/>
      <point x="58" y="374"/>
      <point x="68" y="365"/>
      <point x="81" y="365" type="curve" smooth="yes"/>
      <point x="208" y="365" type="line" smooth="yes"/>
      <point x="222" y="365"/>
      <point x="232" y="366"/>
      <point x="244" y="377" type="curve" smooth="yes"/>
      <point x="252" y="384"/>
      <point x="268" y="395"/>
      <point x="298" y="395" type="curve" name="hr02" smooth="yes"/>
      <point x="341" y="395"/>
      <point x="356" y="372"/>
      <point x="356" y="340" type="curve"/>
      <point x="239" y="320" type="line" smooth="yes"/>
      <point x="88" y="294"/>
      <point x="24" y="235"/>
    </contour>
    <contour>
      <point x="252" y="125" type="curve" smooth="yes"/>
      <point x="222" y="125"/>
      <point x="204" y="134"/>
      <point x="204" y="159" type="curve" smooth="yes"/>
      <point x="204" y="184"/>
      <point x="228" y="200"/>
      <point x="264" y="207" type="curve"/>
      <point x="356" y="221" type="line"/>
      <point x="356" y="168"/>
      <point x="311" y="125"/>
    </contour>
  </outline>
</glyph>
<glyph name="b" format="1">
  <advance width="634"/>
  <unicode hex="0062"/>
  <outline>
    <contour>
      <point x="372" y="530" type="curve" smooth="yes"/>
      <point x="295" y="530"/>
      <point x="256" y="495"/>
      <point x="238" y="470" type="curve"/>
      <point x="238" y="683" type="line" smooth="yes"/>
      <point x="238" y="698"/>
      <point x="226" y="710"/>
      <point x="211" y="710" type="curve" smooth="yes"/>
      <point x="85" y="710" type="line" smooth="yes"/>
      <point x="70" y="710"/>
      <point x="58" y="698"/>
      <point x="58" y="683" type="curve" smooth="yes"/>
      <point x="58" y="27" type="line" smooth="yes"/>
      <point x="58" y="12"/>
      <point x="70" y="0"/>
      <point x="85" y="0" type="curve" smooth="yes"/>
      <point x="206" y="0" type="line" smooth="yes"/>
      <point x="221" y="0"/>
      <point x="233" y="12"/>
      <point x="233" y="27" type="curve" smooth="yes"/>
      <point x="233" y="50" type="line"/>
      <point x="257" y="22"/>
      <point x="284" y="-10"/>
      <point x="372" y="-10" type="curve" name="hr01" smooth="yes"/>
      <point x="492" y="-10"/>
      <point x="590" y="62"/>
      <point x="596" y="219" type="curve" smooth="yes"/>
      <point x="597" y="239"/>
      <point x="597" y="280"/>
      <point x="596" y="300" type="curve" smooth="yes"/>
      <point x="590" y="457"/>
      <point x="493" y="530"/>
    </contour>
    <contour>
      <point x="417" y="288" type="curve" smooth="yes"/>
      <point x="419" y="268"/>
      <point x="419" y="252"/>
      <point x="417" y="232" type="curve" smooth="yes"/>
      <point x="413" y="185"/>
      <point x="389" y="145"/>
      <point x="327" y="145" type="curve" smooth="yes"/>
      <point x="268" y="145"/>
      <point x="244" y="186"/>
      <point x="238" y="225" type="curve" smooth="yes"/>
      <point x="235" y="245"/>
      <point x="235" y="275"/>
      <point x="238" y="295" type="curve" smooth="yes"/>
      <point x="243" y="334"/>
      <point x="268" y="375"/>
      <point x="327" y="375" type="curve" smooth="yes"/>
      <point x="389" y="375"/>
      <point x="413" y="335"/>
    </contour>
  </outline>
</glyph>
<glyph name="c" format="1">
  <advance width="602"/>
  <unicode hex="0063"/>
  <outline>
    <contour>
      <point x="217" y="295" type="curve" smooth="yes"/>
      <point x="221" y="343"/>
      <point x="255" y="375"/>
      <point x="308" y="375" type="curve" smooth="yes"/>
      <point x="352" y="375"/>
      <point x="372" y="362"/>
      <point x="387" y="339" type="curve" smooth="yes"/>
      <point x="394" y="328"/>
      <point x="401" y="319"/>
      <point x="416" y="319" type="curve" name="hr01" smooth="yes"/>
      <point x="547" y="319" type="line" smooth="yes"/>
      <point x="562" y="319"/>
      <point x="575" y="331"/>
      <point x="574" y="346" type="curve" smooth="yes"/>
      <point x="571" y="389"/>
      <point x="519" y="530"/>
      <point x="308" y="530" type="curve" smooth="yes"/>
      <point x="159" y="530"/>
      <point x="42" y="441"/>
      <point x="37" y="300" type="curve" smooth="yes"/>
      <point x="36" y="280"/>
      <point x="36" y="240"/>
      <point x="37" y="220" type="curve" smooth="yes"/>
      <point x="42" y="79"/>
      <point x="159" y="-10"/>
      <point x="308" y="-10" type="curve" smooth="yes"/>
      <point x="519" y="-10"/>
      <point x="571" y="131"/>
      <point x="574" y="174" type="curve" smooth="yes"/>
      <point x="575" y="189"/>
      <point x="562" y="201"/>
      <point x="547" y="201" type="curve" smooth="yes"/>
      <point x="416" y="201" type="line" smooth="yes"/>
      <point x="401" y="201"/>
      <point x="394" y="192"/>
      <point x="387" y="181" type="curve" smooth="yes"/>
      <point x="372" y="158"/>
      <point x="352" y="145"/>
      <point x="308" y="145" type="curve" name="hr02" smooth="yes"/>
      <point x="255" y="145"/>
      <point x="221" y="177"/>
      <point x="217" y="225" type="curve" smooth="yes"/>
      <point x="215" y="245"/>
      <point x="215" y="275"/>
    </contour>
  </outline>
</glyph>
<glyph name="d" format="1">
  <advance width="634"/>
  <unicode hex="0064"/>
  <outline>
    <contour>
      <point x="262" y="530" type="curve" smooth="yes"/>
      <point x="141" y="530"/>
      <point x="44" y="457"/>
      <point x="38" y="300" type="curve" smooth="yes"/>
      <point x="37" y="280"/>
      <point x="37" y="239"/>
      <point x="38" y="219" type="curve" smooth="yes"/>
      <point x="44" y="62"/>
      <point x="142" y="-10"/>
      <point x="262" y="-10" type="curve" smooth="yes"/>
      <point x="350" y="-10"/>
      <point x="377" y="22"/>
      <point x="401" y="50" type="curve"/>
      <point x="401" y="27" type="line" smooth="yes"/>
      <point x="401" y="12"/>
      <point x="413" y="0"/>
      <point x="428" y="0" type="curve" name="hr01" smooth="yes"/>
      <point x="549" y="0" type="line" smooth="yes"/>
      <point x="564" y="0"/>
      <point x="576" y="12"/>
      <point x="576" y="27" type="curve" smooth="yes"/>
      <point x="576" y="683" type="line" smooth="yes"/>
      <point x="576" y="698"/>
      <point x="564" y="710"/>
      <point x="549" y="710" type="curve" smooth="yes"/>
      <point x="423" y="710" type="line" smooth="yes"/>
      <point x="408" y="710"/>
      <point x="396" y="698"/>
      <point x="396" y="683" type="curve" smooth="yes"/>
      <point x="396" y="470" type="line"/>
      <point x="378" y="495"/>
      <point x="339" y="530"/>
    </contour>
    <contour>
      <point x="217" y="288" type="curve" smooth="yes"/>
      <point x="221" y="335"/>
      <point x="245" y="375"/>
      <point x="307" y="375" type="curve" smooth="yes"/>
      <point x="366" y="375"/>
      <point x="391" y="334"/>
      <point x="396" y="295" type="curve" smooth="yes"/>
      <point x="399" y="275"/>
      <point x="399" y="245"/>
      <point x="396" y="225" type="curve" smooth="yes"/>
      <point x="390" y="186"/>
      <point x="366" y="145"/>
      <point x="307" y="145" type="curve" name="hr02" smooth="yes"/>
      <point x="245" y="145"/>
      <point x="221" y="185"/>
      <point x="217" y="232" type="curve" smooth="yes"/>
      <point x="215" y="252"/>
      <point x="215" y="268"/>
    </contour>
  </outline>
</glyph>
<glyph name="f" format="1">
  <advance width="460"/>
  <unicode hex="0066"/>
  <outline>
    <contour>
      <point x="297" y="542" type="line" name="hr00" smooth="yes"/>
      <point x="297" y="567"/>
      <point x="308" y="585"/>
      <point x="340" y="585" type="curve" smooth="yes"/>
      <point x="430" y="585" type="line" smooth="yes"/>
      <point x="445" y="585"/>
      <point x="457" y="597"/>
      <point x="457" y="612" type="curve" smooth="yes"/>
      <point x="457" y="713" type="line" smooth="yes"/>
      <point x="457" y="728"/>
      <point x="445" y="740"/>
      <point x="430" y="740" type="curve" smooth="yes"/>
      <point x="335" y="740" type="line" smooth="yes"/>
      <point x="210" y="740"/>
      <point x="117" y="670"/>
      <point x="117" y="547" type="curve" smooth="yes"/>
      <point x="117" y="520" type="line"/>
      <point x="48" y="520" type="line" smooth="yes"/>
      <point x="33" y="520"/>
      <point x="21" y="508"/>
      <point x="21" y="493" type="curve" smooth="yes"/>
      <point x="21" y="392" type="line" smooth="yes"/>
      <point x="21" y="377"/>
      <point x="33" y="365"/>
      <point x="48" y="365" type="curve" smooth="yes"/>
      <point x="117" y="365" type="line"/>
      <point x="117" y="27" type="line" smooth="yes"/>
      <point x="117" y="12"/>
      <point x="129" y="0"/>
      <point x="144" y="0" type="curve" smooth="yes"/>
      <point x="270" y="0" type="line" smooth="yes"/>
      <point x="285" y="0"/>
      <point x="297" y="12"/>
      <point x="297" y="27" type="curve" smooth="yes"/>
      <point x="297" y="365" type="line"/>
      <point x="420" y="365" type="line" smooth="yes"/>
      <point x="435" y="365"/>
      <point x="447" y="377"/>
      <point x="447" y="392" type="curve" smooth="yes"/>
      <point x="447" y="493" type="line" smooth="yes"/>
      <point x="447" y="508"/>
      <point x="435" y="520"/>
      <point x="420" y="520" type="curve" smooth="yes"/>
      <point x="297" y="520" type="line"/>
    </contour>
  </outline>
</glyph>
<glyph name="g" format="1">
  <advance width="634"/>
  <unicode hex="0067"/>
  <outline>
    <contour>
      <point x="305" y="-70" type="curve" smooth="yes"/>
      <point x="260" y="-70"/>
      <point x="244" y="-54"/>
      <point x="235" y="-37" type="curve" smooth="yes"/>
      <point x="229" y="-25"/>
      <point x="219" y="-17"/>
      <point x="204" y="-17" type="curve" name="hr01" smooth="yes"/>
      <point x="74" y="-17" type="line" smooth="yes"/>
      <point x="59" y="-17"/>
      <point x="46" y="-29"/>
      <point x="47" y="-44" type="curve" smooth="yes"/>
      <point x="50" y="-102"/>
      <point x="95" y="-220"/>
      <point x="303" y="-220" type="curve" smooth="yes"/>
      <point x="462" y="-220"/>
      <point x="576" y="-144"/>
      <point x="576" y="6" type="curve" smooth="yes"/>
      <point x="576" y="493" type="line" smooth="yes"/>
      <point x="576" y="508"/>
      <point x="564" y="520"/>
      <point x="549" y="520" type="curve" smooth="yes"/>
      <point x="433" y="520" type="line" smooth="yes"/>
      <point x="418" y="520"/>
      <point x="406" y="508"/>
      <point x="406" y="493" type="curve" smooth="yes"/>
      <point x="406" y="470" type="line"/>
      <point x="388" y="495"/>
      <point x="349" y="530"/>
      <point x="262" y="530" type="curve" name="hr02" smooth="yes"/>
      <point x="141" y="530"/>
      <point x="44" y="457"/>
      <point x="38" y="305" type="curve" smooth="yes"/>
      <point x="37" y="285"/>
      <point x="37" y="254"/>
      <point x="38" y="234" type="curve" smooth="yes"/>
      <point x="44" y="82"/>
      <point x="142" y="10"/>
      <point x="262" y="10" type="curve" smooth="yes"/>
      <point x="350" y="10"/>
      <point x="377" y="42"/>
      <point x="401" y="70" type="curve"/>
      <point x="401" y="0" type="line" smooth="yes"/>
      <point x="401" y="-47"/>
      <point x="356" y="-70"/>
    </contour>
    <contour>
      <point x="217" y="295" type="curve" smooth="yes"/>
      <point x="221" y="342"/>
      <point x="250" y="375"/>
      <point x="307" y="375" type="curve" smooth="yes"/>
      <point x="361" y="375"/>
      <point x="391" y="341"/>
      <point x="396" y="302" type="curve" smooth="yes"/>
      <point x="399" y="282"/>
      <point x="399" y="259"/>
      <point x="396" y="239" type="curve" smooth="yes"/>
      <point x="390" y="200"/>
      <point x="361" y="165"/>
      <point x="307" y="165" type="curve" smooth="yes"/>
      <point x="249" y="165"/>
      <point x="221" y="199"/>
      <point x="217" y="246" type="curve" smooth="yes"/>
      <point x="215" y="266"/>
      <point x="215" y="275"/>
    </contour>
  </outline>
</glyph>
<glyph name="h" format="1">
  <advance width="644"/>
  <unicode hex="0068"/>
  <outline>
    <contour>
      <point x="591" y="302" type="line" name="hr00" smooth="yes"/>
      <point x="591" y="459"/>
      <point x="503" y="530"/>
      <point x="374" y="530" type="curve" smooth="yes"/>
      <point x="312" y="530"/>
      <point x="260" y="498"/>
      <point x="238" y="470" type="curve"/>
      <point x="238" y="683" type="line" smooth="yes"/>
      <point x="238" y="698"/>
      <point x="226" y="710"/>
      <point x="211" y="710" type="curve" smooth="yes"/>
      <point x="85" y="710" type="line" smooth="yes"/>
      <point x="70" y="710"/>
      <point x="58" y="698"/>
      <point x="58" y="683" type="curve" smooth="yes"/>
      <point x="58" y="27" type="line" smooth="yes"/>
      <point x="58" y="12"/>
      <point x="70" y="0"/>
      <point x="85" y="0" type="curve" smooth="yes"/>
      <point x="211" y="0" type="line" smooth="yes"/>
      <point x="226" y="0"/>
      <point x="238" y="12"/>
      <point x="238" y="27" type="curve" smooth="yes"/>
      <point x="238" y="280" type="line" smooth="yes"/>
      <point x="238" y="337"/>
      <point x="264" y="375"/>
      <point x="324" y="375" type="curve" smooth="yes"/>
      <point x="384" y="375"/>
      <point x="411" y="337"/>
      <point x="411" y="280" type="curve" smooth="yes"/>
      <point x="411" y="27" type="line" smooth="yes"/>
      <point x="411" y="12"/>
      <point x="423" y="0"/>
      <point x="438" y="0" type="curve" smooth="yes"/>
      <point x="564" y="0" type="line" smooth="yes"/>
      <point x="579" y="0"/>
      <point x="591" y="12"/>
      <point x="591" y="27" type="curve" smooth="yes"/>
    </contour>
  </outline>
</glyph>
<glyph name="i" format="1">
  <advance width="296"/>
  <unicode hex="0069"/>
  <outline>
    <contour>
      <point x="238" y="493" type="line" name="hr00" smooth="yes"/>
      <point x="238" y="508"/>
      <point x="226" y="520"/>
      <point x="211" y="520" type="curve" smooth="yes"/>
      <point x="85" y="520" type="line" smooth="yes"/>
      <point x="70" y="520"/>
      <point x="58" y="508"/>
      <point x="58" y="493" type="curve" smooth="yes"/>
      <point x="58" y="27" type="line" smooth="yes"/>
      <point x="58" y="12"/>
      <point x="70" y="0"/>
      <point x="85" y="0" type="curve" smooth="yes"/>
      <point x="211" y="0" type="line" smooth="yes"/>
      <point x="226" y="0"/>
      <point x="238" y="12"/>
      <point x="238" y="27" type="curve" smooth="yes"/>
    </contour>
    <contour>
      <point x="238" y="703" type="line" smooth="yes"/>
      <point x="238" y="718"/>
      <point x="226" y="730"/>
      <point x="211" y="730" type="curve" smooth="yes"/>
      <point x="85" y="730" type="line" smooth="yes"/>
      <point x="70" y="730"/>
      <point x="58" y="718"/>
      <point x="58" y="703" type="curve" smooth="yes"/>
      <point x="58" y="602" type="line" smooth="yes"/>
      <point x="58" y="587"/>
      <point x="70" y="575"/>
      <point x="85" y="575" type="curve" smooth="yes"/>
      <point x="211" y="575" type="line" smooth="yes"/>
      <point x="226" y="575"/>
      <point x="238" y="587"/>
      <point x="238" y="602" type="curve" smooth="yes"/>
    </contour>
  </outline>
</glyph>
<glyph name="j" format="1">
  <advance width="307"/>
  <unicode hex="006A"/>
  <outline>
    <contour>
      <point x="249" y="703" type="line" name="hr00" smooth="yes"/>
      <point x="249" y="718"/>
      <point x="237" y="730"/>
      <point x="222" y="730" type="curve" smooth="yes"/>
      <point x="96" y="730" type="line" smooth="yes"/>
      <point x="81" y="730"/>
      <point x="69" y="718"/>
      <point x="69" y="703" type="curve" smooth="yes"/>
      <point x="69" y="602" type="line" smooth="yes"/>
      <point x="69" y="587"/>
      <point x="81" y="575"/>
      <point x="96" y="575" type="curve" smooth="yes"/>
      <point x="222" y="575" type="line" smooth="yes"/>
      <point x="237" y="575"/>
      <point x="249" y="587"/>
      <point x="249" y="602" type="curve" smooth="yes"/>
    </contour>
    <contour>
      <point x="69" y="13" type="line" smooth="yes"/>
      <point x="69" y="-12"/>
      <point x="58" y="-35"/>
      <point x="26" y="-35" type="curve" smooth="yes"/>
      <point x="-14" y="-35" type="line" smooth="yes"/>
      <point x="-29" y="-35"/>
      <point x="-41" y="-52"/>
      <point x="-41" y="-67" type="curve" smooth="yes"/>
      <point x="-41" y="-163" type="line" smooth="yes"/>
      <point x="-41" y="-178"/>
      <point x="-29" y="-190"/>
      <point x="-14" y="-190" type="curve" smooth="yes"/>
      <point x="36" y="-190" type="line" smooth="yes"/>
      <point x="161" y="-190"/>
      <point x="249" y="-115"/>
      <point x="249" y="8" type="curve" smooth="yes"/>
      <point x="249" y="493" type="line" smooth="yes"/>
      <point x="249" y="508"/>
      <point x="237" y="520"/>
      <point x="222" y="520" type="curve" smooth="yes"/>
      <point x="96" y="520" type="line" smooth="yes"/>
      <point x="81" y="520"/>
      <point x="69" y="508"/>
      <point x="69" y="493" type="curve" smooth="yes"/>
    </contour>
  </outline>
</glyph>
<glyph name="k" format="1">
  <advance width="611"/>
  <unicode hex="006B"/>
  <outline>
    <contour>
      <point x="238" y="683" type="line" name="hr00" smooth="yes"/>
      <point x="238" y="698"/>
      <point x="226" y="710"/>
      <point x="211" y="710" type="curve" smooth="yes"/>
      <point x="85" y="710" type="line" smooth="yes"/>
      <point x="70" y="710"/>
      <point x="58" y="698"/>
      <point x="58" y="683" type="curve" smooth="yes"/>
      <point x="58" y="27" type="line" smooth="yes"/>
      <point x="58" y="12"/>
      <point x="70" y="0"/>
      <point x="85" y="0" type="curve" smooth="yes"/>
      <point x="211" y="0" type="line" smooth="yes"/>
      <point x="226" y="0"/>
      <point x="238" y="12"/>
      <point x="238" y="27" type="curve" smooth="yes"/>
      <point x="238" y="196" type="line"/>
      <point x="397" y="17" type="line" smooth="yes"/>
      <point x="406" y="7"/>
      <point x="418" y="0"/>
      <point x="438" y="0" type="curve" smooth="yes"/>
      <point x="587" y="0" type="line" smooth="yes"/>
      <point x="600" y="0"/>
      <point x="611" y="11"/>
      <point x="611" y="24" type="curve" smooth="yes"/>
      <point x="611" y="30"/>
      <point x="609" y="34"/>
      <point x="601" y="43" type="curve" smooth="yes"/>
      <point x="391" y="278" type="line"/>
      <point x="569" y="476" type="line"/>
      <point x="579" y="486"/>
      <point x="580" y="490"/>
      <point x="580" y="496" type="curve" smooth="yes"/>
      <point x="580" y="509"/>
      <point x="569" y="520"/>
      <point x="556" y="520" type="curve" smooth="yes"/>
      <point x="409" y="520" type="line" smooth="yes"/>
      <point x="391" y="520"/>
      <point x="377" y="510"/>
      <point x="370" y="503" type="curve" smooth="yes"/>
      <point x="238" y="359" type="line"/>
    </contour>
  </outline>
</glyph>
<glyph name="l" format="1">
  <advance width="296"/>
  <unicode hex="006C"/>
  <outline>
    <contour>
      <point x="238" y="683" type="line" name="hr00" smooth="yes"/>
      <point x="238" y="698"/>
      <point x="226" y="710"/>
      <point x="211" y="710" type="curve" smooth="yes"/>
      <point x="85" y="710" type="line" smooth="yes"/>
      <point x="70" y="710"/>
      <point x="58" y="698"/>
      <point x="58" y="683" type="curve" smooth="yes"/>
      <point x="58" y="27" type="line" smooth="yes"/>
      <point x="58" y="12"/>
      <point x="70" y="0"/>
      <point x="85" y="0" type="curve" smooth="yes"/>
      <point x="211" y="0" type="line" smooth="yes"/>
      <point x="226" y="0"/>
      <point x="238" y="12"/>
      <point x="238" y="27" type="curve" smooth="yes"/>
    </contour>
  </outline>
</glyph>
<glyph name="o" format="1">
  <advance width="616"/>
  <unicode hex="006F"/>
  <outline>
    <contour>
      <point x="580" y="298" type="curve" name="hr00" smooth="yes"/>
      <point x="576" y="425"/>
      <point x="471" y="530"/>
      <point x="308" y="530" type="curve" smooth="yes"/>
      <point x="145" y="530"/>
      <point x="40" y="425"/>
      <point x="36" y="298" type="curve" smooth="yes"/>
      <point x="35" y="278"/>
      <point x="35" y="241"/>
      <point x="36" y="221" type="curve" smooth="yes"/>
      <point x="42" y="94"/>
      <point x="145" y="-10"/>
      <point x="308" y="-10" type="curve" smooth="yes"/>
      <point x="471" y="-10"/>
      <point x="574" y="94"/>
      <point x="580" y="221" type="curve" smooth="yes"/>
      <point x="581" y="241"/>
      <point x="581" y="278"/>
    </contour>
    <contour>
      <point x="216" y="226" type="curve" smooth="yes"/>
      <point x="214" y="246"/>
      <point x="214" y="274"/>
      <point x="216" y="294" type="curve" smooth="yes"/>
      <point x="220" y="345"/>
      <point x="255" y="375"/>
      <point x="308" y="375" type="curve" smooth="yes"/>
      <point x="361" y="375"/>
      <point x="396" y="345"/>
      <point x="400" y="294" type="curve" smooth="yes"/>
      <point x="402" y="274"/>
      <point x="402" y="246"/>
      <point x="400" y="226" type="curve" smooth="yes"/>
      <point x="396" y="175"/>
      <point x="361" y="145"/>
      <point x="308" y="145" type="curve" smooth="yes"/>
      <point x="255" y="145"/>
      <point x="220" y="175"/>
    </contour>
  </outline>
</glyph>
<glyph name="p" format="1">
  <advance width="634"/>
  <unicode hex="0070"/>
  <outline>
    <contour>
      <point x="372" y="-10" type="curve" smooth="yes"/>
      <point x="493" y="-10"/>
      <point x="590" y="63"/>
      <point x="596" y="220" type="curve" smooth="yes"/>
      <point x="597" y="240"/>
      <point x="597" y="281"/>
      <point x="596" y="301" type="curve" smooth="yes"/>
      <point x="590" y="458"/>
      <point x="492" y="530"/>
      <point x="372" y="530" type="curve" smooth="yes"/>
      <point x="284" y="530"/>
      <point x="257" y="498"/>
      <point x="233" y="470" type="curve"/>
      <point x="233" y="493" type="line" smooth="yes"/>
      <point x="233" y="508"/>
      <point x="221" y="520"/>
      <point x="206" y="520" type="curve" name="hr01" smooth="yes"/>
      <point x="85" y="520" type="line" smooth="yes"/>
      <point x="70" y="520"/>
      <point x="58" y="508"/>
      <point x="58" y="493" type="curve" smooth="yes"/>
      <point x="58" y="-163" type="line" smooth="yes"/>
      <point x="58" y="-178"/>
      <point x="70" y="-190"/>
      <point x="85" y="-190" type="curve" smooth="yes"/>
      <point x="211" y="-190" type="line" smooth="yes"/>
      <point x="226" y="-190"/>
      <point x="238" y="-178"/>
      <point x="238" y="-163" type="curve" smooth="yes"/>
      <point x="238" y="50" type="line"/>
      <point x="256" y="25"/>
      <point x="295" y="-10"/>
    </contour>
    <contour>
      <point x="417" y="232" type="curve" smooth="yes"/>
      <point x="413" y="185"/>
      <point x="389" y="145"/>
      <point x="327" y="145" type="curve" smooth="yes"/>
      <point x="268" y="145"/>
      <point x="243" y="186"/>
      <point x="238" y="225" type="curve" smooth="yes"/>
      <point x="235" y="245"/>
      <point x="235" y="275"/>
      <point x="238" y="295" type="curve" smooth="yes"/>
      <point x="244" y="334"/>
      <point x="268" y="375"/>
      <point x="327" y="375" type="curve" name="hr02" smooth="yes"/>
      <point x="389" y="375"/>
      <point x="413" y="335"/>
      <point x="417" y="288" type="curve" smooth="yes"/>
      <point x="419" y="268"/>
      <point x="419" y="252"/>
    </contour>
  </outline>
</glyph>
<glyph name="r" format="1">
  <advance width="459"/>
  <unicode hex="0072"/>
  <outline>
    <contour>
      <point x="361" y="520" type="line" name="hr00" smooth="yes"/>
      <point x="302" y="520"/>
      <point x="258" y="499"/>
      <point x="228" y="470" type="curve"/>
      <point x="228" y="493" type="line" smooth="yes"/>
      <point x="228" y="508"/>
      <point x="216" y="520"/>
      <point x="201" y="520" type="curve" smooth="yes"/>
      <point x="85" y="520" type="line" smooth="yes"/>
      <point x="70" y="520"/>
      <point x="58" y="508"/>
      <point x="58" y="493" type="curve" smooth="yes"/>
      <point x="58" y="27" type="line" smooth="yes"/>
      <point x="58" y="12"/>
      <point x="70" y="0"/>
      <point x="85" y="0" type="curve" smooth="yes"/>
      <point x="211" y="0" type="line" smooth="yes"/>
      <point x="226" y="0"/>
      <point x="238" y="12"/>
      <point x="238" y="27" type="curve" smooth="yes"/>
      <point x="238" y="273" type="line" smooth="yes"/>
      <point x="238" y="333"/>
      <point x="270" y="365"/>
      <point x="330" y="365" type="curve"/>
      <point x="421" y="365" type="line" smooth="yes"/>
      <point x="436" y="365"/>
      <point x="448" y="377"/>
      <point x="448" y="392" type="curve" smooth="yes"/>
      <point x="448" y="493" type="line" smooth="yes"/>
      <point x="448" y="508"/>
      <point x="436" y="520"/>
      <point x="421" y="520" type="curve" smooth="yes"/>
    </contour>
  </outline>
</glyph>
<glyph name="s" format="1">
  <advance width="562"/>
  <unicode hex="0073"/>
  <outline>
    <contour>
      <point x="352" y="156" type="curve" smooth="yes"/>
      <point x="352" y="136"/>
      <point x="318" y="125"/>
      <point x="278" y="125" type="curve" smooth="yes"/>
      <point x="198" y="125"/>
      <point x="210" y="160"/>
      <point x="181" y="160" type="curve" name="hr01" smooth="yes"/>
      <point x="57" y="160" type="line" smooth="yes"/>
      <point x="42" y="160"/>
      <point x="29" y="148"/>
      <point x="30" y="133" type="curve" smooth="yes"/>
      <point x="36" y="70"/>
      <point x="118" y="-10"/>
      <point x="278" y="-10" type="curve" smooth="yes"/>
      <point x="438" y="-10"/>
      <point x="532" y="64"/>
      <point x="532" y="154" type="curve" smooth="yes"/>
      <point x="532" y="234"/>
      <point x="479" y="302"/>
      <point x="358" y="322" type="curve" smooth="yes"/>
      <point x="240" y="342"/>
      <point x="220" y="337"/>
      <point x="220" y="367" type="curve" smooth="yes"/>
      <point x="220" y="387"/>
      <point x="244" y="395"/>
      <point x="274" y="395" type="curve" smooth="yes"/>
      <point x="344" y="395"/>
      <point x="342" y="363"/>
      <point x="371" y="363" type="curve" name="hr02" smooth="yes"/>
      <point x="490" y="363" type="line" smooth="yes"/>
      <point x="505" y="363"/>
      <point x="518" y="375"/>
      <point x="517" y="390" type="curve" smooth="yes"/>
      <point x="511" y="458"/>
      <point x="414" y="530"/>
      <point x="274" y="530" type="curve" smooth="yes"/>
      <point x="134" y="530"/>
      <point x="40" y="459"/>
      <point x="40" y="369" type="curve" smooth="yes"/>
      <point x="40" y="279"/>
      <point x="97" y="221"/>
      <point x="198" y="203" type="curve" smooth="yes"/>
      <point x="316" y="182"/>
      <point x="352" y="186"/>
    </contour>
  </outline>
</glyph>
<glyph name="t" format="1">
  <advance width="474"/>
  <unicode hex="0074"/>
  <outline>
    <contour>
      <point x="297" y="365" type="line" name="hr00"/>
      <point x="410" y="365" type="line" smooth="yes"/>
      <point x="425" y="365"/>
      <point x="437" y="377"/>
      <point x="437" y="392" type="curve" smooth="yes"/>
      <point x="437" y="493" type="line" smooth="yes"/>
      <point x="437" y="508"/>
      <point x="425" y="520"/>
      <point x="410" y="520" type="curve" smooth="yes"/>
      <point x="297" y="520" type="line"/>
      <point x="297" y="683" type="line" smooth="yes"/>
      <point x="297" y="698"/>
      <point x="285" y="710"/>
      <point x="270" y="710" type="curve" smooth="yes"/>
      <point x="144" y="710" type="line" smooth="yes"/>
      <point x="129" y="710"/>
      <point x="117" y="698"/>
      <point x="117" y="683" type="curve" smooth="yes"/>
      <point x="117" y="520" type="line"/>
      <point x="43" y="520" type="line" smooth="yes"/>
      <point x="28" y="520"/>
      <point x="16" y="508"/>
      <point x="16" y="493" type="curve" smooth="yes"/>
      <point x="16" y="392" type="line" smooth="yes"/>
      <point x="16" y="377"/>
      <point x="28" y="365"/>
      <point x="43" y="365" type="curve" smooth="yes"/>
      <point x="117" y="365" type="line"/>
      <point x="117" y="197" type="line" smooth="yes"/>
      <point x="117" y="74"/>
      <point x="200" y="0"/>
      <point x="325" y="0" type="curve" smooth="yes"/>
      <point x="420" y="0" type="line" smooth="yes"/>
      <point x="435" y="0"/>
      <point x="447" y="12"/>
      <point x="447" y="27" type="curve" smooth="yes"/>
      <point x="447" y="128" type="line" smooth="yes"/>
      <point x="447" y="143"/>
      <point x="435" y="155"/>
      <point x="420" y="155" type="curve" smooth="yes"/>
      <point x="340" y="155" type="line" smooth="yes"/>
      <point x="310" y="155"/>
      <point x="297" y="173"/>
      <point x="297" y="203" type="curve" smooth="yes"/>
    </contour>
  </outline>
</glyph>
<glyph name="v" format="1">
  <advance width="624"/>
  <unicode hex="0076"/>
  <outline>
    <contour>
      <point x="253" y="0" type="curve" name="hr00"/>
      <point x="371" y="0" type="line" smooth="yes"/>
      <point x="391" y="0"/>
      <point x="398" y="13"/>
      <point x="404" y="25" type="curve"/>
      <point x="606" y="489" type="line" smooth="yes"/>
      <point x="607" y="492"/>
      <point x="607" y="494"/>
      <point x="607" y="496" type="curve" smooth="yes"/>
      <point x="607" y="509"/>
      <point x="596" y="520"/>
      <point x="583" y="520" type="curve" smooth="yes"/>
      <point x="455" y="520" type="line" smooth="yes"/>
      <point x="435" y="520"/>
      <point x="427" y="507"/>
      <point x="422" y="496" type="curve" smooth="yes"/>
      <point x="312" y="235" type="line"/>
      <point x="202" y="496" type="line" smooth="yes"/>
      <point x="197" y="507"/>
      <point x="189" y="520"/>
      <point x="169" y="520" type="curve" smooth="yes"/>
      <point x="41" y="520" type="line" smooth="yes"/>
      <point x="28" y="520"/>
      <point x="17" y="509"/>
      <point x="17" y="496" type="curve" smooth="yes"/>
      <point x="17" y="494"/>
      <point x="17" y="492"/>
      <point x="18" y="489" type="curve" smooth="yes"/>
      <point x="220" y="25" type="line"/>
      <point x="226" y="13"/>
      <point x="233" y="0"/>
    </contour>
  </outline>
</glyph>
<glyph name="w" format="1">
  <advance width="866"/>
  <unicode hex="0077"/>
  <outline>
    <contour>
      <point x="386" y="520" type="line" name="hr00" smooth="yes"/>
      <point x="366" y="520"/>
      <point x="356" y="507"/>
      <point x="352" y="496" type="curve" smooth="yes"/>
      <point x="278" y="269" type="line"/>
      <point x="204" y="496" type="line" smooth="yes"/>
      <point x="200" y="507"/>
      <point x="190" y="520"/>
      <point x="170" y="520" type="curve" smooth="yes"/>
      <point x="46" y="520" type="line" smooth="yes"/>
      <point x="33" y="520"/>
      <point x="22" y="509"/>
      <point x="22" y="496" type="curve" smooth="yes"/>
      <point x="22" y="494"/>
      <point x="22" y="492"/>
      <point x="23" y="488" type="curve" smooth="yes"/>
      <point x="182" y="25" type="line" smooth="yes"/>
      <point x="186" y="13"/>
      <point x="195" y="0"/>
      <point x="215" y="0" type="curve" smooth="yes"/>
      <point x="329" y="0" type="line" smooth="yes"/>
      <point x="349" y="0"/>
      <point x="357" y="13"/>
      <point x="362" y="25" type="curve"/>
      <point x="433" y="235" type="line"/>
      <point x="504" y="25" type="line"/>
      <point x="509" y="13"/>
      <point x="517" y="0"/>
      <point x="537" y="0" type="curve" smooth="yes"/>
      <point x="651" y="0" type="line" smooth="yes"/>
      <point x="671" y="0"/>
      <point x="680" y="13"/>
      <point x="684" y="25" type="curve" smooth="yes"/>
      <point x="843" y="488" type="line" smooth="yes"/>
      <point x="844" y="492"/>
      <point x="844" y="494"/>
      <point x="844" y="496" type="curve" smooth="yes"/>
      <point x="844" y="509"/>
      <point x="833" y="520"/>
      <point x="820" y="520" type="curve" smooth="yes"/>
      <point x="696" y="520" type="line" smooth="yes"/>
      <point x="676" y="520"/>
      <point x="666" y="507"/>
      <point x="662" y="496" type="curve" smooth="yes"/>
      <point x="588" y="269" type="line"/>
      <point x="514" y="496" type="line" smooth="yes"/>
      <point x="510" y="507"/>
      <point x="500" y="520"/>
      <point x="480" y="520" type="curve" smooth="yes"/>
    </contour>
  </outline>
</glyph>
<glyph name="x" format="1">
  <advance width="616"/>
  <unicode hex="0078"/>
  <outline>
    <contour>
      <point x="593" y="483" type="line" name="hr00" smooth="yes"/>
      <point x="595" y="486"/>
      <point x="597" y="490"/>
      <point x="597" y="497" type="curve" smooth="yes"/>
      <point x="597" y="509"/>
      <point x="586" y="520"/>
      <point x="573" y="520" type="curve" smooth="yes"/>
      <point x="418" y="520" type="line" smooth="yes"/>
      <point x="401" y="520"/>
      <point x="391" y="507"/>
      <point x="386" y="501" type="curve" smooth="yes"/>
      <point x="309" y="402" type="line"/>
      <point x="232" y="501" type="line" smooth="yes"/>
      <point x="227" y="507"/>
      <point x="217" y="520"/>
      <point x="200" y="520" type="curve" smooth="yes"/>
      <point x="45" y="520" type="line" smooth="yes"/>
      <point x="32" y="520"/>
      <point x="21" y="509"/>
      <point x="21" y="497" type="curve" smooth="yes"/>
      <point x="21" y="490"/>
      <point x="23" y="486"/>
      <point x="25" y="483" type="curve" smooth="yes"/>
      <point x="197" y="264" type="line"/>
      <point x="20" y="37" type="line" smooth="yes"/>
      <point x="18" y="34"/>
      <point x="16" y="30"/>
      <point x="16" y="23" type="curve" smooth="yes"/>
      <point x="16" y="11"/>
      <point x="27" y="0"/>
      <point x="40" y="0" type="curve" smooth="yes"/>
      <point x="193" y="0" type="line" smooth="yes"/>
      <point x="210" y="0"/>
      <point x="220" y="13"/>
      <point x="225" y="19" type="curve" smooth="yes"/>
      <point x="307" y="124" type="line"/>
      <point x="390" y="19" type="line" smooth="yes"/>
      <point x="395" y="13"/>
      <point x="405" y="0"/>
      <point x="422" y="0" type="curve" smooth="yes"/>
      <point x="575" y="0" type="line" smooth="yes"/>
      <point x="588" y="0"/>
      <point x="599" y="11"/>
      <point x="599" y="23" type="curve" smooth="yes"/>
      <point x="599" y="30"/>
      <point x="597" y="34"/>
      <point x="595" y="37" type="curve" smooth="yes"/>
      <point x="420" y="260" type="line"/>
    </contour>
  </outline>
</glyph>
<glyph name="y" format="1">
  <advance width="626"/>
  <unicode hex="0079"/>
  <outline>
    <contour>
      <point x="608" y="489" type="line" name="hr00"/>
      <point x="609" y="492"/>
      <point x="609" y="494"/>
      <point x="609" y="496" type="curve" smooth="yes"/>
      <point x="609" y="509"/>
      <point x="598" y="520"/>
      <point x="585" y="520" type="curve"/>
      <point x="453" y="520" type="line"/>
      <point x="437" y="520"/>
      <point x="428" y="507"/>
      <point x="424" y="496" type="curve"/>
      <point x="314" y="236" type="line"/>
      <point x="203" y="496" type="line"/>
      <point x="199" y="507"/>
      <point x="190" y="520"/>
      <point x="174" y="520" type="curve"/>
      <point x="43" y="520" type="line"/>
      <point x="30" y="520"/>
      <point x="19" y="509"/>
      <point x="19" y="496" type="curve" smooth="yes"/>
      <point x="19" y="494"/>
      <point x="19" y="492"/>
      <point x="20" y="489" type="curve"/>
      <point x="222" y="20" type="line"/>
      <point x="146" y="-159" type="line"/>
      <point x="145" y="-162"/>
      <point x="145" y="-164"/>
      <point x="145" y="-166" type="curve" smooth="yes"/>
      <point x="145" y="-179"/>
      <point x="156" y="-190"/>
      <point x="169" y="-190" type="curve"/>
      <point x="300" y="-190" type="line"/>
      <point x="316" y="-190"/>
      <point x="325" y="-177"/>
      <point x="329" y="-166" type="curve"/>
    </contour>
  </outline>
</glyph>
<glyph name="z" format="1">
  <advance width="564"/>
  <unicode hex="007A"/>
  <outline>
    <contour>
      <point x="293" y="155" type="line" name="hr00"/>
      <point x="496" y="367" type="line" smooth="yes"/>
      <point x="504" y="376"/>
      <point x="510" y="384"/>
      <point x="510" y="396" type="curve" smooth="yes"/>
      <point x="510" y="493" type="line" smooth="yes"/>
      <point x="510" y="508"/>
      <point x="498" y="520"/>
      <point x="483" y="520" type="curve" smooth="yes"/>
      <point x="77" y="520" type="line" smooth="yes"/>
      <point x="62" y="520"/>
      <point x="50" y="508"/>
      <point x="50" y="493" type="curve" smooth="yes"/>
      <point x="50" y="392" type="line" smooth="yes"/>
      <point x="50" y="377"/>
      <point x="62" y="365"/>
      <point x="77" y="365" type="curve" smooth="yes"/>
      <point x="254" y="365" type="line"/>
      <point x="56" y="159" type="line" smooth="yes"/>
      <point x="48" y="150"/>
      <point x="40" y="140"/>
      <point x="40" y="124" type="curve" smooth="yes"/>
      <point x="40" y="27" type="line" smooth="yes"/>
      <point x="40" y="12"/>
      <point x="52" y="0"/>
      <point x="67" y="0" type="curve" smooth="yes"/>
      <point x="503" y="0" type="line" smooth="yes"/>
      <point x="518" y="0"/>
      <point x="530" y="12"/>
      <point x="530" y="27" type="curve" smooth="yes"/>
      <point x="530" y="128" type="line" smooth="yes"/>
      <point x="530" y="143"/>
      <point x="518" y="155"/>
      <point x="503" y="155" type="curve" smooth="yes"/>
    </contour>
  </outline>
</glyph>
<glyph name="braceleft" format="1">
  <advance width="451"/>
  <unicode hex="007B"/>
  <outline>
    <contour>
      <point x="424" y="-133" type="curve" name="hr00"/>
      <point x="424" y="-32" type="line" smooth="yes"/>
      <point x="424" y="-17"/>
      <point x="412" y="-5"/>
      <point x="397" y="-5" type="curve"/>
      <point x="324" y="2"/>
      <point x="282" y="30"/>
      <point x="282" y="130" type="curve" smooth="yes"/>
      <point x="282" y="237"/>
      <point x="231" y="284"/>
      <point x="195" y="308" type="curve"/>
      <point x="231" y="332"/>
      <point x="282" y="379"/>
      <point x="282" y="486" type="curve" smooth="yes"/>
      <point x="282" y="586"/>
      <point x="324" y="614"/>
      <point x="397" y="621" type="curve"/>
      <point x="412" y="621"/>
      <point x="424" y="633"/>
      <point x="424" y="648" type="curve" smooth="yes"/>
      <point x="424" y="749" type="line" smooth="yes"/>
      <point x="424" y="764"/>
      <point x="412" y="776"/>
      <point x="397" y="776" type="curve" smooth="yes"/>
      <point x="223" y="776"/>
      <point x="102" y="657"/>
      <point x="102" y="497" type="curve" smooth="yes"/>
      <point x="102" y="454"/>
      <point x="88" y="402"/>
      <point x="49" y="386" type="curve" smooth="yes"/>
      <point x="32" y="379" type="line" smooth="yes"/>
      <point x="12" y="370"/>
      <point x="3" y="358"/>
      <point x="3" y="342" type="curve" smooth="yes"/>
      <point x="3" y="274" type="line" smooth="yes"/>
      <point x="3" y="258"/>
      <point x="12" y="246"/>
      <point x="32" y="237" type="curve" smooth="yes"/>
      <point x="49" y="230" type="line" smooth="yes"/>
      <point x="88" y="214"/>
      <point x="102" y="162"/>
      <point x="102" y="119" type="curve" smooth="yes"/>
      <point x="102" y="-41"/>
      <point x="223" y="-160"/>
      <point x="397" y="-160" type="curve" smooth="yes"/>
      <point x="412" y="-160"/>
      <point x="424" y="-148"/>
    </contour>
  </outline>
</glyph>
<glyph name="bar" format="1">
  <advance width="302"/>
  <unicode hex="007C"/>
  <outline>
    <contour>
      <point x="241" y="869" type="line" name="hr00" smooth="yes"/>
      <point x="241" y="884"/>
      <point x="229" y="896"/>
      <point x="214" y="896" type="curve" smooth="yes"/>
      <point x="88" y="896" type="line" smooth="yes"/>
      <point x="73" y="896"/>
      <point x="61" y="884"/>
      <point x="61" y="869" type="curve" smooth="yes"/>
      <point x="61" y="-181" type="line" smooth="yes"/>
      <point x="61" y="-196"/>
      <point x="73" y="-208"/>
      <point x="88" y="-208" type="curve" smooth="yes"/>
      <point x="214" y="-208" type="line" smooth="yes"/>
      <point x="229" y="-208"/>
      <point x="241" y="-196"/>
      <point x="241" y="-181" type="curve" smooth="yes"/>
    </contour>
  </outline>
</glyph>
<glyph name="asciitilde" format="1">
  <advance width="562"/>
  <unicode hex="007E"/>
  <outline>
    <contour>
      <point x="172" y="399" type="curve" smooth="yes"/>
      <point x="104" y="399"/>
      <point x="62" y="363"/>
      <point x="62" y="319" type="curve" smooth="yes"/>
      <point x="62" y="246" type="line" smooth="yes"/>
      <point x="62" y="221"/>
      <point x="65" y="209"/>
      <point x="84" y="209" type="curve"/>
      <point x="93" y="210"/>
      <point x="99" y="214"/>
      <point x="104" y="218" type="curve" smooth="yes"/>
      <point x="114" y="227"/>
      <point x="140" y="244"/>
      <point x="171" y="244" type="curve" smooth="yes"/>
      <point x="264" y="244"/>
      <point x="293" y="202"/>
      <point x="392" y="202" type="curve" name="hr01" smooth="yes"/>
      <point x="460" y="202"/>
      <point x="502" y="238"/>
      <point x="502" y="282" type="curve" smooth="yes"/>
      <point x="502" y="355" type="line" smooth="yes"/>
      <point x="502" y="380"/>
      <point x="499" y="392"/>
      <point x="480" y="392" type="curve"/>
      <point x="471" y="391"/>
      <point x="465" y="387"/>
      <point x="460" y="383" type="curve" smooth="yes"/>
      <point x="450" y="374"/>
      <point x="424" y="357"/>
      <point x="393" y="357" type="curve" smooth="yes"/>
      <point x="300" y="357"/>
      <point x="271" y="399"/>
    </contour>
  </outline>
</glyph>
<glyph name="cent" format="1">
  <advance width="617"/>
  <unicode hex="00A2"/>
  <outline>
    <contour>
      <point x="224" y="295" type="curve" name="hr00" smooth="yes"/>
      <point x="228" y="343"/>
      <point x="262" y="375"/>
      <point x="315" y="375" type="curve" smooth="yes"/>
      <point x="359" y="375"/>
      <point x="379" y="362"/>
      <point x="394" y="339" type="curve" smooth="yes"/>
      <point x="401" y="328"/>
      <point x="408" y="319"/>
      <point x="423" y="319" type="curve"/>
      <point x="554" y="319" type="line"/>
      <point x="569" y="319"/>
      <point x="582" y="331"/>
      <point x="581" y="346" type="curve" smooth="yes"/>
      <point x="578" y="382"/>
      <point x="541" y="489"/>
      <point x="402" y="521" type="curve"/>
      <point x="402" y="583" type="line"/>
      <point x="402" y="598"/>
      <point x="390" y="610"/>
      <point x="375" y="610" type="curve"/>
      <point x="249" y="610" type="line"/>
      <point x="234" y="610"/>
      <point x="222" y="598"/>
      <point x="222" y="583" type="curve"/>
      <point x="222" y="517" type="line"/>
      <point x="120" y="488"/>
      <point x="48" y="410"/>
      <point x="44" y="300" type="curve" smooth="yes"/>
      <point x="43" y="280"/>
      <point x="43" y="240"/>
      <point x="44" y="220" type="curve" smooth="yes"/>
      <point x="48" y="110"/>
      <point x="120" y="31"/>
      <point x="222" y="2" type="curve"/>
      <point x="222" y="-73" type="line"/>
      <point x="222" y="-88"/>
      <point x="234" y="-100"/>
      <point x="249" y="-100" type="curve"/>
      <point x="375" y="-100" type="line"/>
      <point x="390" y="-100"/>
      <point x="402" y="-88"/>
      <point x="402" y="-73" type="curve"/>
      <point x="402" y="-1" type="line"/>
      <point x="541" y="31"/>
      <point x="578" y="137"/>
      <point x="581" y="174" type="curve" smooth="yes"/>
      <point x="582" y="189"/>
      <point x="569" y="201"/>
      <point x="554" y="201" type="curve"/>
      <point x="423" y="201" type="line"/>
      <point x="408" y="201"/>
      <point x="401" y="192"/>
      <point x="394" y="181" type="curve" smooth="yes"/>
      <point x="379" y="158"/>
      <point x="359" y="145"/>
      <point x="315" y="145" type="curve" smooth="yes"/>
      <point x="262" y="145"/>
      <point x="228" y="177"/>
      <point x="224" y="225" type="curve" smooth="yes"/>
      <point x="222" y="245"/>
      <point x="222" y="275"/>
    </contour>
  </outline>
</glyph>
<glyph name="sterling" format="1">
  <advance width="754"/>
  <unicode hex="00A3"/>
  <outline>
    <contour>
      <point x="118" y="434" type="curve"/>
      <point x="118" y="408" type="line"/>
      <point x="77" y="408" type="line" smooth="yes"/>
      <point x="62" y="408"/>
      <point x="50" y="396"/>
      <point x="50" y="381" type="curve" smooth="yes"/>
      <point x="50" y="285" type="line" smooth="yes"/>
      <point x="50" y="270"/>
      <point x="62" y="258"/>
      <point x="77" y="258" type="curve" smooth="yes"/>
      <point x="138" y="258" type="line"/>
      <point x="141" y="237"/>
      <point x="143" y="217"/>
      <point x="144" y="197" type="curve"/>
      <point x="72" y="158"/>
      <point x="38" y="83"/>
      <point x="35" y="22" type="curve" smooth="yes"/>
      <point x="34" y="10"/>
      <point x="45" y="0"/>
      <point x="57" y="0" type="curve" smooth="yes"/>
      <point x="183" y="0" type="line" smooth="yes"/>
      <point x="194" y="0"/>
      <point x="203" y="10"/>
      <point x="209" y="22" type="curve" smooth="yes"/>
      <point x="223" y="48"/>
      <point x="244" y="63"/>
      <point x="271" y="63" type="curve" smooth="yes"/>
      <point x="347" y="63"/>
      <point x="376" y="-11"/>
      <point x="505" y="-11" type="curve" name="hr01" smooth="yes"/>
      <point x="646" y="-11"/>
      <point x="718" y="104"/>
      <point x="721" y="191" type="curve" smooth="yes"/>
      <point x="721" y="203"/>
      <point x="711" y="213"/>
      <point x="699" y="213" type="curve" smooth="yes"/>
      <point x="573" y="213" type="line" smooth="yes"/>
      <point x="562" y="213"/>
      <point x="553" y="203"/>
      <point x="547" y="191" type="curve" smooth="yes"/>
      <point x="533" y="165"/>
      <point x="512" y="149"/>
      <point x="485" y="149" type="curve" name="hr02" smooth="yes"/>
      <point x="442" y="149"/>
      <point x="402" y="193"/>
      <point x="328" y="213" type="curve" name="hr03"/>
      <point x="327" y="228"/>
      <point x="325" y="243"/>
      <point x="323" y="258" type="curve"/>
      <point x="464" y="258" type="line" smooth="yes"/>
      <point x="479" y="258"/>
      <point x="491" y="270"/>
      <point x="491" y="285" type="curve" smooth="yes"/>
      <point x="491" y="381" type="line" smooth="yes"/>
      <point x="491" y="396"/>
      <point x="479" y="408"/>
      <point x="464" y="408" type="curve" smooth="yes"/>
      <point x="303" y="408" type="line"/>
      <point x="303" y="434" type="line" smooth="yes"/>
      <point x="303" y="495"/>
      <point x="337" y="550"/>
      <point x="401" y="550" type="curve" smooth="yes"/>
      <point x="468" y="550"/>
      <point x="487" y="519"/>
      <point x="503" y="477" type="curve" smooth="yes"/>
      <point x="511" y="455"/>
      <point x="515" y="448"/>
      <point x="537" y="448" type="curve" smooth="yes"/>
      <point x="668" y="448" type="line" smooth="yes"/>
      <point x="680" y="448"/>
      <point x="690" y="458"/>
      <point x="690" y="470" type="curve" smooth="yes"/>
      <point x="687" y="616"/>
      <point x="587" y="710"/>
      <point x="401" y="710" type="curve" smooth="yes"/>
      <point x="199" y="710"/>
      <point x="118" y="586"/>
    </contour>
  </outline>
</glyph>
<glyph name="currency" format="1">
  <advance width="626"/>
  <unicode hex="00A4"/>
  <outline>
    <contour>
      <point x="73" y="300" type="curve" name="hr00" smooth="yes"/>
      <point x="73" y="259"/>
      <point x="83" y="221"/>
      <point x="101" y="187" type="curve"/>
      <point x="56" y="142" type="line"/>
      <point x="46" y="132"/>
      <point x="46" y="115"/>
      <point x="56" y="104" type="curve"/>
      <point x="117" y="43" type="line"/>
      <point x="128" y="33"/>
      <point x="145" y="33"/>
      <point x="155" y="43" type="curve"/>
      <point x="200" y="88" type="line"/>
      <point x="234" y="70"/>
      <point x="272" y="60"/>
      <point x="313" y="60" type="curve" smooth="yes"/>
      <point x="353" y="60"/>
      <point x="392" y="70"/>
      <point x="425" y="88" type="curve"/>
      <point x="471" y="43" type="line"/>
      <point x="481" y="33"/>
      <point x="498" y="33"/>
      <point x="509" y="43" type="curve"/>
      <point x="570" y="104" type="line"/>
      <point x="580" y="115"/>
      <point x="580" y="132"/>
      <point x="570" y="142" type="curve"/>
      <point x="524" y="187" type="line"/>
      <point x="542" y="221"/>
      <point x="553" y="259"/>
      <point x="553" y="300" type="curve" smooth="yes"/>
      <point x="553" y="340"/>
      <point x="542" y="379"/>
      <point x="524" y="412" type="curve"/>
      <point x="570" y="458" type="line"/>
      <point x="580" y="468"/>
      <point x="580" y="485"/>
      <point x="570" y="496" type="curve"/>
      <point x="509" y="557" type="line"/>
      <point x="498" y="567"/>
      <point x="481" y="567"/>
      <point x="471" y="557" type="curve"/>
      <point x="425" y="511" type="line"/>
      <point x="392" y="529"/>
      <point x="353" y="540"/>
      <point x="313" y="540" type="curve" smooth="yes"/>
      <point x="272" y="540"/>
      <point x="234" y="529"/>
      <point x="200" y="511" type="curve"/>
      <point x="155" y="557" type="line"/>
      <point x="145" y="567"/>
      <point x="128" y="567"/>
      <point x="117" y="557" type="curve"/>
      <point x="56" y="496" type="line"/>
      <point x="46" y="485"/>
      <point x="46" y="468"/>
      <point x="56" y="458" type="curve"/>
      <point x="101" y="412" type="line"/>
      <point x="83" y="379"/>
      <point x="73" y="340"/>
    </contour>
    <contour>
      <point x="213" y="300" type="curve" smooth="yes"/>
      <point x="213" y="355"/>
      <point x="258" y="400"/>
      <point x="313" y="400" type="curve" smooth="yes"/>
      <point x="368" y="400"/>
      <point x="413" y="355"/>
      <point x="413" y="300" type="curve" smooth="yes"/>
      <point x="413" y="245"/>
      <point x="368" y="200"/>
      <point x="313" y="200" type="curve" smooth="yes"/>
      <point x="258" y="200"/>
      <point x="213" y="245"/>
    </contour>
  </outline>
</glyph>
<glyph name="brokenbar" format="1">
  <advance width="306"/>
  <unicode hex="00A6"/>
  <outline>
    <contour>
      <point x="243" y="802" type="line" name="hr00" smooth="yes"/>
      <point x="243" y="817"/>
      <point x="231" y="829"/>
      <point x="216" y="829" type="curve" smooth="yes"/>
      <point x="90" y="829" type="line" smooth="yes"/>
      <point x="75" y="829"/>
      <point x="63" y="817"/>
      <point x="63" y="802" type="curve" smooth="yes"/>
      <point x="63" y="502" type="line" smooth="yes"/>
      <point x="63" y="487"/>
      <point x="75" y="475"/>
      <point x="90" y="475" type="curve" smooth="yes"/>
      <point x="216" y="475" type="line" smooth="yes"/>
      <point x="231" y="475"/>
      <point x="243" y="487"/>
      <point x="243" y="502" type="curve" smooth="yes"/>
    </contour>
    <contour>
      <point x="243" y="327" type="line" smooth="yes"/>
      <point x="243" y="342"/>
      <point x="231" y="354"/>
      <point x="216" y="354" type="curve" smooth="yes"/>
      <point x="90" y="354" type="line" smooth="yes"/>
      <point x="75" y="354"/>
      <point x="63" y="342"/>
      <point x="63" y="327" type="curve" smooth="yes"/>
      <point x="63" y="27" type="line" smooth="yes"/>
      <point x="63" y="12"/>
      <point x="75" y="0"/>
      <point x="90" y="0" type="curve" smooth="yes"/>
      <point x="216" y="0" type="line" smooth="yes"/>
      <point x="231" y="0"/>
      <point x="243" y="12"/>
      <point x="243" y="27" type="curve" smooth="yes"/>
    </contour>
  </outline>
</glyph>
<glyph name="dieresis" format="1">
  <advance width="490"/>
  <unicode hex="00A8"/>
  <outline>
    <contour>
      <point x="210" y="723" type="line" name="hr00" smooth="yes"/>
      <point x="210" y="738"/>
      <point x="198" y="750"/>
      <point x="183" y="750" type="curve" smooth="yes"/>
      <point x="82" y="750" type="line" smooth="yes"/>
      <point x="67" y="750"/>
      <point x="55" y="738"/>
      <point x="55" y="723" type="curve" smooth="yes"/>
      <point x="55" y="622" type="line" smooth="yes"/>
      <point x="55" y="607"/>
      <point x="67" y="595"/>
      <point x="82" y="595" type="curve" smooth="yes"/>
      <point x="183" y="595" type="line" smooth="yes"/>
      <point x="198" y="595"/>
      <point x="210" y="607"/>
      <point x="210" y="622" type="curve" smooth="yes"/>
    </contour>
    <contour>
      <point x="435" y="723" type="line" smooth="yes"/>
      <point x="435" y="738"/>
      <point x="423" y="750"/>
      <point x="408" y="750" type="curve" smooth="yes"/>
      <point x="307" y="750" type="line" smooth="yes"/>
      <point x="292" y="750"/>
      <point x="280" y="738"/>
      <point x="280" y="723" type="curve" smooth="yes"/>
      <point x="280" y="622" type="line" smooth="yes"/>
      <point x="280" y="607"/>
      <point x="292" y="595"/>
      <point x="307" y="595" type="curve" smooth="yes"/>
      <point x="408" y="595" type="line" smooth="yes"/>
      <point x="423" y="595"/>
      <point x="435" y="607"/>
      <point x="435" y="622" type="curve" smooth="yes"/>
    </contour>
  </outline>
</glyph>
<glyph name="copyright" format="1">
  <advance width="806"/>
  <unicode hex="00A9"/>
  <outline>
    <contour>
      <point x="403" y="445" type="curve" smooth="yes"/>
      <point x="422" y="445"/>
      <point x="440" y="436"/>
      <point x="450" y="416" type="curve" smooth="yes"/>
      <point x="454" y="408"/>
      <point x="460" y="395"/>
      <point x="476" y="395" type="curve" name="hr01" smooth="yes"/>
      <point x="556" y="395" type="line" smooth="yes"/>
      <point x="569" y="395"/>
      <point x="578" y="404"/>
      <point x="578" y="417" type="curve" smooth="yes"/>
      <point x="578" y="464"/>
      <point x="513" y="544"/>
      <point x="403" y="544" type="curve" smooth="yes"/>
      <point x="299" y="544"/>
      <point x="232" y="480"/>
      <point x="228" y="385" type="curve" smooth="yes"/>
      <point x="227" y="365"/>
      <point x="227" y="337"/>
      <point x="228" y="317" type="curve" smooth="yes"/>
      <point x="231" y="222"/>
      <point x="299" y="158"/>
      <point x="403" y="158" type="curve" smooth="yes"/>
      <point x="513" y="158"/>
      <point x="578" y="238"/>
      <point x="578" y="285" type="curve" smooth="yes"/>
      <point x="578" y="298"/>
      <point x="569" y="307"/>
      <point x="556" y="307" type="curve" smooth="yes"/>
      <point x="476" y="307" type="line" smooth="yes"/>
      <point x="460" y="307"/>
      <point x="454" y="294"/>
      <point x="450" y="286" type="curve" smooth="yes"/>
      <point x="440" y="266"/>
      <point x="422" y="257"/>
      <point x="403" y="257" type="curve" name="hr02" smooth="yes"/>
      <point x="367" y="257"/>
      <point x="354" y="278"/>
      <point x="352" y="317" type="curve" smooth="yes"/>
      <point x="351" y="337"/>
      <point x="351" y="365"/>
      <point x="352" y="385" type="curve" smooth="yes"/>
      <point x="354" y="424"/>
      <point x="367" y="445"/>
    </contour>
    <contour>
      <point x="43" y="350" type="curve" smooth="yes"/>
      <point x="43" y="151"/>
      <point x="204" y="-10"/>
      <point x="403" y="-10" type="curve" smooth="yes"/>
      <point x="602" y="-10"/>
      <point x="763" y="151"/>
      <point x="763" y="350" type="curve" smooth="yes"/>
      <point x="763" y="549"/>
      <point x="602" y="710"/>
      <point x="403" y="710" type="curve" smooth="yes"/>
      <point x="204" y="710"/>
      <point x="43" y="549"/>
    </contour>
    <contour>
      <point x="138" y="350" type="curve" smooth="yes"/>
      <point x="138" y="499"/>
      <point x="254" y="620"/>
      <point x="403" y="620" type="curve" smooth="yes"/>
      <point x="552" y="620"/>
      <point x="668" y="499"/>
      <point x="668" y="350" type="curve" smooth="yes"/>
      <point x="668" y="201"/>
      <point x="552" y="80"/>
      <point x="403" y="80" type="curve" smooth="yes"/>
      <point x="254" y="80"/>
      <point x="138" y="201"/>
    </contour>
  </outline>
</glyph>
<glyph name="registered" format="1">
  <advance width="806"/>
  <unicode hex="00AE"/>
  <outline>
    <contour>
      <point x="348" y="168" type="line" name="hr00" smooth="yes"/>
      <point x="361" y="168"/>
      <point x="370" y="177"/>
      <point x="370" y="190" type="curve" smooth="yes"/>
      <point x="370" y="282" type="line"/>
      <point x="400" y="282" type="line"/>
      <point x="446" y="187" type="line" smooth="yes"/>
      <point x="452" y="175"/>
      <point x="461" y="168"/>
      <point x="475" y="168" type="curve" smooth="yes"/>
      <point x="553" y="168" type="line" smooth="yes"/>
      <point x="568" y="168"/>
      <point x="575" y="179"/>
      <point x="575" y="190" type="curve" smooth="yes"/>
      <point x="575" y="196"/>
      <point x="573" y="201"/>
      <point x="571" y="204" type="curve" smooth="yes"/>
      <point x="518" y="305" type="line"/>
      <point x="550" y="330"/>
      <point x="565" y="370"/>
      <point x="565" y="412" type="curve" smooth="yes"/>
      <point x="565" y="478"/>
      <point x="528" y="534"/>
      <point x="442" y="534" type="curve" smooth="yes"/>
      <point x="273" y="534" type="line" smooth="yes"/>
      <point x="260" y="534"/>
      <point x="251" y="525"/>
      <point x="251" y="512" type="curve" smooth="yes"/>
      <point x="251" y="190" type="line" smooth="yes"/>
      <point x="251" y="177"/>
      <point x="260" y="168"/>
      <point x="273" y="168" type="curve" smooth="yes"/>
    </contour>
    <contour>
      <point x="370" y="445" type="line"/>
      <point x="407" y="445" type="line" smooth="yes"/>
      <point x="434" y="445"/>
      <point x="446" y="430"/>
      <point x="446" y="410" type="curve" smooth="yes"/>
      <point x="446" y="390"/>
      <point x="434" y="376"/>
      <point x="407" y="376" type="curve" smooth="yes"/>
      <point x="370" y="376" type="line"/>
    </contour>
    <contour>
      <point x="43" y="350" type="curve" smooth="yes"/>
      <point x="43" y="151"/>
      <point x="204" y="-10"/>
      <point x="403" y="-10" type="curve" smooth="yes"/>
      <point x="602" y="-10"/>
      <point x="763" y="151"/>
      <point x="763" y="350" type="curve" smooth="yes"/>
      <point x="763" y="549"/>
      <point x="602" y="710"/>
      <point x="403" y="710" type="curve" smooth="yes"/>
      <point x="204" y="710"/>
      <point x="43" y="549"/>
    </contour>
    <contour>
      <point x="138" y="350" type="curve" smooth="yes"/>
      <point x="138" y="499"/>
      <point x="254" y="620"/>
      <point x="403" y="620" type="curve" smooth="yes"/>
      <point x="552" y="620"/>
      <point x="668" y="499"/>
      <point x="668" y="350" type="curve" smooth="yes"/>
      <point x="668" y="201"/>
      <point x="552" y="80"/>
      <point x="403" y="80" type="curve" smooth="yes"/>
      <point x="254" y="80"/>
      <point x="138" y="201"/>
    </contour>
  </outline>
</glyph>
<glyph name="degree" format="1">
  <advance width="422"/>
  <unicode hex="00B0"/>
  <outline>
    <contour>
      <point x="135" y="534" type="curve" name="hr00" smooth="yes"/>
      <point x="135" y="579"/>
      <point x="166" y="610"/>
      <point x="211" y="610" type="curve" smooth="yes"/>
      <point x="256" y="610"/>
      <point x="287" y="579"/>
      <point x="287" y="534" type="curve" smooth="yes"/>
      <point x="287" y="489"/>
      <point x="256" y="458"/>
      <point x="211" y="458" type="curve" smooth="yes"/>
      <point x="166" y="458"/>
      <point x="135" y="489"/>
    </contour>
    <contour>
      <point x="30" y="534" type="curve" smooth="yes"/>
      <point x="30" y="434"/>
      <point x="111" y="358"/>
      <point x="211" y="358" type="curve" smooth="yes"/>
      <point x="311" y="358"/>
      <point x="392" y="434"/>
      <point x="392" y="534" type="curve" smooth="yes"/>
      <point x="392" y="634"/>
      <point x="311" y="710"/>
      <point x="211" y="710" type="curve" smooth="yes"/>
      <point x="111" y="710"/>
      <point x="30" y="634"/>
    </contour>
  </outline>
</glyph>
<glyph name="plusminus" format="1">
  <advance width="575"/>
  <unicode hex="00B1"/>
  <outline>
    <contour>
      <point x="482" y="0" type="line" name="hr00" smooth="yes"/>
      <point x="497" y="0"/>
      <point x="509" y="12"/>
      <point x="509" y="27" type="curve" smooth="yes"/>
      <point x="509" y="128" type="line" smooth="yes"/>
      <point x="509" y="143"/>
      <point x="497" y="155"/>
      <point x="482" y="155" type="curve" smooth="yes"/>
      <point x="93" y="155" type="line" smooth="yes"/>
      <point x="78" y="155"/>
      <point x="66" y="143"/>
      <point x="66" y="128" type="curve" smooth="yes"/>
      <point x="66" y="27" type="line" smooth="yes"/>
      <point x="66" y="12"/>
      <point x="78" y="0"/>
      <point x="93" y="0" type="curve" smooth="yes"/>
    </contour>
    <contour>
      <point x="502" y="356" type="line" smooth="yes"/>
      <point x="517" y="356"/>
      <point x="529" y="368"/>
      <point x="529" y="383" type="curve" smooth="yes"/>
      <point x="529" y="484" type="line" smooth="yes"/>
      <point x="529" y="499"/>
      <point x="517" y="511"/>
      <point x="502" y="511" type="curve" smooth="yes"/>
      <point x="377" y="511" type="line"/>
      <point x="377" y="643" type="line" smooth="yes"/>
      <point x="377" y="658"/>
      <point x="365" y="670"/>
      <point x="350" y="670" type="curve" smooth="yes"/>
      <point x="227" y="670" type="line" smooth="yes"/>
      <point x="212" y="670"/>
      <point x="200" y="658"/>
      <point x="200" y="643" type="curve" smooth="yes"/>
      <point x="200" y="511" type="line"/>
      <point x="73" y="511" type="line" smooth="yes"/>
      <point x="58" y="511"/>
      <point x="46" y="499"/>
      <point x="46" y="484" type="curve" smooth="yes"/>
      <point x="46" y="383" type="line" smooth="yes"/>
      <point x="46" y="368"/>
      <point x="58" y="356"/>
      <point x="73" y="356" type="curve" smooth="yes"/>
      <point x="200" y="356" type="line"/>
      <point x="200" y="218" type="line" smooth="yes"/>
      <point x="200" y="203"/>
      <point x="212" y="191"/>
      <point x="227" y="191" type="curve" smooth="yes"/>
      <point x="350" y="191" type="line" smooth="yes"/>
      <point x="365" y="191"/>
      <point x="377" y="203"/>
      <point x="377" y="218" type="curve" smooth="yes"/>
      <point x="377" y="356" type="line"/>
    </contour>
  </outline>
</glyph>
<glyph name="acute" format="1">
  <advance width="396"/>
  <unicode hex="00B4"/>
  <outline>
    <contour>
      <point x="60" y="624" type="line" name="hr00" smooth="yes"/>
      <point x="57" y="621"/>
      <point x="55" y="616"/>
      <point x="55" y="611" type="curve" smooth="yes"/>
      <point x="55" y="601"/>
      <point x="61" y="595"/>
      <point x="71" y="595" type="curve" smooth="yes"/>
      <point x="159" y="595" type="line" smooth="yes"/>
      <point x="180" y="595"/>
      <point x="190" y="603"/>
      <point x="201" y="612" type="curve" smooth="yes"/>
      <point x="336" y="723" type="line" smooth="yes"/>
      <point x="339" y="726"/>
      <point x="341" y="730"/>
      <point x="341" y="735" type="curve" smooth="yes"/>
      <point x="341" y="747"/>
      <point x="334" y="755"/>
      <point x="322" y="755" type="curve" smooth="yes"/>
      <point x="189" y="755" type="line" smooth="yes"/>
      <point x="174" y="755"/>
      <point x="167" y="753"/>
      <point x="152" y="736" type="curve" smooth="yes"/>
    </contour>
  </outline>
</glyph>
<glyph name="periodcentered" format="1">
  <advance width="336"/>
  <unicode hex="00B7"/>
  <outline>
    <contour>
      <point x="38" y="300" type="curve" name="hr00" smooth="yes"/>
      <point x="38" y="228"/>
      <point x="96" y="170"/>
      <point x="168" y="170" type="curve" smooth="yes"/>
      <point x="240" y="170"/>
      <point x="298" y="228"/>
      <point x="298" y="300" type="curve" smooth="yes"/>
      <point x="298" y="372"/>
      <point x="240" y="430"/>
      <point x="168" y="430" type="curve" smooth="yes"/>
      <point x="96" y="430"/>
      <point x="38" y="372"/>
    </contour>
  </outline>
</glyph>
<glyph name="cedilla" format="1">
  <advance width="292"/>
  <unicode hex="00B8"/>
  <outline>
    <contour>
      <point x="102" y="27" type="line"/>
      <point x="64" y="-52" type="line" smooth="yes"/>
      <point x="55" y="-71"/>
      <point x="58" y="-75"/>
      <point x="66" y="-85" type="curve" smooth="yes"/>
      <point x="84" y="-106" type="line"/>
      <point x="97" y="-119"/>
      <point x="120" y="-105"/>
      <point x="138" y="-105" type="curve" smooth="yes"/>
      <point x="158" y="-105"/>
      <point x="171" y="-113"/>
      <point x="171" y="-132" type="curve" smooth="yes"/>
      <point x="171" y="-152"/>
      <point x="157" y="-159"/>
      <point x="138" y="-159" type="curve" smooth="yes"/>
      <point x="103" y="-159"/>
      <point x="101" y="-133"/>
      <point x="79" y="-153" type="curve" smooth="yes"/>
      <point x="61" y="-169" type="line" smooth="yes"/>
      <point x="38" y="-189"/>
      <point x="95" y="-220"/>
      <point x="138" y="-220" type="curve" smooth="yes"/>
      <point x="198" y="-220"/>
      <point x="237" y="-180"/>
      <point x="237" y="-132" type="curve" smooth="yes"/>
      <point x="237" y="-84"/>
      <point x="212" y="-44"/>
      <point x="161" y="-44" type="curve" smooth="yes"/>
      <point x="146" y="-44"/>
      <point x="132" y="-49"/>
      <point x="124" y="-54" type="curve"/>
      <point x="163" y="27" type="line" name="hr01"/>
    </contour>
  </outline>
</glyph>
<glyph name="guillemotright" format="1">
  <advance width="626"/>
  <unicode hex="00BB"/>
  <outline>
    <contour>
      <point x="313" y="362" type="line" name="hr00" smooth="yes"/>
      <point x="313" y="374"/>
      <point x="307" y="383"/>
      <point x="299" y="390" type="curve" smooth="yes"/>
      <point x="92" y="591" type="line" smooth="yes"/>
      <point x="86" y="596"/>
      <point x="79" y="596"/>
      <point x="78" y="596" type="curve" smooth="yes"/>
      <point x="66" y="596"/>
      <point x="56" y="586"/>
      <point x="56" y="574" type="curve" smooth="yes"/>
      <point x="56" y="461" type="line" smooth="yes"/>
      <point x="56" y="438"/>
      <point x="61" y="429"/>
      <point x="74" y="416" type="curve" smooth="yes"/>
      <point x="164" y="329" type="line"/>
      <point x="74" y="242" type="line" smooth="yes"/>
      <point x="61" y="229"/>
      <point x="56" y="220"/>
      <point x="56" y="197" type="curve" smooth="yes"/>
      <point x="56" y="84" type="line" smooth="yes"/>
      <point x="56" y="72"/>
      <point x="66" y="62"/>
      <point x="78" y="62" type="curve" smooth="yes"/>
      <point x="79" y="62"/>
      <point x="86" y="62"/>
      <point x="92" y="67" type="curve" smooth="yes"/>
      <point x="299" y="268" type="line" smooth="yes"/>
      <point x="307" y="275"/>
      <point x="313" y="284"/>
      <point x="313" y="296" type="curve" smooth="yes"/>
    </contour>
    <contour>
      <point x="593" y="362" type="line" smooth="yes"/>
      <point x="593" y="374"/>
      <point x="587" y="383"/>
      <point x="579" y="390" type="curve" smooth="yes"/>
      <point x="372" y="591" type="line" smooth="yes"/>
      <point x="366" y="596"/>
      <point x="359" y="596"/>
      <point x="358" y="596" type="curve" smooth="yes"/>
      <point x="346" y="596"/>
      <point x="336" y="586"/>
      <point x="336" y="574" type="curve" smooth="yes"/>
      <point x="336" y="461" type="line" smooth="yes"/>
      <point x="336" y="438"/>
      <point x="341" y="429"/>
      <point x="354" y="416" type="curve" smooth="yes"/>
      <point x="444" y="329" type="line"/>
      <point x="354" y="242" type="line" smooth="yes"/>
      <point x="341" y="229"/>
      <point x="336" y="220"/>
      <point x="336" y="197" type="curve" smooth="yes"/>
      <point x="336" y="84" type="line" smooth="yes"/>
      <point x="336" y="72"/>
      <point x="346" y="62"/>
      <point x="358" y="62" type="curve" smooth="yes"/>
      <point x="359" y="62"/>
      <point x="366" y="62"/>
      <point x="372" y="67" type="curve" smooth="yes"/>
      <point x="579" y="268" type="line" smooth="yes"/>
      <point x="587" y="275"/>
      <point x="593" y="284"/>
      <point x="593" y="296" type="curve" smooth="yes"/>
    </contour>
  </outline>
</glyph>
<glyph name="AE" format="1">
  <advance width="1014"/>
  <unicode hex="00C6"/>
  <outline>
    <contour>
      <point x="331" y="700" type="line" smooth="yes"/>
      <point x="304" y="700"/>
      <point x="294" y="681"/>
      <point x="286" y="667" type="curve"/>
      <point x="5" y="39" type="line"/>
      <point x="2" y="34"/>
      <point x="1" y="31"/>
      <point x="1" y="27" type="curve" smooth="yes"/>
      <point x="1" y="12"/>
      <point x="13" y="0"/>
      <point x="28" y="0" type="curve" smooth="yes"/>
      <point x="156" y="0" type="line" smooth="yes"/>
      <point x="178" y="0"/>
      <point x="189" y="15"/>
      <point x="195" y="25" type="curve"/>
      <point x="232" y="108" type="line" name="hr01"/>
      <point x="441" y="108" type="line"/>
      <point x="441" y="27" type="line" smooth="yes"/>
      <point x="441" y="12"/>
      <point x="453" y="0"/>
      <point x="468" y="0" type="curve" name="hr02" smooth="yes"/>
      <point x="942" y="0" type="line" smooth="yes"/>
      <point x="957" y="0"/>
      <point x="969" y="12"/>
      <point x="969" y="27" type="curve" smooth="yes"/>
      <point x="969" y="133" type="line" smooth="yes"/>
      <point x="969" y="148"/>
      <point x="957" y="160"/>
      <point x="942" y="160" type="curve" smooth="yes"/>
      <point x="626" y="160" type="line"/>
      <point x="626" y="272" type="line"/>
      <point x="912" y="272" type="line" smooth="yes"/>
      <point x="927" y="272"/>
      <point x="939" y="284"/>
      <point x="939" y="299" type="curve" smooth="yes"/>
      <point x="939" y="405" type="line" smooth="yes"/>
      <point x="939" y="420"/>
      <point x="927" y="432"/>
      <point x="912" y="432" type="curve" smooth="yes"/>
      <point x="626" y="432" type="line"/>
      <point x="626" y="540" type="line"/>
      <point x="934" y="540" type="line" smooth="yes"/>
      <point x="949" y="540"/>
      <point x="961" y="552"/>
      <point x="961" y="567" type="curve" smooth="yes"/>
      <point x="961" y="673" type="line" smooth="yes"/>
      <point x="961" y="688"/>
      <point x="949" y="700"/>
      <point x="934" y="700" type="curve" smooth="yes"/>
    </contour>
    <contour>
      <point x="424" y="540" type="line"/>
      <point x="441" y="540" type="line"/>
      <point x="441" y="263" type="line" name="hr03"/>
      <point x="301" y="263" type="line"/>
    </contour>
  </outline>
</glyph>
<glyph name="Eth" format="1">
  <advance width="755"/>
  <unicode hex="00D0"/>
  <outline>
    <contour>
      <point x="394" y="700" type="curve" name="hr00"/>
      <point x="129" y="700" type="line"/>
      <point x="114" y="700"/>
      <point x="102" y="688"/>
      <point x="102" y="673" type="curve"/>
      <point x="102" y="424" type="line"/>
      <point x="49" y="424" type="line"/>
      <point x="34" y="424"/>
      <point x="22" y="412"/>
      <point x="22" y="397" type="curve"/>
      <point x="22" y="311" type="line"/>
      <point x="22" y="296"/>
      <point x="34" y="284"/>
      <point x="49" y="284" type="curve"/>
      <point x="102" y="284" type="line"/>
      <point x="102" y="27" type="line"/>
      <point x="102" y="12"/>
      <point x="114" y="0"/>
      <point x="129" y="0" type="curve"/>
      <point x="399" y="0" type="line"/>
      <point x="583" y="0"/>
      <point x="703" y="115"/>
      <point x="710" y="279" type="curve" smooth="yes"/>
      <point x="712" y="333"/>
      <point x="712" y="364"/>
      <point x="710" y="421" type="curve" smooth="yes"/>
      <point x="703" y="585"/>
      <point x="578" y="700"/>
    </contour>
    <contour>
      <point x="525" y="425" type="curve" smooth="yes"/>
      <point x="527" y="370"/>
      <point x="527" y="332"/>
      <point x="525" y="275" type="curve" smooth="yes"/>
      <point x="522" y="199"/>
      <point x="479" y="160"/>
      <point x="394" y="160" type="curve"/>
      <point x="287" y="160" type="line"/>
      <point x="287" y="284" type="line"/>
      <point x="362" y="284" type="line"/>
      <point x="377" y="284"/>
      <point x="389" y="296"/>
      <point x="389" y="311" type="curve"/>
      <point x="389" y="397" type="line"/>
      <point x="389" y="412"/>
      <point x="377" y="424"/>
      <point x="362" y="424" type="curve"/>
      <point x="287" y="424" type="line"/>
      <point x="287" y="540" type="line"/>
      <point x="389" y="540" type="line"/>
      <point x="474" y="540"/>
      <point x="521" y="501"/>
    </contour>
  </outline>
</glyph>
<glyph name="multiply" format="1">
  <advance width="622"/>
  <unicode hex="00D7"/>
  <outline>
    <contour>
      <point x="55" y="203" type="line"/>
      <point x="44" y="192"/>
      <point x="44" y="176"/>
      <point x="55" y="165" type="curve"/>
      <point x="144" y="76" type="line"/>
      <point x="154" y="65"/>
      <point x="171" y="65"/>
      <point x="182" y="76" type="curve"/>
      <point x="311" y="205" type="line"/>
      <point x="440" y="77" type="line"/>
      <point x="451" y="66"/>
      <point x="467" y="66"/>
      <point x="478" y="77" type="curve"/>
      <point x="567" y="166" type="line"/>
      <point x="578" y="176"/>
      <point x="578" y="193"/>
      <point x="567" y="204" type="curve"/>
      <point x="438" y="332" type="line"/>
      <point x="567" y="461" type="line"/>
      <point x="578" y="472"/>
      <point x="578" y="489"/>
      <point x="567" y="499" type="curve"/>
      <point x="478" y="588" type="line"/>
      <point x="467" y="599"/>
      <point x="451" y="599"/>
      <point x="440" y="588" type="curve"/>
      <point x="311" y="459" type="line"/>
      <point x="182" y="589" type="line"/>
      <point x="171" y="600"/>
      <point x="154" y="600"/>
      <point x="144" y="589" type="curve"/>
      <point x="55" y="500" type="line"/>
      <point x="44" y="489"/>
      <point x="44" y="473"/>
      <point x="55" y="462" type="curve"/>
      <point x="184" y="332" type="line"/>
    </contour>
  </outline>
</glyph>
<glyph name="Oslash" format="1">
  <advance width="756"/>
  <unicode hex="00D8"/>
  <outline>
    <contour>
      <point x="66" y="439" type="curve" name="hr00" smooth="yes"/>
      <point x="63" y="390"/>
      <point x="62" y="334"/>
      <point x="64" y="285" type="curve"/>
      <point x="36" y="274" type="line"/>
      <point x="20" y="268"/>
      <point x="14" y="259"/>
      <point x="14" y="241" type="curve"/>
      <point x="14" y="183" type="line"/>
      <point x="14" y="171"/>
      <point x="23" y="162"/>
      <point x="35" y="162" type="curve" smooth="yes"/>
      <point x="37" y="162"/>
      <point x="41" y="163"/>
      <point x="46" y="165" type="curve"/>
      <point x="81" y="178" type="line"/>
      <point x="118" y="69"/>
      <point x="219" y="-10"/>
      <point x="378" y="-10" type="curve" smooth="yes"/>
      <point x="574" y="-10"/>
      <point x="682" y="111"/>
      <point x="690" y="261" type="curve" smooth="yes"/>
      <point x="692" y="307"/>
      <point x="693" y="362"/>
      <point x="691" y="413" type="curve"/>
      <point x="720" y="424" type="line"/>
      <point x="736" y="430"/>
      <point x="742" y="439"/>
      <point x="742" y="457" type="curve"/>
      <point x="742" y="515" type="line"/>
      <point x="742" y="527"/>
      <point x="733" y="536"/>
      <point x="721" y="536" type="curve" smooth="yes"/>
      <point x="719" y="536"/>
      <point x="715" y="535"/>
      <point x="710" y="533" type="curve"/>
      <point x="675" y="519" type="line"/>
      <point x="638" y="630"/>
      <point x="537" y="710"/>
      <point x="378" y="710" type="curve" smooth="yes"/>
      <point x="182" y="710"/>
      <point x="74" y="589"/>
    </contour>
    <contour>
      <point x="251" y="434" type="curve" smooth="yes"/>
      <point x="257" y="500"/>
      <point x="295" y="550"/>
      <point x="378" y="550" type="curve" smooth="yes"/>
      <point x="453" y="550"/>
      <point x="491" y="509"/>
      <point x="502" y="453" type="curve"/>
      <point x="248" y="355" type="line"/>
      <point x="248" y="384"/>
      <point x="249" y="412"/>
    </contour>
    <contour>
      <point x="505" y="266" type="curve" smooth="yes"/>
      <point x="499" y="200"/>
      <point x="461" y="150"/>
      <point x="378" y="150" type="curve" smooth="yes"/>
      <point x="304" y="150"/>
      <point x="266" y="189"/>
      <point x="254" y="245" type="curve"/>
      <point x="508" y="342" type="line"/>
      <point x="508" y="315"/>
      <point x="507" y="287"/>
    </contour>
  </outline>
</glyph>
<glyph name="Thorn" format="1">
  <advance width="688"/>
  <unicode hex="00DE"/>
  <outline>
    <contour>
      <point x="255" y="673" type="line" name="hr00"/>
      <point x="255" y="688"/>
      <point x="243" y="700"/>
      <point x="228" y="700" type="curve"/>
      <point x="97" y="700" type="line"/>
      <point x="82" y="700"/>
      <point x="70" y="688"/>
      <point x="70" y="673" type="curve"/>
      <point x="70" y="27" type="line"/>
      <point x="70" y="12"/>
      <point x="82" y="0"/>
      <point x="97" y="0" type="curve"/>
      <point x="228" y="0" type="line"/>
      <point x="243" y="0"/>
      <point x="255" y="12"/>
      <point x="255" y="27" type="curve"/>
      <point x="255" y="116" type="line"/>
      <point x="383" y="116" type="line"/>
      <point x="553" y="116"/>
      <point x="660" y="195"/>
      <point x="660" y="351" type="curve" smooth="yes"/>
      <point x="660" y="507"/>
      <point x="553" y="585"/>
      <point x="383" y="585" type="curve"/>
      <point x="255" y="585" type="line"/>
    </contour>
    <contour>
      <point x="255" y="430" type="line"/>
      <point x="378" y="430" type="line"/>
      <point x="434" y="430"/>
      <point x="475" y="406"/>
      <point x="475" y="351" type="curve" smooth="yes"/>
      <point x="475" y="296"/>
      <point x="434" y="272"/>
      <point x="378" y="272" type="curve"/>
      <point x="255" y="272" type="line"/>
    </contour>
  </outline>
</glyph>
<glyph name="divide" format="1">
  <advance width="527"/>
  <unicode hex="00F7"/>
  <outline>
    <contour>
      <point x="201" y="586" type="line" name="hr00" smooth="yes"/>
      <point x="186" y="586"/>
      <point x="174" y="574"/>
      <point x="174" y="559" type="curve" smooth="yes"/>
      <point x="174" y="445" type="line" smooth="yes"/>
      <point x="174" y="430"/>
      <point x="186" y="418"/>
      <point x="201" y="418" type="curve" smooth="yes"/>
      <point x="325" y="418" type="line" smooth="yes"/>
      <point x="340" y="418"/>
      <point x="352" y="430"/>
      <point x="352" y="445" type="curve" smooth="yes"/>
      <point x="352" y="559" type="line" smooth="yes"/>
      <point x="352" y="574"/>
      <point x="340" y="586"/>
      <point x="325" y="586" type="curve" smooth="yes"/>
    </contour>
    <contour>
      <point x="201" y="182" type="line" smooth="yes"/>
      <point x="186" y="182"/>
      <point x="174" y="170"/>
      <point x="174" y="155" type="curve" smooth="yes"/>
      <point x="174" y="41" type="line" smooth="yes"/>
      <point x="174" y="26"/>
      <point x="186" y="14"/>
      <point x="201" y="14" type="curve" smooth="yes"/>
      <point x="325" y="14" type="line" smooth="yes"/>
      <point x="340" y="14"/>
      <point x="352" y="26"/>
      <point x="352" y="41" type="curve" smooth="yes"/>
      <point x="352" y="155" type="line" smooth="yes"/>
      <point x="352" y="170"/>
      <point x="340" y="182"/>
      <point x="325" y="182" type="curve" smooth="yes"/>
    </contour>
    <contour>
      <point x="461" y="223" type="line" smooth="yes"/>
      <point x="476" y="223"/>
      <point x="488" y="235"/>
      <point x="488" y="250" type="curve" smooth="yes"/>
      <point x="488" y="351" type="line" smooth="yes"/>
      <point x="488" y="366"/>
      <point x="476" y="378"/>
      <point x="461" y="378" type="curve" smooth="yes"/>
      <point x="66" y="378" type="line" smooth="yes"/>
      <point x="51" y="378"/>
      <point x="39" y="366"/>
      <point x="39" y="351" type="curve" smooth="yes"/>
      <point x="39" y="250" type="line" smooth="yes"/>
      <point x="39" y="235"/>
      <point x="51" y="223"/>
      <point x="66" y="223" type="curve" smooth="yes"/>
    </contour>
  </outline>
</glyph>
<glyph name="oslash" format="1">
  <advance width="654"/>
  <unicode hex="00F8"/>
  <outline>
    <contour>
      <point x="31" y="203" type="line" name="hr00" smooth="yes"/>
      <point x="15" y="197"/>
      <point x="9" y="188"/>
      <point x="9" y="170" type="curve" smooth="yes"/>
      <point x="9" y="112" type="line" smooth="yes"/>
      <point x="9" y="100"/>
      <point x="18" y="91"/>
      <point x="30" y="91" type="curve" smooth="yes"/>
      <point x="32" y="91"/>
      <point x="36" y="92"/>
      <point x="41" y="94" type="curve" smooth="yes"/>
      <point x="87" y="112" type="line"/>
      <point x="130" y="39"/>
      <point x="214" y="-10"/>
      <point x="327" y="-10" type="curve" smooth="yes"/>
      <point x="490" y="-10"/>
      <point x="593" y="94"/>
      <point x="599" y="221" type="curve" smooth="yes"/>
      <point x="600" y="241"/>
      <point x="600" y="278"/>
      <point x="599" y="298" type="curve" smooth="yes"/>
      <point x="599" y="301"/>
      <point x="599" y="305"/>
      <point x="598" y="308" type="curve"/>
      <point x="623" y="318" type="line" smooth="yes"/>
      <point x="639" y="324"/>
      <point x="645" y="333"/>
      <point x="645" y="351" type="curve" smooth="yes"/>
      <point x="645" y="409" type="line" smooth="yes"/>
      <point x="645" y="421"/>
      <point x="636" y="430"/>
      <point x="624" y="430" type="curve" smooth="yes"/>
      <point x="622" y="430"/>
      <point x="618" y="429"/>
      <point x="613" y="427" type="curve" smooth="yes"/>
      <point x="566" y="409" type="line"/>
      <point x="523" y="481"/>
      <point x="438" y="530"/>
      <point x="327" y="530" type="curve" smooth="yes"/>
      <point x="164" y="530"/>
      <point x="59" y="425"/>
      <point x="55" y="298" type="curve" smooth="yes"/>
      <point x="54" y="278"/>
      <point x="54" y="241"/>
      <point x="55" y="221" type="curve" smooth="yes"/>
      <point x="55" y="212" type="line"/>
    </contour>
    <contour>
      <point x="234" y="281" type="line"/>
      <point x="235" y="344"/>
      <point x="274" y="375"/>
      <point x="327" y="375" type="curve" smooth="yes"/>
      <point x="358" y="375"/>
      <point x="383" y="364"/>
      <point x="399" y="345" type="curve"/>
    </contour>
    <contour>
      <point x="420" y="240" type="line"/>
      <point x="420" y="176"/>
      <point x="380" y="145"/>
      <point x="327" y="145" type="curve" smooth="yes"/>
      <point x="295" y="145"/>
      <point x="269" y="156"/>
      <point x="253" y="176" type="curve"/>
    </contour>
  </outline>
</glyph>
<glyph name="Aogonek" format="1">
  <advance width="718"/>
  <unicode hex="0104"/>
  <outline>
    <contour>
      <point x="440" y="700" type="curve"/>
      <point x="278" y="700" type="line"/>
      <point x="251" y="700"/>
      <point x="238" y="682"/>
      <point x="233" y="667" type="curve"/>
      <point x="15" y="37" type="line"/>
      <point x="13" y="32"/>
      <point x="11" y="24"/>
      <point x="11" y="22" type="curve" smooth="yes"/>
      <point x="11" y="10"/>
      <point x="21" y="0"/>
      <point x="33" y="0" type="curve"/>
      <point x="159" y="0" type="line"/>
      <point x="185" y="0"/>
      <point x="195" y="15"/>
      <point x="198" y="25" type="curve"/>
      <point x="226" y="108" type="line"/>
      <point x="492" y="108" type="line"/>
      <point x="520" y="25" type="line"/>
      <point x="520" y="23" type="line"/>
      <point x="509" y="0"/>
      <point x="504" y="-27"/>
      <point x="504" y="-56" type="curve" smooth="yes"/>
      <point x="504" y="-151"/>
      <point x="565" y="-220"/>
      <point x="666" y="-220" type="curve"/>
      <point x="685" y="-220" type="line"/>
      <point x="698" y="-220"/>
      <point x="707" y="-211"/>
      <point x="707" y="-198" type="curve"/>
      <point x="707" y="-134" type="line"/>
      <point x="707" y="-121"/>
      <point x="698" y="-112"/>
      <point x="685" y="-112" type="curve"/>
      <point x="670" y="-112" type="line"/>
      <point x="636" y="-112"/>
      <point x="616" y="-87"/>
      <point x="616" y="-56" type="curve" name="hr01" smooth="yes"/>
      <point x="616" y="-25"/>
      <point x="636" y="0"/>
      <point x="670" y="0" type="curve"/>
      <point x="685" y="0" type="line"/>
      <point x="697" y="0"/>
      <point x="707" y="10"/>
      <point x="707" y="22" type="curve" name="hr02" smooth="yes"/>
      <point x="707" y="24"/>
      <point x="705" y="32"/>
      <point x="703" y="37" type="curve"/>
      <point x="485" y="667" type="line"/>
      <point x="480" y="682"/>
      <point x="467" y="700"/>
    </contour>
    <contour>
      <point x="359" y="503" type="line"/>
      <point x="440" y="263" type="line"/>
      <point x="278" y="263" type="line"/>
    </contour>
  </outline>
</glyph>
<glyph name="aogonek" format="1">
  <advance width="589"/>
  <unicode hex="0105"/>
  <outline>
    <contour>
      <point x="24" y="148" type="curve" smooth="yes"/>
      <point x="24" y="58"/>
      <point x="88" y="-10"/>
      <point x="203" y="-10" type="curve" smooth="yes"/>
      <point x="280" y="-10"/>
      <point x="324" y="15"/>
      <point x="356" y="55" type="curve"/>
      <point x="356" y="24" type="line"/>
      <point x="337" y="1"/>
      <point x="328" y="-26"/>
      <point x="328" y="-56" type="curve" name="hr01" smooth="yes"/>
      <point x="328" y="-151"/>
      <point x="389" y="-220"/>
      <point x="490" y="-220" type="curve"/>
      <point x="509" y="-220" type="line"/>
      <point x="522" y="-220"/>
      <point x="531" y="-211"/>
      <point x="531" y="-198" type="curve"/>
      <point x="531" y="-134" type="line"/>
      <point x="531" y="-121"/>
      <point x="522" y="-112"/>
      <point x="509" y="-112" type="curve"/>
      <point x="494" y="-112" type="line"/>
      <point x="460" y="-112"/>
      <point x="440" y="-87"/>
      <point x="440" y="-56" type="curve" smooth="yes"/>
      <point x="440" y="-27"/>
      <point x="457" y="-3"/>
      <point x="486" y="0" type="curve"/>
      <point x="509" y="0" type="line"/>
      <point x="524" y="0"/>
      <point x="536" y="12"/>
      <point x="536" y="27" type="curve" name="hr02"/>
      <point x="536" y="330" type="line"/>
      <point x="536" y="447"/>
      <point x="462" y="530"/>
      <point x="298" y="530" type="curve" smooth="yes"/>
      <point x="161" y="530"/>
      <point x="64" y="448"/>
      <point x="59" y="387" type="curve" smooth="yes"/>
      <point x="58" y="374"/>
      <point x="68" y="365"/>
      <point x="81" y="365" type="curve"/>
      <point x="208" y="365" type="line"/>
      <point x="222" y="365"/>
      <point x="232" y="366"/>
      <point x="244" y="377" type="curve" smooth="yes"/>
      <point x="252" y="384"/>
      <point x="268" y="395"/>
      <point x="298" y="395" type="curve" name="hr03" smooth="yes"/>
      <point x="341" y="395"/>
      <point x="356" y="372"/>
      <point x="356" y="340" type="curve"/>
      <point x="239" y="320" type="line"/>
      <point x="88" y="294"/>
      <point x="24" y="235"/>
    </contour>
    <contour>
      <point x="252" y="125" type="curve" smooth="yes"/>
      <point x="222" y="125"/>
      <point x="204" y="134"/>
      <point x="204" y="159" type="curve" smooth="yes"/>
      <point x="204" y="184"/>
      <point x="228" y="200"/>
      <point x="264" y="207" type="curve"/>
      <point x="356" y="221" type="line"/>
      <point x="356" y="168"/>
      <point x="311" y="125"/>
    </contour>
  </outline>
</glyph>
<glyph name="dcroat" format="1">
  <advance width="629"/>
  <unicode hex="0111"/>
  <outline>
    <contour>
      <point x="260" y="530" type="curve" smooth="yes"/>
      <point x="139" y="530"/>
      <point x="45" y="457"/>
      <point x="39" y="300" type="curve" smooth="yes"/>
      <point x="38" y="280"/>
      <point x="38" y="239"/>
      <point x="39" y="219" type="curve" smooth="yes"/>
      <point x="45" y="62"/>
      <point x="140" y="-10"/>
      <point x="260" y="-10" type="curve" smooth="yes"/>
      <point x="348" y="-10"/>
      <point x="372" y="22"/>
      <point x="396" y="50" type="curve"/>
      <point x="396" y="27" type="line"/>
      <point x="396" y="12"/>
      <point x="408" y="0"/>
      <point x="423" y="0" type="curve" name="hr01"/>
      <point x="544" y="0" type="line"/>
      <point x="559" y="0"/>
      <point x="571" y="12"/>
      <point x="571" y="27" type="curve"/>
      <point x="571" y="552" type="line"/>
      <point x="624" y="552" type="line"/>
      <point x="639" y="552"/>
      <point x="651" y="564"/>
      <point x="651" y="579" type="curve"/>
      <point x="651" y="622" type="line"/>
      <point x="651" y="637"/>
      <point x="639" y="649"/>
      <point x="624" y="649" type="curve"/>
      <point x="571" y="649" type="line"/>
      <point x="571" y="683" type="line"/>
      <point x="571" y="698"/>
      <point x="559" y="710"/>
      <point x="544" y="710" type="curve"/>
      <point x="418" y="710" type="line"/>
      <point x="403" y="710"/>
      <point x="391" y="698"/>
      <point x="391" y="683" type="curve"/>
      <point x="391" y="649" type="line"/>
      <point x="338" y="649" type="line"/>
      <point x="323" y="649"/>
      <point x="311" y="637"/>
      <point x="311" y="622" type="curve"/>
      <point x="311" y="579" type="line"/>
      <point x="311" y="564"/>
      <point x="323" y="552"/>
      <point x="338" y="552" type="curve"/>
      <point x="391" y="552" type="line"/>
      <point x="391" y="470" type="line"/>
      <point x="373" y="495"/>
      <point x="337" y="530"/>
    </contour>
    <contour>
      <point x="218" y="288" type="curve" smooth="yes"/>
      <point x="222" y="335"/>
      <point x="243" y="375"/>
      <point x="305" y="375" type="curve" smooth="yes"/>
      <point x="364" y="375"/>
      <point x="386" y="334"/>
      <point x="391" y="295" type="curve" smooth="yes"/>
      <point x="394" y="275"/>
      <point x="394" y="245"/>
      <point x="391" y="225" type="curve" smooth="yes"/>
      <point x="385" y="186"/>
      <point x="364" y="145"/>
      <point x="305" y="145" type="curve" name="hr02" smooth="yes"/>
      <point x="243" y="145"/>
      <point x="222" y="185"/>
      <point x="218" y="232" type="curve" smooth="yes"/>
      <point x="216" y="252"/>
      <point x="216" y="268"/>
    </contour>
  </outline>
</glyph>
<glyph name="Eogonek" format="1">
  <advance width="643"/>
  <unicode hex="0118"/>
  <outline>
    <contour>
      <point x="576" y="-220" type="line"/>
      <point x="589" y="-220"/>
      <point x="598" y="-211"/>
      <point x="598" y="-198" type="curve"/>
      <point x="598" y="-134" type="line"/>
      <point x="598" y="-121"/>
      <point x="589" y="-112"/>
      <point x="576" y="-112" type="curve"/>
      <point x="561" y="-112" type="line"/>
      <point x="527" y="-112"/>
      <point x="507" y="-87"/>
      <point x="507" y="-56" type="curve" name="hr01" smooth="yes"/>
      <point x="507" y="-26"/>
      <point x="525" y="0"/>
      <point x="556" y="0" type="curve"/>
      <point x="571" y="0" type="line"/>
      <point x="586" y="0"/>
      <point x="598" y="12"/>
      <point x="598" y="27" type="curve" name="hr02"/>
      <point x="598" y="133" type="line"/>
      <point x="598" y="148"/>
      <point x="586" y="160"/>
      <point x="571" y="160" type="curve"/>
      <point x="255" y="160" type="line"/>
      <point x="255" y="272" type="line"/>
      <point x="541" y="272" type="line"/>
      <point x="556" y="272"/>
      <point x="568" y="284"/>
      <point x="568" y="299" type="curve"/>
      <point x="568" y="405" type="line"/>
      <point x="568" y="420"/>
      <point x="556" y="432"/>
      <point x="541" y="432" type="curve"/>
      <point x="255" y="432" type="line"/>
      <point x="255" y="540" type="line"/>
      <point x="563" y="540" type="line"/>
      <point x="578" y="540"/>
      <point x="590" y="552"/>
      <point x="590" y="567" type="curve"/>
      <point x="590" y="673" type="line"/>
      <point x="590" y="688"/>
      <point x="578" y="700"/>
      <point x="563" y="700" type="curve"/>
      <point x="97" y="700" type="line"/>
      <point x="82" y="700"/>
      <point x="70" y="688"/>
      <point x="70" y="673" type="curve"/>
      <point x="70" y="27" type="line"/>
      <point x="70" y="12"/>
      <point x="82" y="0"/>
      <point x="97" y="0" type="curve"/>
      <point x="403" y="0" type="line"/>
      <point x="398" y="-17"/>
      <point x="395" y="-36"/>
      <point x="395" y="-56" type="curve" smooth="yes"/>
      <point x="395" y="-151"/>
      <point x="456" y="-220"/>
      <point x="557" y="-220" type="curve"/>
    </contour>
  </outline>
</glyph>
<glyph name="eogonek" format="1">
  <advance width="607"/>
  <unicode hex="0119"/>
  <outline>
    <contour>
      <point x="547" y="203" type="line"/>
      <point x="562" y="203"/>
      <point x="574" y="215"/>
      <point x="574" y="230" type="curve"/>
      <point x="574" y="258" type="line"/>
      <point x="574" y="385"/>
      <point x="500" y="530"/>
      <point x="304" y="530" type="curve" smooth="yes"/>
      <point x="130" y="530"/>
      <point x="34" y="416"/>
      <point x="34" y="260" type="curve" smooth="yes"/>
      <point x="34" y="130"/>
      <point x="91" y="39"/>
      <point x="198" y="5" type="curve"/>
      <point x="192" y="-13"/>
      <point x="189" y="-34"/>
      <point x="189" y="-56" type="curve" name="hr01" smooth="yes"/>
      <point x="189" y="-151"/>
      <point x="250" y="-220"/>
      <point x="351" y="-220" type="curve"/>
      <point x="370" y="-220" type="line"/>
      <point x="383" y="-220"/>
      <point x="392" y="-211"/>
      <point x="392" y="-198" type="curve"/>
      <point x="392" y="-134" type="line"/>
      <point x="392" y="-121"/>
      <point x="383" y="-112"/>
      <point x="370" y="-112" type="curve"/>
      <point x="355" y="-112" type="line"/>
      <point x="321" y="-112"/>
      <point x="301" y="-87"/>
      <point x="301" y="-56" type="curve" name="hr02" smooth="yes"/>
      <point x="301" y="-25"/>
      <point x="320" y="-12"/>
      <point x="354" y="-7" type="curve" smooth="yes"/>
      <point x="503" y="14"/>
      <point x="566" y="112"/>
      <point x="566" y="140" type="curve" smooth="yes"/>
      <point x="566" y="153"/>
      <point x="557" y="162"/>
      <point x="544" y="162" type="curve"/>
      <point x="414" y="162" type="line"/>
      <point x="398" y="162"/>
      <point x="395" y="160"/>
      <point x="381" y="148" type="curve" smooth="yes"/>
      <point x="365" y="134"/>
      <point x="344" y="125"/>
      <point x="304" y="125" type="curve" smooth="yes"/>
      <point x="264" y="125"/>
      <point x="214" y="142"/>
      <point x="214" y="203" type="curve" name="hr03"/>
    </contour>
    <contour>
      <point x="304" y="395" type="curve" smooth="yes"/>
      <point x="359" y="395"/>
      <point x="389" y="355"/>
      <point x="394" y="314" type="curve"/>
      <point x="214" y="314" type="line"/>
      <point x="219" y="355"/>
      <point x="249" y="395"/>
    </contour>
  </outline>
</glyph>
<glyph name="Hbar" format="1">
  <advance width="732"/>
  <unicode hex="0126"/>
  <outline>
    <contour>
      <point x="504" y="700" type="line" name="hr00"/>
      <point x="489" y="700"/>
      <point x="477" y="688"/>
      <point x="477" y="673" type="curve"/>
      <point x="477" y="634" type="line"/>
      <point x="255" y="634" type="line"/>
      <point x="255" y="673" type="line"/>
      <point x="255" y="688"/>
      <point x="243" y="700"/>
      <point x="228" y="700" type="curve"/>
      <point x="97" y="700" type="line"/>
      <point x="82" y="700"/>
      <point x="70" y="688"/>
      <point x="70" y="673" type="curve"/>
      <point x="70" y="27" type="line"/>
      <point x="70" y="11"/>
      <point x="82" y="0"/>
      <point x="97" y="0" type="curve"/>
      <point x="228" y="0" type="line"/>
      <point x="243" y="0"/>
      <point x="255" y="12"/>
      <point x="255" y="27" type="curve"/>
      <point x="255" y="272" type="line"/>
      <point x="477" y="272" type="line"/>
      <point x="477" y="27" type="line"/>
      <point x="477" y="12"/>
      <point x="489" y="0"/>
      <point x="504" y="0" type="curve"/>
      <point x="635" y="0" type="line"/>
      <point x="650" y="0"/>
      <point x="662" y="12"/>
      <point x="662" y="27" type="curve"/>
      <point x="662" y="673" type="line"/>
      <point x="662" y="688"/>
      <point x="650" y="700"/>
      <point x="635" y="700" type="curve"/>
    </contour>
    <contour>
      <point x="255" y="432" type="line"/>
      <point x="255" y="499" type="line"/>
      <point x="477" y="499" type="line"/>
      <point x="477" y="432" type="line"/>
    </contour>
  </outline>
</glyph>
<glyph name="itilde" format="1">
  <advance width="296"/>
  <unicode hex="0129"/>
  <outline>
    <contour>
      <point x="247" y="568" type="curve" smooth="yes"/>
      <point x="346" y="568"/>
      <point x="378" y="658"/>
      <point x="378" y="714" type="curve" smooth="yes"/>
      <point x="378" y="724"/>
      <point x="371" y="733"/>
      <point x="359" y="733" type="curve" smooth="yes"/>
      <point x="275" y="733" type="line" smooth="yes"/>
      <point x="268" y="733"/>
      <point x="263" y="729"/>
      <point x="260" y="724" type="curve" smooth="yes"/>
      <point x="254" y="715"/>
      <point x="249" y="699"/>
      <point x="220" y="699" type="curve" smooth="yes"/>
      <point x="188" y="699"/>
      <point x="163" y="736"/>
      <point x="102" y="736" type="curve" name="hr01" smooth="yes"/>
      <point x="2" y="736"/>
      <point x="-29" y="635"/>
      <point x="-29" y="589" type="curve" smooth="yes"/>
      <point x="-29" y="579"/>
      <point x="-20" y="571"/>
      <point x="-10" y="571" type="curve" smooth="yes"/>
      <point x="74" y="571" type="line" smooth="yes"/>
      <point x="81" y="571"/>
      <point x="86" y="575"/>
      <point x="89" y="580" type="curve" smooth="yes"/>
      <point x="95" y="590"/>
      <point x="99" y="605"/>
      <point x="129" y="605" type="curve" smooth="yes"/>
      <point x="161" y="605"/>
      <point x="195" y="568"/>
    </contour>
    <component base="dotlessi"/>
  </outline>
</glyph>
<glyph name="Iogonek" format="1">
  <advance width="325"/>
  <unicode hex="012E"/>
  <outline>
    <contour>
      <point x="228" y="0" type="line"/>
      <point x="243" y="0"/>
      <point x="255" y="12"/>
      <point x="255" y="27" type="curve"/>
      <point x="255" y="673" type="line"/>
      <point x="255" y="688"/>
      <point x="243" y="700"/>
      <point x="228" y="700" type="curve"/>
      <point x="97" y="700" type="line"/>
      <point x="82" y="700"/>
      <point x="70" y="688"/>
      <point x="70" y="673" type="curve"/>
      <point x="70" y="26" type="line"/>
      <point x="58" y="2"/>
      <point x="52" y="-25"/>
      <point x="52" y="-56" type="curve" name="hr01" smooth="yes"/>
      <point x="52" y="-151"/>
      <point x="113" y="-220"/>
      <point x="214" y="-220" type="curve"/>
      <point x="233" y="-220" type="line"/>
      <point x="246" y="-220"/>
      <point x="255" y="-211"/>
      <point x="255" y="-198" type="curve" name="hr02"/>
      <point x="255" y="-134" type="line"/>
      <point x="255" y="-121"/>
      <point x="246" y="-112"/>
      <point x="233" y="-112" type="curve"/>
      <point x="218" y="-112" type="line"/>
      <point x="184" y="-112"/>
      <point x="164" y="-87"/>
      <point x="164" y="-56" type="curve" name="hr03" smooth="yes"/>
      <point x="164" y="-25"/>
      <point x="184" y="0"/>
      <point x="218" y="0" type="curve"/>
    </contour>
  </outline>
</glyph>
<glyph name="iogonek" format="1">
  <advance width="297"/>
  <unicode hex="012F"/>
  <outline>
    <contour>
      <point x="239" y="493" type="line" smooth="yes"/>
      <point x="239" y="508"/>
      <point x="227" y="520"/>
      <point x="212" y="520" type="curve" smooth="yes"/>
      <point x="86" y="520" type="line" smooth="yes"/>
      <point x="71" y="520"/>
      <point x="59" y="508"/>
      <point x="59" y="493" type="curve" smooth="yes"/>
      <point x="59" y="35" type="line"/>
      <point x="44" y="9"/>
      <point x="36" y="-21"/>
      <point x="36" y="-56" type="curve" name="hr01" smooth="yes"/>
      <point x="36" y="-151"/>
      <point x="97" y="-220"/>
      <point x="198" y="-220" type="curve" smooth="yes"/>
      <point x="217" y="-220" type="line" smooth="yes"/>
      <point x="230" y="-220"/>
      <point x="239" y="-211"/>
      <point x="239" y="-198" type="curve" name="hr02" smooth="yes"/>
      <point x="239" y="-134" type="line" smooth="yes"/>
      <point x="239" y="-121"/>
      <point x="230" y="-112"/>
      <point x="217" y="-112" type="curve" smooth="yes"/>
      <point x="202" y="-112" type="line" smooth="yes"/>
      <point x="168" y="-112"/>
      <point x="148" y="-87"/>
      <point x="148" y="-56" type="curve" name="hr03" smooth="yes"/>
      <point x="148" y="-25"/>
      <point x="168" y="0"/>
      <point x="202" y="0" type="curve" smooth="yes"/>
      <point x="212" y="0" type="line" smooth="yes"/>
      <point x="227" y="0"/>
      <point x="239" y="12"/>
      <point x="239" y="27" type="curve" name="hr04" smooth="yes"/>
    </contour>
    <contour>
      <point x="239" y="703" type="line" smooth="yes"/>
      <point x="239" y="718"/>
      <point x="227" y="730"/>
      <point x="212" y="730" type="curve" smooth="yes"/>
      <point x="86" y="730" type="line" smooth="yes"/>
      <point x="71" y="730"/>
      <point x="59" y="718"/>
      <point x="59" y="703" type="curve" smooth="yes"/>
      <point x="59" y="602" type="line" smooth="yes"/>
      <point x="59" y="587"/>
      <point x="71" y="575"/>
      <point x="86" y="575" type="curve" smooth="yes"/>
      <point x="212" y="575" type="line" smooth="yes"/>
      <point x="227" y="575"/>
      <point x="239" y="587"/>
      <point x="239" y="602" type="curve" smooth="yes"/>
    </contour>
  </outline>
</glyph>
<glyph name="dotlessi" format="1">
  <advance width="296"/>
  <unicode hex="0131"/>
  <outline>
    <contour>
      <point x="238" y="493" type="line" name="hr00" smooth="yes"/>
      <point x="238" y="508"/>
      <point x="226" y="520"/>
      <point x="211" y="520" type="curve" smooth="yes"/>
      <point x="85" y="520" type="line" smooth="yes"/>
      <point x="70" y="520"/>
      <point x="58" y="508"/>
      <point x="58" y="493" type="curve" smooth="yes"/>
      <point x="58" y="27" type="line" smooth="yes"/>
      <point x="58" y="12"/>
      <point x="70" y="0"/>
      <point x="85" y="0" type="curve" smooth="yes"/>
      <point x="211" y="0" type="line" smooth="yes"/>
      <point x="226" y="0"/>
      <point x="238" y="12"/>
      <point x="238" y="27" type="curve" smooth="yes"/>
    </contour>
  </outline>
</glyph>
